<?xml version="1.0" encoding="UTF-8"?> <svg xmlns="http://www.w3.org/2000/svg" width="497" height="550" viewBox="0 0 497 550" fill="none"> <path fill-rule="evenodd" clip-rule="evenodd" d="M222.34 248.499C239.676 248.499 253.729 262.816 253.729 280.478V378.699C253.729 396.361 239.676 410.678 222.34 410.678C205.004 410.678 190.95 396.361 190.95 378.699V280.478C190.95 262.816 205.004 248.499 222.34 248.499Z" fill="#E4253F" fill-opacity="0.2"></path> <path fill-rule="evenodd" clip-rule="evenodd" d="M277.149 34.2172C259.419 23.9525 237.581 23.9525 219.851 34.2172L55.2481 129.511C37.5113 139.779 26.5573 158.776 26.5573 179.365L26.5573 369.951C26.5573 390.54 37.5113 409.537 55.2481 419.805L219.851 515.099C237.581 525.363 259.419 525.363 277.149 515.099L441.752 419.805C459.489 409.537 470.443 390.54 470.443 369.951V179.365C470.443 158.776 459.489 139.779 441.752 129.511L277.149 34.2172ZM206.531 11.2754C232.499 -3.75848 264.501 -3.75848 290.47 11.2754L455.072 106.569C481.034 121.599 497 149.356 497 179.365V369.951C497 399.96 481.034 427.717 455.072 442.747L290.47 538.04C264.501 553.074 232.499 553.074 206.531 538.04L41.9278 442.747C15.9657 427.717 -9.04535e-07 399.96 0 369.951L8.14081e-06 179.365C9.94988e-06 149.356 15.9657 121.599 41.9278 106.569L206.531 11.2754Z" fill="#E4253F" fill-opacity="0.2"></path> <circle cx="142.554" cy="380.601" r="30.0816" fill="white" fill-opacity="0.2"></circle> <path fill-rule="evenodd" clip-rule="evenodd" d="M304.734 107.247C322.792 107.247 337.431 121.765 337.431 139.675V378.251C337.431 396.16 322.792 410.679 304.734 410.679C286.675 410.679 272.036 396.16 272.036 378.251V139.675C272.036 121.765 286.675 107.247 304.734 107.247Z" fill="#E4253F" fill-opacity="0.2"></path> </svg> 