<?xml version="1.0" encoding="UTF-8"?> <svg xmlns="http://www.w3.org/2000/svg" width="109" height="109" viewBox="0 0 109 109" fill="none"> <path fill-rule="evenodd" clip-rule="evenodd" d="M109 54.5L108.999 59.9499L108.995 62.2072L108.988 63.9389L108.978 65.3985L108.966 66.684L108.951 67.8457L108.933 68.9134L108.913 69.9067L108.89 70.8389L108.864 71.72L108.835 72.5574L108.804 73.3567L108.77 74.1226L108.733 74.8587L108.693 75.5682L108.651 76.2535L108.606 76.9168L108.558 77.56L108.507 78.1845L108.454 78.7919L108.398 79.3833L108.339 79.9597L108.278 80.5221L108.213 81.0713L108.146 81.6081L108.076 82.1332L108.004 82.6471L107.928 83.1504L107.85 83.6436L107.769 84.1272L107.685 84.6015L107.599 85.067L107.509 85.524L107.417 85.9728L107.322 86.4138L107.224 86.8472L107.124 87.2733L107.02 87.6923L106.914 88.1044L106.805 88.5098L106.693 88.9089L106.578 89.3016L106.46 89.6882L106.34 90.0689L106.216 90.4438L106.09 90.813L105.96 91.1768L105.828 91.5351L105.693 91.8882L105.555 92.2361L105.414 92.579L105.27 92.9169L105.124 93.25L104.974 93.5783L104.821 93.9019L104.665 94.221L104.507 94.5355L104.345 94.8456L104.18 95.1513L104.012 95.4528L103.841 95.75L103.667 96.043L103.49 96.3319L103.31 96.6167L103.127 96.8976L102.94 97.1745L102.751 97.4474L102.558 97.7166L102.362 97.9819L102.163 98.2434L101.961 98.5012L101.755 98.7554L101.546 99.0058L101.334 99.2527L101.119 99.496L100.9 99.7357L100.678 99.9719L100.452 100.205L100.223 100.434L99.9906 100.66L99.7546 100.882L99.5152 101.101L99.2722 101.317L99.0256 101.53L98.7754 101.739L98.5216 101.945L98.2641 102.147L98.0029 102.347L97.7378 102.543L97.469 102.736L97.1964 102.925L96.9198 103.112L96.6392 103.296L96.3547 103.476L96.0661 103.653L95.7734 103.828L95.4766 103.999L95.1755 104.167L94.8701 104.332L94.5604 104.494L94.2462 104.653L93.9275 104.809L93.6042 104.962L93.2763 105.112L92.9436 105.259L92.6061 105.403L92.2636 105.544L91.9161 105.682L91.5634 105.818L91.2055 105.95L90.8422 106.08L90.4734 106.206L90.099 106.33L89.7187 106.451L89.3326 106.569L88.9404 106.684L88.5419 106.796L88.1369 106.905L87.7253 107.012L87.3069 107.115L86.8814 107.216L86.4486 107.314L86.0082 107.41L85.56 107.502L85.1037 107.592L84.6389 107.678L84.1653 107.762L83.6825 107.844L83.19 107.922L82.6876 107.998L82.1745 108.071L81.6504 108.141L81.1145 108.208L80.5663 108.273L80.005 108.334L79.4297 108.393L78.8396 108.45L78.2335 108.503L77.6104 108.554L76.9687 108.602L76.3071 108.647L75.6236 108.69L74.9162 108.73L74.1823 108.767L73.4189 108.801L72.6224 108.833L71.7882 108.862L70.9109 108.888L69.983 108.911L68.9951 108.932L67.9339 108.95L66.7806 108.965L65.5064 108.977L64.0634 108.987L62.3591 108.994L60.1628 108.998L56.0379 109L49.2715 108.999L46.9478 108.995L45.1871 108.988L43.7104 108.979L42.4133 108.967L41.243 108.952L40.1686 108.935L39.17 108.915L38.2333 108.892L37.3484 108.866L36.5078 108.837L35.7057 108.806L34.9372 108.772L34.1989 108.736L33.4874 108.696L32.8002 108.654L32.1352 108.609L31.4905 108.562L30.8645 108.512L30.2558 108.458L29.6632 108.403L29.0856 108.344L28.5222 108.283L27.9719 108.219L27.4341 108.152L26.9082 108.082L26.3934 108.01L25.8893 107.934L25.3953 107.856L24.911 107.776L24.4359 107.692L23.9697 107.606L23.5121 107.516L23.0626 107.425L22.621 107.33L22.187 107.232L21.7604 107.132L21.3408 107.029L20.9282 106.922L20.5222 106.813L20.1227 106.702L19.7294 106.587L19.3423 106.47L18.9612 106.349L18.5858 106.226L18.2161 106.1L17.852 105.971L17.4932 105.839L17.1397 105.704L16.7914 105.566L16.4481 105.426L16.1098 105.282L15.7763 105.135L15.4477 104.986L15.1236 104.833L14.8042 104.678L14.4893 104.519L14.1789 104.358L13.8728 104.193L13.571 104.026L13.2735 103.855L12.9802 103.681L12.6909 103.504L12.4058 103.325L12.1246 103.142L11.8474 102.955L11.5741 102.766L11.3047 102.574L11.0391 102.378L10.7772 102.179L10.5191 101.977L10.2647 101.772L10.0139 101.563L9.7668 101.351L9.52324 101.136L9.28323 100.917L9.04673 100.695L8.81372 100.47L8.58416 100.241L8.35803 100.009L8.1353 99.7736L7.91594 99.5344L7.69993 99.2917L7.48724 99.0454L7.27785 98.7955L7.07173 98.542L6.86886 98.2847L6.66923 98.0238L6.47281 97.7591L6.27958 97.4906L6.08952 97.2182L5.90262 96.9419L5.71886 96.6617L5.53821 96.3775L5.36067 96.0893L5.18621 95.7969L5.01483 95.5004L4.8465 95.1996L4.68122 94.8946L4.51897 94.5852L4.35973 94.2714L4.20349 93.953L4.05025 93.6301L3.89999 93.3026L3.75269 92.9703L3.60835 92.6331L3.46695 92.291L3.3285 91.9439L3.19296 91.5917L3.06034 91.2342L2.93063 90.8713L2.80382 90.503L2.67989 90.129L2.55885 89.7492L2.44067 89.3636L2.32537 88.9718L2.21291 88.5738L2.10331 88.1694L1.99656 87.7584L1.89264 87.3405L1.79155 86.9156L1.69328 86.4833L1.59783 86.0436L1.50519 85.596L1.41537 85.1403L1.32834 84.6762L1.24411 84.2033L1.16267 83.7212L1.08401 83.2296L1.00814 82.7279L0.935051 82.2158L0.864734 81.6925L0.797187 81.1576L0.732406 80.6104L0.670389 80.0502L0.611131 79.4761L0.55463 78.8871L0.500883 78.2824L0.449886 77.6606L0.401637 77.0205L0.356134 76.3605L0.313375 75.6789L0.273356 74.9734L0.236076 74.2417L0.201533 73.4808L0.169725 72.6871L0.140651 71.8562L0.114309 70.9825L0.0906972 70.059L0.0698154 69.0762L0.0516622 68.0214L0.0362365 66.8764L0.0235377 65.6133L0.0135651 64.1862L0.00631812 62.5081L0.00179651 60.3679L0 56.675L0.000928505 49.5028L0.00458207 47.106L0.0109609 45.3149L0.0200653 43.8205L0.0318956 42.5114L0.0464526 41.3324L0.063737 40.2511L0.0837495 39.2471L0.106491 38.3058L0.131963 37.4171L0.160167 36.5732L0.191104 35.7682L0.224776 34.9973L0.261184 34.2566L0.30033 33.5431L0.342216 32.8541L0.386845 32.1874L0.434219 31.5411L0.48434 30.9137L0.537211 30.3037L0.592835 29.7098L0.651214 29.1311L0.712352 28.5665L0.776252 28.0152L0.842917 27.4765L0.912352 26.9496L0.98456 26.434L1.05954 25.929L1.13731 25.4342L1.21786 24.9492L1.3012 24.4734L1.38734 24.0065L1.47628 23.5482L1.56802 23.098L1.66257 22.6558L1.75994 22.2213L1.86013 21.794L1.96315 21.3739L2.069 20.9607L2.17769 20.5542L2.28924 20.1542L2.40363 19.7605L2.52089 19.3729L2.64102 18.9913L2.76403 18.6155L2.88992 18.2453L3.01871 17.8807L3.1504 17.5215L3.28501 17.1676L3.42253 16.8189L3.56299 16.4752L3.70639 16.1365L3.85275 15.8027L4.00206 15.4736L4.15436 15.1492L4.30964 14.8295L4.46792 14.5142L4.62921 14.2034L4.79353 13.897L4.96088 13.5949L5.13129 13.297L5.30476 13.0033L5.48132 12.7138L5.66098 12.4283L5.84375 12.1468L6.02965 11.8693L6.2187 11.5957L6.41091 11.326L6.60632 11.06L6.80492 10.7979L7.00676 10.5395L7.21184 10.2848L7.42018 10.0337L7.63182 9.78631L7.84677 9.54247L8.06506 9.30217L8.28672 9.0654L8.51176 8.83211L8.74022 8.60228L8.97213 8.37587L9.20751 8.15287L9.4464 7.93325L9.68883 7.71697L9.93483 7.50401L10.1844 7.29436L10.4377 7.08798L10.6946 6.88486L10.9553 6.68497L11.2197 6.48829L11.4879 6.29481L11.7599 6.1045L12.0359 5.91735L12.3158 5.73333L12.5997 5.55244L12.8876 5.37465L13.1796 5.19995L13.4758 5.02832L13.7762 4.85975L14.0809 4.69423L14.39 4.53173L14.7034 4.37226L15.0214 4.21578L15.3439 4.0623L15.6711 3.9118L16.0031 3.76427L16.3398 3.61969L16.6815 3.47806L17.0282 3.33937L17.38 3.2036L17.7371 3.07075L18.0995 2.94081L18.4675 2.81377L18.841 2.68961L19.2203 2.56834L19.6055 2.44994L19.9967 2.3344L20.3942 2.22172L20.7981 2.1119L21.2086 2.00491L21.626 1.90077L22.0503 1.79945L22.4819 1.70096L22.9211 1.60529L23.368 1.51243L23.823 1.42237L24.2865 1.33512L24.7587 1.25067L25.24 1.16901L25.7309 1.09013L26.2317 1.01404L26.743 0.940727L27.2654 0.870189L27.7993 0.802421L28.3455 0.73742L28.9047 0.675183L29.4777 0.615706L30.0654 0.558985L30.6688 0.505019L31.2892 0.453803L31.9277 0.405336L32.5861 0.359614L33.266 0.316636L33.9694 0.276399L34.6989 0.238901L35.4574 0.20414L36.2484 0.172115L37.0761 0.142823L37.9462 0.116263L38.8654 0.0924343L39.843 0.0713352L40.8915 0.0529646L42.0285 0.0373218L43.2809 0.0244058L44.6925 0.0142161L46.3455 0.00675214L48.4339 0.00201351L51.8362 0L59.2546 0.000711505L61.7323 0.00414806L63.5554 0.0103098L65.0682 0.0191972L66.3896 0.0308105L67.5776 0.0451503L68.6657 0.0622174L69.6754 0.0820127L70.6212 0.104537L71.5138 0.129792L72.361 0.157778L73.1689 0.188497L73.9424 0.221951L74.6854 0.258141L75.401 0.297069L76.0919 0.338737L76.7602 0.383148L77.4081 0.430303L78.0369 0.480205L78.6483 0.532857L79.2434 0.588261L79.8233 0.646421L80.389 0.707339L80.9413 0.771019L81.481 0.837464L82.0088 0.906678L82.5253 0.978665L83.0311 1.05343L83.5267 1.13097L84.0125 1.2113L84.489 1.29442L84.9566 1.38034L85.4156 1.46905L85.8663 1.56057L86.3092 1.6549L86.7444 1.75204L87.1721 1.852L87.5928 1.9548L88.0065 2.06042L88.4136 2.16889L88.8141 2.28021L89.2083 2.39438L89.5964 2.51141L89.9785 2.63131L90.3547 2.75409L90.7253 2.87975L91.0904 3.00831L91.45 3.13977L91.8043 3.27414L92.1535 3.41143L92.4975 3.55166L92.8366 3.69482L93.1708 3.84094L93.5003 3.99002L93.825 4.14208L94.1452 4.29712L94.4608 4.45516L94.7719 4.61621L95.0787 4.78029L95.3811 4.9474L95.6793 5.11757L95.9734 5.2908L96.2632 5.46711L96.5491 5.64652L96.8308 5.82904L97.1087 6.01469L97.3826 6.20349L97.6526 6.39545L97.9189 6.5906L98.1813 6.78895L98.44 6.99053L98.695 7.19535L98.9463 7.40343L99.1941 7.61481L99.4382 7.82949L99.6787 8.04752L99.9158 8.2689L100.149 8.49368L100.379 8.72187L100.606 8.9535L100.829 9.1886L101.049 9.42721L101.266 9.66936L101.479 9.91507L101.689 10.1644L101.896 10.4173L102.099 10.674L102.299 10.9343L102.496 11.1984L102.69 11.4663L102.88 11.7381L103.068 12.0137L103.252 12.2933L103.433 12.5769L103.611 12.8645L103.786 13.1562L103.958 13.452L104.127 13.7521L104.293 14.0565L104.455 14.3652L104.615 14.6783L104.772 14.9959L104.926 15.3181L105.076 15.6449L105.224 15.9764L105.369 16.3128L105.511 16.6541L105.65 17.0004L105.786 17.3518L105.919 17.7084L106.049 18.0704L106.176 18.4379L106.301 18.811L106.422 19.1898L106.541 19.5745L106.656 19.9653L106.769 20.3623L106.879 20.7657L106.987 21.1757L107.091 21.5924L107.193 22.0162L107.291 22.4473L107.387 22.8858L107.48 23.3321L107.57 23.7865L107.658 24.2492L107.743 24.7207L107.825 25.2013L107.904 25.6914L107.98 26.1914L108.053 26.7019L108.124 27.2233L108.192 27.7563L108.257 28.3015L108.32 28.8596L108.38 29.4315L108.437 30.018L108.491 30.6201L108.542 31.2391L108.591 31.8762L108.637 32.5329L108.68 33.211L108.72 33.9125L108.758 34.6398L108.793 35.3959L108.825 36.1841L108.855 37.0087L108.882 37.8752L108.906 38.7902L108.927 39.7628L108.946 40.805L108.961 41.9342L108.975 43.176L108.985 44.5727L108.993 46.2018L108.998 48.242L109 51.4241L109 54.5Z" fill="#08033D"></path> <path fill-rule="evenodd" clip-rule="evenodd" d="M56.9759 31.6048C55.2572 30.6145 53.1403 30.6145 51.4216 31.6048L35.4658 40.7981C33.7465 41.7887 32.6847 43.6214 32.6847 45.6077L32.6847 63.9942C32.6847 65.9805 33.7465 67.8132 35.4658 68.8038L51.4216 77.9971C53.1403 78.9874 55.2572 78.9874 56.9759 77.9971L72.9317 68.8038C74.651 67.8132 75.7128 65.9805 75.7128 63.9942V45.6077C75.7128 43.6214 74.651 41.7887 72.9317 40.7981L56.9759 31.6048ZM50.1304 29.3915C52.6477 27.9411 55.7498 27.9411 58.2671 29.3915L74.2229 38.5848C76.7395 40.0348 78.2871 42.7126 78.2871 45.6077V63.9942C78.2871 66.8893 76.7395 69.5671 74.2229 71.0171L58.2671 80.2104C55.7498 81.6608 52.6477 81.6608 50.1304 80.2104L34.1746 71.0171C31.658 69.5671 30.1104 66.8893 30.1104 63.9942L30.1104 45.6077C30.1104 42.7126 31.658 40.0348 34.1746 38.5848L50.1304 29.3915Z" fill="#E4253F"></path> </svg> 