<?xml version="1.0" encoding="UTF-8"?> <svg xmlns="http://www.w3.org/2000/svg" width="1920" height="747" viewBox="0 0 1920 747" fill="none"> <g clip-path="url(#clip0)"> <rect width="1920" height="747" fill="white"></rect> <path d="M686.654 358.869H691.976C694.791 358.869 697.073 361.151 697.073 363.967V386.242C697.073 391.537 692.781 395.829 687.487 395.829V395.829C682.193 395.829 677.902 391.537 677.902 386.242V377.21H614V289.533C614 284.238 618.291 279.945 623.585 279.945V279.945C628.879 279.945 633.171 284.238 633.171 289.533V358.869H667.483V289.533C667.483 284.238 671.775 279.945 677.068 279.945V279.945C682.362 279.945 686.654 284.238 686.654 289.533V358.869Z" fill="#090446"></path> <path d="M721.508 349.837C723.916 358.544 730.445 362.898 741.095 362.898C744.914 362.898 748.216 362.179 751 360.741C754.794 358.78 759.427 357.551 763.126 359.686V359.686C767.421 362.164 768.748 367.912 764.97 371.124C758.67 376.478 750.619 379.155 740.817 379.155C729.334 379.155 720.119 375.682 713.173 368.734C706.227 361.787 702.754 353.033 702.754 342.473C702.754 332.005 706.181 323.298 713.034 316.35C719.887 309.31 728.685 305.79 739.428 305.79C749.615 305.79 757.997 309.31 764.572 316.35C771.24 323.39 774.574 332.098 774.574 342.473C774.574 343.307 774.544 344.159 774.484 345.03C774.291 347.828 771.838 349.837 769.034 349.837H721.508ZM721.23 335.942H756.654C755.635 331.218 753.505 327.698 750.264 325.382C747.115 323.066 743.503 321.908 739.428 321.908C734.612 321.908 730.63 323.159 727.481 325.66C724.333 328.068 722.249 331.496 721.23 335.942Z" fill="#090446"></path> <path d="M832.649 316.697C832.649 311.748 836.661 307.735 841.61 307.735V307.735C846.558 307.735 850.57 311.748 850.57 316.697V368.248C850.57 373.198 846.558 377.21 841.61 377.21V377.21C836.661 377.21 832.649 373.198 832.649 368.248V350.81H805.005V368.248C805.005 373.198 800.993 377.21 796.045 377.21V377.21C791.096 377.21 787.084 373.198 787.084 368.248V316.697C787.084 311.748 791.096 307.735 796.045 307.735V307.735C800.993 307.735 805.005 311.748 805.005 316.697V333.997H832.649V316.697Z" fill="#090446"></path> <path d="M913.11 307.735C917.866 307.735 921.722 311.592 921.722 316.35V316.35C921.722 321.108 917.866 324.965 913.11 324.965H900.051V368.248C900.051 373.198 896.04 377.21 891.091 377.21V377.21C886.143 377.21 882.131 373.198 882.131 368.248V324.965H868.795C864.038 324.965 860.182 321.108 860.182 316.35V316.35C860.182 311.592 864.038 307.735 868.795 307.735H913.11Z" fill="#090446"></path> <path d="M971.718 305.79C981.071 305.79 989.036 309.356 995.611 316.489C1002.28 323.529 1005.61 332.19 1005.61 342.473C1005.61 352.755 1002.28 361.462 995.611 368.595C989.036 375.635 981.071 379.155 971.718 379.155C961.993 379.155 954.492 375.774 949.213 369.012V396.038C949.213 400.987 945.201 405 940.253 405V405C935.304 405 931.293 400.987 931.293 396.038V316.697C931.293 311.748 935.304 307.735 940.253 307.735H941.017C945.543 307.735 949.213 311.406 949.213 315.933V315.933C954.492 309.171 961.993 305.79 971.718 305.79ZM954.631 356.646C958.243 360.258 962.827 362.065 968.383 362.065C973.94 362.065 978.524 360.258 982.136 356.646C985.841 352.94 987.693 348.216 987.693 342.473C987.693 336.729 985.841 332.051 982.136 328.439C978.524 324.733 973.94 322.881 968.383 322.881C962.827 322.881 958.243 324.733 954.631 328.439C951.019 332.051 949.213 336.729 949.213 342.473C949.213 348.216 951.019 352.94 954.631 356.646Z" fill="#090446"></path> <path d="M1117.79 279.945C1122.58 279.945 1126.47 283.833 1126.47 288.63V367.623C1126.47 372.918 1122.18 377.21 1116.88 377.21V377.21C1111.59 377.21 1107.3 372.918 1107.3 367.623V298.287H1072.98V367.623C1072.98 372.918 1068.69 377.21 1063.4 377.21V377.21C1058.11 377.21 1053.81 372.918 1053.81 367.623V288.63C1053.81 283.833 1057.7 279.945 1062.5 279.945H1117.79Z" fill="#090446"></path> <path d="M1209.97 363.03C1214.34 368.88 1210.16 377.21 1202.86 377.21V377.21C1200.1 377.21 1197.49 375.918 1195.81 373.717L1163.74 331.635V367.623C1163.74 372.918 1159.45 377.21 1154.16 377.21V377.21C1148.86 377.21 1144.57 372.918 1144.57 367.623V289.533C1144.57 284.238 1148.86 279.945 1154.16 279.945V279.945C1159.45 279.945 1163.74 284.238 1163.74 289.533V322.881L1194.44 283.35C1196.11 281.202 1198.67 279.945 1201.39 279.945V279.945C1208.68 279.945 1212.81 288.292 1208.4 294.09L1183.19 327.188L1209.97 363.03Z" fill="#090446"></path> <path d="M1267.88 379.155C1253.25 379.155 1241.17 374.292 1231.63 364.566C1222.09 354.839 1217.32 342.843 1217.32 328.578C1217.32 314.22 1222.09 302.224 1231.63 292.59C1241.17 282.863 1253.25 278 1267.88 278C1276.68 278 1284.79 280.084 1292.19 284.253C1296.75 286.73 1300.7 289.754 1304.02 293.326C1307.59 297.156 1306.01 303.068 1301.48 305.694V305.694C1296.92 308.34 1291.15 306.505 1287.07 303.165C1285.79 302.121 1284.4 301.19 1282.89 300.371C1278.44 297.87 1273.44 296.619 1267.88 296.619C1258.44 296.619 1250.8 299.584 1244.96 305.512C1239.22 311.441 1236.35 319.129 1236.35 328.578C1236.35 337.934 1239.22 345.576 1244.96 351.504C1250.8 357.433 1258.44 360.397 1267.88 360.397C1273.44 360.397 1278.44 359.193 1282.89 356.784C1284.39 355.955 1285.78 355.028 1287.04 354.005C1291.14 350.676 1296.94 348.829 1301.51 351.479V351.479C1306.02 354.095 1307.6 359.981 1304.07 363.822C1300.76 367.428 1296.85 370.502 1292.33 373.042C1284.92 377.117 1276.77 379.155 1267.88 379.155Z" fill="#090446"></path> <path fill-rule="evenodd" clip-rule="evenodd" d="M950 154C956.627 154 962 159.473 962 166.225V203.775C962 210.527 956.627 216 950 216C943.373 216 938 210.527 938 203.775V166.225C938 159.473 943.373 154 950 154Z" fill="#E4253F"></path> <path fill-rule="evenodd" clip-rule="evenodd" d="M970.952 72.081C964.174 68.1569 955.826 68.1569 949.048 72.081L886.121 108.511C879.34 112.437 875.153 119.699 875.153 127.57L875.153 200.43C875.153 208.301 879.34 215.563 886.121 219.489L949.048 255.919C955.826 259.843 964.174 259.843 970.952 255.919L1033.88 219.489C1040.66 215.563 1044.85 208.301 1044.85 200.43V127.57C1044.85 119.699 1040.66 112.437 1033.88 108.511L970.952 72.081ZM943.955 63.3105C953.883 57.5632 966.117 57.5632 976.045 63.3105L1038.97 99.7406C1048.9 105.487 1055 116.098 1055 127.57V200.43C1055 211.902 1048.9 222.513 1038.97 228.259L976.045 264.689C966.117 270.437 953.883 270.437 943.955 264.689L881.029 228.259C871.104 222.513 865 211.902 865 200.43L865 127.57C865 116.098 871.104 105.487 881.029 99.7406L943.955 63.3105Z" fill="#E4253F"></path> <circle cx="919.5" cy="204.5" r="11.5" fill="#090446"></circle> <path fill-rule="evenodd" clip-rule="evenodd" d="M981.5 100C988.404 100 994 105.55 994 112.397V203.603C994 210.45 988.404 216 981.5 216C974.596 216 969 210.45 969 203.603V112.397C969 105.55 974.596 100 981.5 100Z" fill="#E4253F"></path> <path fill-rule="evenodd" clip-rule="evenodd" d="M1919.37 31.7113C1894.08 17.0985 1862.92 17.0985 1837.63 31.7113L1602.81 167.37C1577.51 181.988 1561.89 209.032 1561.89 238.341L1561.89 509.659C1561.89 538.968 1577.51 566.012 1602.81 580.63L1837.63 716.289C1862.92 730.901 1894.08 730.901 1919.37 716.289L2154.19 580.63C2179.49 566.012 2195.11 538.968 2195.11 509.659V238.341C2195.11 209.032 2179.49 181.988 2154.19 167.37L1919.37 31.7113ZM1818.63 -0.9484C1855.67 -22.3505 1901.33 -22.3505 1938.37 -0.948398L2173.19 134.71C2210.22 156.107 2233 195.621 2233 238.341V509.659C2233 552.379 2210.22 591.893 2173.19 613.29L1938.37 748.948C1901.33 770.351 1855.67 770.351 1818.63 748.948L1583.81 613.29C1546.78 591.893 1524 552.379 1524 509.659L1524 238.341C1524 195.621 1546.78 156.107 1583.81 134.71L1818.63 -0.9484Z" fill="#E4253F"></path> <circle cx="1576.49" cy="627.441" r="46.4888" fill="#090446"></circle> <path fill-rule="evenodd" clip-rule="evenodd" d="M1699.82 423.295C1726.61 423.295 1748.33 445.421 1748.33 472.716V624.509C1748.33 651.804 1726.61 673.93 1699.82 673.93C1673.03 673.93 1651.31 651.804 1651.31 624.509V472.716C1651.31 445.421 1673.03 423.295 1699.82 423.295Z" fill="#E4253F"></path> <path fill-rule="evenodd" clip-rule="evenodd" d="M1827.12 205C1855.03 205 1877.66 227.437 1877.66 255.115V623.816C1877.66 651.493 1855.03 673.93 1827.12 673.93C1799.22 673.93 1776.59 651.493 1776.59 623.816V255.115C1776.59 227.437 1799.22 205 1827.12 205Z" fill="#E4253F"></path> <path d="M652.631 501.66C657.297 504.087 659.631 507.96 659.631 513.28C659.631 517.62 657.974 521.167 654.661 523.92C651.394 526.627 647.124 527.98 641.851 527.98C632.751 527.98 626.661 524.13 623.581 516.43L631.911 511.74C633.357 516.5 636.671 518.88 641.851 518.88C644.464 518.88 646.471 518.343 647.871 517.27C649.317 516.15 650.041 514.61 650.041 512.65C650.041 510.69 649.341 509.173 647.941 508.1C646.541 506.98 644.581 506.42 642.061 506.42H635.971V497.81H640.591C643.017 497.81 644.907 497.297 646.261 496.27C647.614 495.197 648.291 493.75 648.291 491.93C648.291 490.063 647.684 488.617 646.471 487.59C645.304 486.563 643.601 486.05 641.361 486.05C637.161 486.05 634.221 488.103 632.541 492.21L624.351 487.45C627.664 480.497 633.334 477.02 641.361 477.02C646.167 477.02 650.134 478.327 653.261 480.94C656.341 483.507 657.881 486.96 657.881 491.3C657.881 495.687 656.131 499.14 652.631 501.66ZM708.249 527H697.749L694.809 518.18H675.279L672.339 527H661.909L679.059 478H691.029L708.249 527ZM685.079 489.13L678.359 509.15H691.799L685.079 489.13ZM713.357 478H749.967V527H740.307V487.24H723.017V527H713.357V478ZM800.669 520.63C795.722 525.53 789.702 527.98 782.609 527.98C775.516 527.98 769.496 525.53 764.549 520.63C759.649 515.637 757.199 509.593 757.199 502.5C757.199 495.36 759.649 489.34 764.549 484.44C769.496 479.493 775.516 477.02 782.609 477.02C789.702 477.02 795.722 479.493 800.669 484.44C805.616 489.34 808.089 495.36 808.089 502.5C808.089 509.64 805.616 515.683 800.669 520.63ZM771.339 514.05C774.326 517.037 778.082 518.53 782.609 518.53C787.136 518.53 790.892 517.037 793.879 514.05C796.912 511.017 798.429 507.167 798.429 502.5C798.429 497.833 796.912 493.983 793.879 490.95C790.846 487.917 787.089 486.4 782.609 486.4C778.129 486.4 774.372 487.917 771.339 490.95C768.306 493.983 766.789 497.833 766.789 502.5C766.789 507.167 768.306 511.017 771.339 514.05ZM808.646 527V518.04C811.632 518.46 813.826 517.853 815.226 516.22C816.626 514.54 817.326 511.46 817.326 506.98V478H850.646V527H841.056V487.24H826.916V506.7C826.916 515.147 824.979 520.863 821.106 523.85C817.792 526.463 813.639 527.513 808.646 527ZM887.94 497.46V478H897.53V527H887.94V506.7H869.74V527H860.08V478H869.74V497.46H887.94ZM944.993 527H935.333V497.11L914.333 527H906.983V478H916.643V507.96L937.643 478H944.993V527ZM950.793 478H986.843V487.24H973.613V527H963.953V487.24H950.793V478ZM1002.25 506.77V517.76H1022.9V527H992.586V478H1022.55V487.24H1002.25V497.67H1020.8V506.77H1002.25ZM1076.74 522.38V528.05H1067.29V522.38C1060.43 521.68 1055 519.603 1050.98 516.15C1046.97 512.65 1044.96 508.1 1044.96 502.5C1044.96 496.9 1046.97 492.373 1050.98 488.92C1054.95 485.42 1060.39 483.32 1067.29 482.62V476.95H1076.74V482.62C1083.51 483.227 1088.95 485.303 1093.05 488.85C1097.11 492.35 1099.14 496.9 1099.14 502.5C1099.14 508.1 1097.11 512.65 1093.05 516.15C1088.95 519.697 1083.51 521.773 1076.74 522.38ZM1076.74 491.37V513.56C1085.24 512.58 1089.48 508.893 1089.48 502.5C1089.48 496.06 1085.24 492.35 1076.74 491.37ZM1054.55 502.5C1054.55 508.893 1058.8 512.557 1067.29 513.49V491.44C1058.8 492.373 1054.55 496.06 1054.55 502.5ZM1146.84 520.63C1141.89 525.53 1135.87 527.98 1128.78 527.98C1121.68 527.98 1115.66 525.53 1110.72 520.63C1105.82 515.637 1103.37 509.593 1103.37 502.5C1103.37 495.36 1105.82 489.34 1110.72 484.44C1115.66 479.493 1121.68 477.02 1128.78 477.02C1135.87 477.02 1141.89 479.493 1146.84 484.44C1151.78 489.34 1154.26 495.36 1154.26 502.5C1154.26 509.64 1151.78 515.683 1146.84 520.63ZM1117.51 514.05C1120.49 517.037 1124.25 518.53 1128.78 518.53C1133.3 518.53 1137.06 517.037 1140.05 514.05C1143.08 511.017 1144.6 507.167 1144.6 502.5C1144.6 497.833 1143.08 493.983 1140.05 490.95C1137.01 487.917 1133.26 486.4 1128.78 486.4C1124.3 486.4 1120.54 487.917 1117.51 490.95C1114.47 493.983 1112.96 497.833 1112.96 502.5C1112.96 507.167 1114.47 511.017 1117.51 514.05ZM1161.4 478H1179.67C1184.33 478 1188.3 479.587 1191.57 482.76C1194.79 485.933 1196.4 489.83 1196.4 494.45C1196.4 499.07 1194.79 502.967 1191.57 506.14C1188.3 509.313 1184.33 510.9 1179.67 510.9H1171.06V527H1161.4V478ZM1171.06 501.87H1179.67C1181.72 501.87 1183.42 501.17 1184.78 499.77C1186.13 498.323 1186.81 496.55 1186.81 494.45C1186.81 492.303 1186.13 490.53 1184.78 489.13C1183.42 487.73 1181.72 487.03 1179.67 487.03H1171.06V501.87ZM1241.05 478H1250.99V527H1241.4V495.22L1227.61 517.97H1226.49L1212.7 495.29V527H1203.04V478H1212.98L1227.05 501.17L1241.05 478ZM1277.9 501.66L1287.56 478H1297.22L1282.52 513.49C1278.6 523.01 1272.16 527.513 1263.2 527V517.97C1265.76 518.203 1267.84 517.853 1269.43 516.92C1271.06 515.987 1272.44 514.423 1273.56 512.23L1257.53 478H1267.19L1277.9 501.66Z" fill="#090446"></path> <path d="M748.603 600V576.51L732.403 600H729.028V568.5H733.213V592.035L749.413 568.5H752.788V600H748.603ZM793.321 577.5V600H789.496V583.665L782.341 595.185H781.846L774.691 583.665V600H770.821V577.5H775.006L782.071 588.885L789.136 577.5H793.321ZM809.017 585.6C811.267 585.6 813.127 586.275 814.597 587.625C816.097 588.945 816.847 590.67 816.847 592.8C816.847 594.93 816.097 596.67 814.597 598.02C813.127 599.34 811.267 600 809.017 600H799.522V577.5H803.437V585.6H809.017ZM819.772 577.5H823.687V600H819.772V577.5ZM809.017 596.355C810.127 596.355 811.057 596.04 811.807 595.41C812.587 594.75 812.977 593.88 812.977 592.8C812.977 591.72 812.587 590.85 811.807 590.19C811.057 589.53 810.127 589.2 809.017 589.2H803.437V596.355H809.017ZM851.944 600.585C848.554 600.585 845.734 599.46 843.484 597.21C841.234 594.93 840.109 592.11 840.109 588.75C840.109 585.39 841.234 582.585 843.484 580.335C845.734 578.055 848.554 576.915 851.944 576.915C854.164 576.915 856.159 577.455 857.929 578.535C859.699 579.585 861.019 581.01 861.889 582.81L858.604 584.7C858.034 583.5 857.149 582.54 855.949 581.82C854.779 581.1 853.444 580.74 851.944 580.74C849.694 580.74 847.804 581.505 846.274 583.035C844.774 584.565 844.024 586.47 844.024 588.75C844.024 591 844.774 592.89 846.274 594.42C847.804 595.95 849.694 596.715 851.944 596.715C853.444 596.715 854.794 596.37 855.994 595.68C857.194 594.96 858.109 594 858.739 592.8L862.069 594.735C861.109 596.505 859.729 597.93 857.929 599.01C856.129 600.06 854.134 600.585 851.944 600.585ZM881.188 588.435C883.498 589.395 884.653 591.135 884.653 593.655C884.653 595.515 884.023 597.045 882.763 598.245C881.533 599.415 879.763 600 877.453 600H866.203V577.5H876.553C878.803 577.5 880.543 578.07 881.773 579.21C883.003 580.32 883.618 581.79 883.618 583.62C883.618 585.78 882.808 587.385 881.188 588.435ZM876.373 581.01H870.028V586.905H876.373C878.653 586.905 879.793 585.9 879.793 583.89C879.793 581.97 878.653 581.01 876.373 581.01ZM877.228 596.445C878.368 596.445 879.238 596.175 879.838 595.635C880.468 595.095 880.783 594.33 880.783 593.34C880.783 592.41 880.468 591.69 879.838 591.18C879.238 590.64 878.368 590.37 877.228 590.37H870.028V596.445H877.228ZM905.055 577.5V600H901.185V591.9H897.9L891.6 600H886.83L893.4 591.675C891.72 591.255 890.355 590.415 889.305 589.155C888.255 587.895 887.73 586.425 887.73 584.745C887.73 582.675 888.465 580.95 889.935 579.57C891.405 578.19 893.25 577.5 895.47 577.5H905.055ZM895.605 588.39H901.185V581.145H895.605C894.495 581.145 893.55 581.475 892.77 582.135C891.99 582.795 891.6 583.68 891.6 584.79C891.6 585.87 891.99 586.74 892.77 587.4C893.55 588.06 894.495 588.39 895.605 588.39ZM938.889 600H934.299L925.884 589.335V600H922.014V589.335L913.599 600H909.054L918.459 588.39L909.504 577.5H914.049L922.014 587.445V577.5H925.884V587.445L933.849 577.5H938.439L929.439 588.39L938.889 600ZM943.803 590.55C944.193 592.56 945.108 594.12 946.548 595.23C948.018 596.34 949.818 596.895 951.948 596.895C954.918 596.895 957.078 595.8 958.428 593.61L961.758 595.5C959.568 598.89 956.268 600.585 951.858 600.585C948.288 600.585 945.378 599.475 943.128 597.255C940.908 595.005 939.798 592.17 939.798 588.75C939.798 585.36 940.893 582.54 943.083 580.29C945.273 578.04 948.108 576.915 951.588 576.915C954.888 576.915 957.573 578.085 959.643 580.425C961.743 582.735 962.793 585.525 962.793 588.795C962.793 589.365 962.748 589.95 962.658 590.55H943.803ZM951.588 580.605C949.488 580.605 947.748 581.205 946.368 582.405C944.988 583.575 944.133 585.15 943.803 587.13H958.833C958.503 585 957.663 583.38 956.313 582.27C954.963 581.16 953.388 580.605 951.588 580.605ZM990.018 577.5V600H986.193V583.665L979.038 595.185H978.543L971.388 583.665V600H967.518V577.5H971.703L978.768 588.885L985.833 577.5H990.018ZM1006.79 600.585C1003.4 600.585 1000.58 599.46 998.335 597.21C996.085 594.93 994.96 592.11 994.96 588.75C994.96 585.39 996.085 582.585 998.335 580.335C1000.58 578.055 1003.4 576.915 1006.79 576.915C1009.01 576.915 1011.01 577.455 1012.78 578.535C1014.55 579.585 1015.87 581.01 1016.74 582.81L1013.45 584.7C1012.88 583.5 1012 582.54 1010.8 581.82C1009.63 581.1 1008.29 580.74 1006.79 580.74C1004.54 580.74 1002.65 581.505 1001.12 583.035C999.625 584.565 998.875 586.47 998.875 588.75C998.875 591 999.625 592.89 1001.12 594.42C1002.65 595.95 1004.54 596.715 1006.79 596.715C1008.29 596.715 1009.64 596.37 1010.84 595.68C1012.04 594.96 1012.96 594 1013.59 592.8L1016.92 594.735C1015.96 596.505 1014.58 597.93 1012.78 599.01C1010.98 600.06 1008.98 600.585 1006.79 600.585ZM1037.4 577.5V600H1033.53V591.9H1030.25L1023.95 600H1019.18L1025.75 591.675C1024.07 591.255 1022.7 590.415 1021.65 589.155C1020.6 587.895 1020.08 586.425 1020.08 584.745C1020.08 582.675 1020.81 580.95 1022.28 579.57C1023.75 578.19 1025.6 577.5 1027.82 577.5H1037.4ZM1027.95 588.39H1033.53V581.145H1027.95C1026.84 581.145 1025.9 581.475 1025.12 582.135C1024.34 582.795 1023.95 583.68 1023.95 584.79C1023.95 585.87 1024.34 586.74 1025.12 587.4C1025.9 588.06 1026.84 588.39 1027.95 588.39ZM1065.61 600.585C1062.22 600.585 1059.4 599.46 1057.15 597.21C1054.9 594.93 1053.77 592.11 1053.77 588.75C1053.77 585.39 1054.9 582.585 1057.15 580.335C1059.4 578.055 1062.22 576.915 1065.61 576.915C1067.83 576.915 1069.82 577.455 1071.59 578.535C1073.36 579.585 1074.68 581.01 1075.55 582.81L1072.27 584.7C1071.7 583.5 1070.81 582.54 1069.61 581.82C1068.44 581.1 1067.11 580.74 1065.61 580.74C1063.36 580.74 1061.47 581.505 1059.94 583.035C1058.44 584.565 1057.69 586.47 1057.69 588.75C1057.69 591 1058.44 592.89 1059.94 594.42C1061.47 595.95 1063.36 596.715 1065.61 596.715C1067.11 596.715 1068.46 596.37 1069.66 595.68C1070.86 594.96 1071.77 594 1072.4 592.8L1075.73 594.735C1074.77 596.505 1073.39 597.93 1071.59 599.01C1069.79 600.06 1067.8 600.585 1065.61 600.585ZM1106.33 588.435C1108.64 589.395 1109.79 591.135 1109.79 593.655C1109.79 595.515 1109.16 597.045 1107.9 598.245C1106.67 599.415 1104.9 600 1102.59 600H1091.34V577.5H1101.69C1103.94 577.5 1105.68 578.07 1106.91 579.21C1108.14 580.32 1108.76 581.79 1108.76 583.62C1108.76 585.78 1107.95 587.385 1106.33 588.435ZM1101.51 581.01H1095.17V586.905H1101.51C1103.79 586.905 1104.93 585.9 1104.93 583.89C1104.93 581.97 1103.79 581.01 1101.51 581.01ZM1102.37 596.445C1103.51 596.445 1104.38 596.175 1104.98 595.635C1105.61 595.095 1105.92 594.33 1105.92 593.34C1105.92 592.41 1105.61 591.69 1104.98 591.18C1104.38 590.64 1103.51 590.37 1102.37 590.37H1095.17V596.445H1102.37ZM1132.87 577.5H1136.79V600H1132.87V596.13C1130.92 599.1 1128.09 600.585 1124.37 600.585C1121.22 600.585 1118.53 599.445 1116.31 597.165C1114.09 594.855 1112.98 592.05 1112.98 588.75C1112.98 585.45 1114.09 582.66 1116.31 580.38C1118.53 578.07 1121.22 576.915 1124.37 576.915C1128.09 576.915 1130.92 578.4 1132.87 581.37V577.5ZM1124.86 596.805C1127.14 596.805 1129.05 596.04 1130.58 594.51C1132.11 592.95 1132.87 591.03 1132.87 588.75C1132.87 586.47 1132.11 584.565 1130.58 583.035C1129.05 581.475 1127.14 580.695 1124.86 580.695C1122.61 580.695 1120.72 581.475 1119.19 583.035C1117.66 584.565 1116.9 586.47 1116.9 588.75C1116.9 591.03 1117.66 592.95 1119.19 594.51C1120.72 596.04 1122.61 596.805 1124.86 596.805ZM1165.45 577.5V600H1161.62V583.665L1154.47 595.185H1153.97L1146.82 583.665V600H1142.95V577.5H1147.13L1154.2 588.885L1161.26 577.5H1165.45ZM1187.98 577.5H1191.13V600H1187.26V584.205L1174.8 600H1171.65V577.5H1175.52V593.295L1187.98 577.5ZM765.415 630.435C767.725 631.395 768.88 633.135 768.88 635.655C768.88 637.515 768.25 639.045 766.99 640.245C765.76 641.415 763.99 642 761.68 642H750.43V619.5H760.78C763.03 619.5 764.77 620.07 766 621.21C767.23 622.32 767.845 623.79 767.845 625.62C767.845 627.78 767.035 629.385 765.415 630.435ZM760.6 623.01H754.255V628.905H760.6C762.88 628.905 764.02 627.9 764.02 625.89C764.02 623.97 762.88 623.01 760.6 623.01ZM761.455 638.445C762.595 638.445 763.465 638.175 764.065 637.635C764.695 637.095 765.01 636.33 765.01 635.34C765.01 634.41 764.695 633.69 764.065 633.18C763.465 632.64 762.595 632.37 761.455 632.37H754.255V638.445H761.455ZM795.021 642.585C791.691 642.585 788.946 641.49 786.786 639.3C784.626 637.11 783.546 634.29 783.546 630.84C783.546 627 784.101 624.045 785.211 621.975C786.351 619.905 788.661 618.03 792.141 616.35C792.771 616.05 793.626 615.66 794.706 615.18C795.816 614.7 796.626 614.34 797.136 614.1C797.646 613.83 798.216 613.485 798.846 613.065C799.476 612.615 799.941 612.135 800.241 611.625C800.571 611.085 800.811 610.47 800.961 609.78L804.111 611.58C804.021 612.06 803.901 612.51 803.751 612.93C803.601 613.32 803.376 613.71 803.076 614.1C802.806 614.46 802.566 614.775 802.356 615.045C802.146 615.315 801.786 615.615 801.276 615.945C800.796 616.245 800.436 616.47 800.196 616.62C799.986 616.77 799.551 616.995 798.891 617.295C798.261 617.595 797.826 617.805 797.586 617.925C797.376 618.015 796.881 618.225 796.101 618.555C795.321 618.855 794.841 619.05 794.661 619.14C792.621 620.01 791.121 620.895 790.161 621.795C789.231 622.695 788.556 623.835 788.136 625.215C789.096 624.015 790.296 623.13 791.736 622.56C793.176 621.99 794.616 621.705 796.056 621.705C798.876 621.705 801.261 622.665 803.211 624.585C805.191 626.505 806.181 628.98 806.181 632.01C806.181 635.07 805.131 637.605 803.031 639.615C800.931 641.595 798.261 642.585 795.021 642.585ZM789.756 636.825C791.166 638.145 792.921 638.805 795.021 638.805C797.121 638.805 798.846 638.16 800.196 636.87C801.576 635.58 802.266 633.96 802.266 632.01C802.266 630 801.606 628.365 800.286 627.105C798.996 625.815 797.286 625.17 795.156 625.17C793.236 625.17 791.496 625.785 789.936 627.015C788.406 628.215 787.641 629.805 787.641 631.785C787.641 633.825 788.346 635.505 789.756 636.825ZM828.537 619.5V642H824.622V623.28H815.757V632.46C815.757 636.15 815.007 638.73 813.507 640.2C812.037 641.64 809.952 642.24 807.252 642V638.31C808.782 638.52 809.922 638.19 810.672 637.32C811.452 636.42 811.842 634.77 811.842 632.37V619.5H828.537ZM851.03 619.5H854.18V642H850.31V626.205L837.845 642H834.695V619.5H838.565V635.295L851.03 619.5ZM888.039 642H883.449L875.034 631.335V642H871.164V631.335L862.749 642H858.204L867.609 630.39L858.654 619.5H863.199L871.164 629.445V619.5H875.034V629.445L882.999 619.5H887.589L878.589 630.39L888.039 642ZM908.838 619.5H912.753V642H908.838V638.13C906.888 641.1 904.053 642.585 900.333 642.585C897.183 642.585 894.498 641.445 892.278 639.165C890.058 636.855 888.948 634.05 888.948 630.75C888.948 627.45 890.058 624.66 892.278 622.38C894.498 620.07 897.183 618.915 900.333 618.915C904.053 618.915 906.888 620.4 908.838 623.37V619.5ZM900.828 638.805C903.108 638.805 905.013 638.04 906.543 636.51C908.073 634.95 908.838 633.03 908.838 630.75C908.838 628.47 908.073 626.565 906.543 625.035C905.013 623.475 903.108 622.695 900.828 622.695C898.578 622.695 896.688 623.475 895.158 625.035C893.628 626.565 892.863 628.47 892.863 630.75C892.863 633.03 893.628 634.95 895.158 636.51C896.688 638.04 898.578 638.805 900.828 638.805ZM922.6 616.125V612.705H934.75V616.125H922.6ZM935.245 619.5H938.395V642H934.525V626.205L922.06 642H918.91V619.5H922.78V635.295L935.245 619.5ZM971.489 619.5H975.404V642H944.579V619.5H948.494V638.265H958.034V619.5H961.949V638.265H971.489V619.5ZM984.375 632.55C984.765 634.56 985.68 636.12 987.12 637.23C988.59 638.34 990.39 638.895 992.52 638.895C995.49 638.895 997.65 637.8 999 635.61L1002.33 637.5C1000.14 640.89 996.84 642.585 992.43 642.585C988.86 642.585 985.95 641.475 983.7 639.255C981.48 637.005 980.37 634.17 980.37 630.75C980.37 627.36 981.465 624.54 983.655 622.29C985.845 620.04 988.68 618.915 992.16 618.915C995.46 618.915 998.145 620.085 1000.22 622.425C1002.32 624.735 1003.37 627.525 1003.37 630.795C1003.37 631.365 1003.32 631.95 1003.23 632.55H984.375ZM992.16 622.605C990.06 622.605 988.32 623.205 986.94 624.405C985.56 625.575 984.705 627.15 984.375 629.13H999.405C999.075 627 998.235 625.38 996.885 624.27C995.535 623.16 993.96 622.605 992.16 622.605ZM1010.79 632.55C1011.18 634.56 1012.1 636.12 1013.54 637.23C1015.01 638.34 1016.81 638.895 1018.94 638.895C1021.91 638.895 1024.07 637.8 1025.42 635.61L1028.75 637.5C1026.56 640.89 1023.26 642.585 1018.85 642.585C1015.28 642.585 1012.37 641.475 1010.12 639.255C1007.9 637.005 1006.79 634.17 1006.79 630.75C1006.79 627.36 1007.88 624.54 1010.07 622.29C1012.26 620.04 1015.1 618.915 1018.58 618.915C1021.88 618.915 1024.56 620.085 1026.63 622.425C1028.73 624.735 1029.78 627.525 1029.78 630.795C1029.78 631.365 1029.74 631.95 1029.65 632.55H1010.79ZM1018.58 622.605C1016.48 622.605 1014.74 623.205 1013.36 624.405C1011.98 625.575 1011.12 627.15 1010.79 629.13H1025.82C1025.49 627 1024.65 625.38 1023.3 624.27C1021.95 623.16 1020.38 622.605 1018.58 622.605ZM1060.97 630.435C1063.28 631.395 1064.43 633.135 1064.43 635.655C1064.43 637.515 1063.8 639.045 1062.54 640.245C1061.31 641.415 1059.54 642 1057.23 642H1045.98V619.5H1056.33C1058.58 619.5 1060.32 620.07 1061.55 621.21C1062.78 622.32 1063.4 623.79 1063.4 625.62C1063.4 627.78 1062.59 629.385 1060.97 630.435ZM1056.15 623.01H1049.81V628.905H1056.15C1058.43 628.905 1059.57 627.9 1059.57 625.89C1059.57 623.97 1058.43 623.01 1056.15 623.01ZM1057.01 638.445C1058.15 638.445 1059.02 638.175 1059.62 637.635C1060.25 637.095 1060.56 636.33 1060.56 635.34C1060.56 634.41 1060.25 633.69 1059.62 633.18C1059.02 632.64 1058.15 632.37 1057.01 632.37H1049.81V638.445H1057.01ZM1081.3 618.915C1084.45 618.915 1087.14 620.07 1089.36 622.38C1091.58 624.66 1092.69 627.45 1092.69 630.75C1092.69 634.05 1091.58 636.855 1089.36 639.165C1087.14 641.445 1084.45 642.585 1081.3 642.585C1077.58 642.585 1074.75 641.1 1072.8 638.13V651H1068.88V619.5H1072.8V623.37C1074.75 620.4 1077.58 618.915 1081.3 618.915ZM1080.81 638.805C1083.06 638.805 1084.95 638.04 1086.48 636.51C1088.01 634.95 1088.77 633.03 1088.77 630.75C1088.77 628.47 1088.01 626.565 1086.48 625.035C1084.95 623.475 1083.06 622.695 1080.81 622.695C1078.53 622.695 1076.62 623.475 1075.09 625.035C1073.56 626.565 1072.8 628.47 1072.8 630.75C1072.8 633.03 1073.56 634.95 1075.09 636.51C1076.62 638.04 1078.53 638.805 1080.81 638.805ZM1100.33 632.55C1100.72 634.56 1101.63 636.12 1103.07 637.23C1104.54 638.34 1106.34 638.895 1108.47 638.895C1111.44 638.895 1113.6 637.8 1114.95 635.61L1118.28 637.5C1116.09 640.89 1112.79 642.585 1108.38 642.585C1104.81 642.585 1101.9 641.475 1099.65 639.255C1097.43 637.005 1096.32 634.17 1096.32 630.75C1096.32 627.36 1097.42 624.54 1099.61 622.29C1101.8 620.04 1104.63 618.915 1108.11 618.915C1111.41 618.915 1114.1 620.085 1116.17 622.425C1118.27 624.735 1119.32 627.525 1119.32 630.795C1119.32 631.365 1119.27 631.95 1119.18 632.55H1100.33ZM1108.11 622.605C1106.01 622.605 1104.27 623.205 1102.89 624.405C1101.51 625.575 1100.66 627.15 1100.33 629.13H1115.36C1115.03 627 1114.19 625.38 1112.84 624.27C1111.49 623.16 1109.91 622.605 1108.11 622.605ZM1146.54 619.5V642H1142.72V625.665L1135.56 637.185H1135.07L1127.91 625.665V642H1124.04V619.5H1128.23L1135.29 630.885L1142.36 619.5H1146.54ZM1169.58 619.5V642H1165.71V633.9H1162.42L1156.12 642H1151.35L1157.92 633.675C1156.24 633.255 1154.88 632.415 1153.83 631.155C1152.78 629.895 1152.25 628.425 1152.25 626.745C1152.25 624.675 1152.99 622.95 1154.46 621.57C1155.93 620.19 1157.77 619.5 1159.99 619.5H1169.58ZM1160.13 630.39H1165.71V623.145H1160.13C1159.02 623.145 1158.07 623.475 1157.29 624.135C1156.51 624.795 1156.12 625.68 1156.12 626.79C1156.12 627.87 1156.51 628.74 1157.29 629.4C1158.07 630.06 1159.02 630.39 1160.13 630.39Z" fill="#0A0F34"></path> <path fill-rule="evenodd" clip-rule="evenodd" d="M1450.73 345.182C1446.32 341.909 1442.82 337.46 1441.93 331.777C1439.34 315.402 1462.59 313.776 1468.83 320.903C1475.07 328.029 1479.3 348.778 1474 351.532C1471.89 352.63 1466.77 352.315 1461.21 350.5L1469.27 371.446L1451.19 375.613L1450.73 345.182Z" fill="#B28B67"></path> <path fill-rule="evenodd" clip-rule="evenodd" d="M1451.04 441.269C1456.67 459.486 1556.71 493.877 1557.58 495.29C1557.96 495.918 1553.84 519.515 1545.23 566.081L1553.56 567.289C1571.41 515.961 1579.06 488.075 1576.51 483.632C1572.86 477.271 1545.05 459.988 1493.09 431.784L1451.04 441.269Z" fill="#B28B67"></path> <path fill-rule="evenodd" clip-rule="evenodd" d="M1545.03 556.057L1558.56 557.724C1578.04 521.957 1582.71 495.074 1577.95 483.022C1574.77 474.988 1547.05 457.725 1494.78 431.232L1450.16 441.521C1461.57 484.083 1549.98 497.213 1551.48 498.792C1552.99 500.371 1546.45 520.741 1545.03 556.057Z" fill="#0A0734"></path> <path fill-rule="evenodd" clip-rule="evenodd" d="M1542.08 565.27C1540.94 567.454 1540.3 569.115 1540.16 570.253C1539.99 571.635 1539.97 573.682 1540.1 576.392C1541.71 576.589 1556.13 578.364 1583.36 581.716C1584.94 578.139 1584.54 576.053 1582.15 575.458C1579.77 574.864 1577.79 574.349 1576.22 573.913L1557.21 562.475C1556.85 562.255 1556.37 562.373 1556.15 562.738C1556.15 562.745 1556.15 562.751 1556.14 562.757L1554.46 565.733C1552.09 566.503 1550.21 566.802 1548.81 566.63C1547.67 566.489 1546.15 565.836 1544.26 564.669L1544.26 564.669C1543.53 564.221 1542.58 564.447 1542.13 565.174C1542.11 565.205 1542.09 565.237 1542.08 565.27Z" fill="#E4E4E4"></path> <path fill-rule="evenodd" clip-rule="evenodd" d="M1461.1 438.95L1443.7 541.471L1423.64 629.378L1432.67 627.295L1491.72 431.89L1461.1 438.95Z" fill="#997659"></path> <path fill-rule="evenodd" clip-rule="evenodd" d="M1422.26 625.852C1421.93 628.295 1421.9 630.075 1422.16 631.191C1422.47 632.549 1423.15 634.478 1424.21 636.979C1425.78 636.616 1439.94 633.352 1466.67 627.188C1466.94 623.285 1465.84 621.462 1463.4 621.72C1460.96 621.977 1458.92 622.17 1457.29 622.298L1435.53 618.049C1435.11 617.967 1434.7 618.24 1434.62 618.659C1434.62 618.666 1434.62 618.673 1434.61 618.681L1434.06 622.051C1432.09 623.585 1430.42 624.511 1429.04 624.829C1427.93 625.086 1426.28 624.991 1424.1 624.542L1424.1 624.542C1423.26 624.37 1422.45 624.908 1422.27 625.744C1422.27 625.78 1422.26 625.816 1422.26 625.852Z" fill="#E4E4E4"></path> <path fill-rule="evenodd" clip-rule="evenodd" d="M1423.31 612.154L1444.25 611.29C1454.51 584.891 1497.9 476.341 1494.98 431.139L1450.29 441.443C1433.76 478.416 1432.76 585.544 1423.31 612.154Z" fill="#090446"></path> <path fill-rule="evenodd" clip-rule="evenodd" d="M1506.13 347.273L1532.69 332.125C1537.06 326.753 1541.38 322.565 1545.66 319.561C1546.97 318.986 1549.28 318.612 1547.18 322.488C1545.09 326.364 1543.06 330.536 1544.18 331.7C1545.3 332.863 1548.02 331.164 1549.37 333.107C1550.27 334.402 1545.61 336.552 1535.39 339.557L1516.21 357.732L1506.13 347.273ZM1515.2 398.173L1543.29 410.272C1550.21 410.528 1556.16 411.46 1561.13 413.069C1562.38 413.772 1564.07 415.389 1559.71 416.047C1555.35 416.705 1550.8 417.593 1550.54 419.19C1550.29 420.786 1553.28 421.935 1552.54 424.181C1552.05 425.678 1547.53 423.252 1538.98 416.901L1512.92 412.521L1515.2 398.173Z" fill="#B28B67"></path> <path fill-rule="evenodd" clip-rule="evenodd" d="M1466.95 359.276C1485.65 380.648 1508.87 394.983 1540.77 408.096L1533.09 422.196C1499.85 417.877 1482.11 414.737 1468.87 393.525C1465.54 388.201 1459.9 370.087 1456.47 360.663L1466.95 359.276Z" fill="#C5243A"></path> <path fill-rule="evenodd" clip-rule="evenodd" d="M1449.12 448.96L1507.09 435.593C1484.73 398.568 1471.68 372.624 1467.95 357.763C1467.76 357.005 1466.05 355.988 1465.47 356.307C1461.22 358.64 1456.24 359.281 1450.54 358.232C1441.89 383.507 1443.41 411.819 1449.12 448.96Z" fill="#F2F2F2"></path> <path fill-rule="evenodd" clip-rule="evenodd" d="M1455.49 357.127C1472.15 353.431 1499.81 350.25 1528.6 333.097L1535.21 347.73C1515.19 368.264 1494.09 385.46 1472.86 388.605C1490.87 425.359 1497.78 457.252 1477.79 461.861C1468.24 464.062 1457.94 466.438 1446.88 468.988C1434.36 437.124 1436.72 388.399 1443.36 362.565C1443.61 361.578 1444.2 359.693 1446.49 359.165C1448.49 358.705 1451.48 358.014 1455.47 357.094C1455.48 357.105 1455.49 357.116 1455.49 357.127Z" fill="#E4253F"></path> <path d="M1817.24 167.327C1813.99 168.197 1810.62 168.586 1807.26 168.582L1778.15 167.743L1783.08 186.152C1783.98 189.521 1786.92 191.828 1790.43 191.92L1803.16 192.25C1817.18 192.619 1830.9 188.943 1842.86 181.611L1853.72 174.962C1856.71 173.129 1858.1 169.661 1857.2 166.292L1852.2 147.642L1826.51 163.424C1823.64 165.225 1820.49 166.456 1817.24 167.327Z" fill="#090446"></path> <path d="M1863.99 122.818L1812.69 121.475C1807.61 121.288 1802.56 122.642 1798.13 125.376L1754.5 152.156C1751.51 153.989 1752.77 158.682 1756.27 158.774L1807.57 160.117C1812.65 160.303 1817.7 158.949 1822.13 156.216L1859.58 133.286L1862.44 143.995C1861.73 144.702 1861.36 145.705 1861.61 146.668L1862.39 149.556C1862.68 150.639 1863.54 151.44 1864.6 151.543L1863.65 158.116C1863.51 159.055 1864.22 159.768 1865.22 159.63L1867.93 159.162C1868.41 159.033 1869.01 158.872 1869.49 158.743L1872.07 157.793C1872.88 157.447 1873.14 156.476 1872.67 155.698L1868.57 150.479C1869.4 149.74 1869.78 148.736 1869.49 147.653L1868.71 144.766C1868.45 143.803 1867.63 143.122 1866.66 142.866L1863.46 130.955L1865.89 129.403C1868.72 127.482 1867.5 122.91 1863.99 122.818Z" fill="#E4253F"></path> </g> <defs> <clipPath id="clip0"> <rect width="1920" height="747" fill="white"></rect> </clipPath> </defs> </svg> 