<?xml version="1.0" encoding="UTF-8"?> <svg xmlns="http://www.w3.org/2000/svg" width="108" height="231" viewBox="0 0 108 231" fill="none"> <path d="M21.4127 5.05895C21.9975 3.21655 20.978 1.24888 19.1356 0.66404C17.2932 0.0791991 15.3256 1.09865 14.7407 2.94105L21.4127 5.05895ZM106.124 206.814C107.468 205.425 107.431 203.209 106.042 201.865L83.4016 179.964C82.0123 178.62 79.7965 178.657 78.4525 180.046C77.1086 181.435 77.1453 183.651 78.5346 184.995L98.6594 204.463L79.1916 224.588C77.8476 225.977 77.8844 228.193 79.2737 229.537C80.663 230.881 82.8788 230.844 84.2227 229.455L106.124 206.814ZM14.7407 2.94105C3.91907 37.0321 -4.86289 88.2998 4.39344 131.036C9.03454 152.464 18.2686 172.003 34.319 186.054C50.4159 200.145 72.9958 208.389 103.667 207.88L103.55 200.881C74.2494 201.368 53.4687 193.514 38.9297 180.787C24.3442 168.019 15.667 150.018 11.2348 129.554C2.34466 88.5086 10.7685 38.5908 21.4127 5.05895L14.7407 2.94105Z" fill="url(#paint0_linear)"></path> <defs> <linearGradient id="paint0_linear" x1="168.13" y1="253.015" x2="3.9193" y2="28.3346" gradientUnits="userSpaceOnUse"> <stop stop-color="white"></stop> <stop offset="1" stop-color="white" stop-opacity="0"></stop> </linearGradient> </defs> </svg> 