<?xml version="1.0" encoding="UTF-8"?> <svg xmlns="http://www.w3.org/2000/svg" width="567" height="193" viewBox="0 0 567 193" fill="none"> <g filter="url(#filter0_d)"> <rect x="50" y="35" width="467" height="93" rx="46.5" fill="url(#paint0_linear)"></rect> </g> <path d="M153.607 72.2H166.159V89H162.847V75.368H156.919V89H153.607V72.2ZM183.542 86.816C181.846 88.496 179.782 89.336 177.35 89.336C174.918 89.336 172.854 88.496 171.158 86.816C169.478 85.104 168.638 83.032 168.638 80.6C168.638 78.152 169.478 76.088 171.158 74.408C172.854 72.712 174.918 71.864 177.35 71.864C179.782 71.864 181.846 72.712 183.542 74.408C185.238 76.088 186.086 78.152 186.086 80.6C186.086 83.048 185.238 85.12 183.542 86.816ZM173.486 84.56C174.51 85.584 175.798 86.096 177.35 86.096C178.902 86.096 180.19 85.584 181.214 84.56C182.254 83.52 182.774 82.2 182.774 80.6C182.774 79 182.254 77.68 181.214 76.64C180.174 75.6 178.886 75.08 177.35 75.08C175.814 75.08 174.526 75.6 173.486 76.64C172.446 77.68 171.926 79 171.926 80.6C171.926 82.2 172.446 83.52 173.486 84.56ZM186.277 89V85.928C187.301 86.072 188.053 85.864 188.533 85.304C189.013 84.728 189.253 83.672 189.253 82.136V72.2H200.677V89H197.389V75.368H192.541V82.04C192.541 84.936 191.877 86.896 190.549 87.92C189.413 88.816 187.989 89.176 186.277 89ZM209.888 80.312L213.2 72.2H216.512L211.472 84.368C210.128 87.632 207.92 89.176 204.848 89V85.904C205.728 85.984 206.44 85.864 206.984 85.544C207.544 85.224 208.016 84.688 208.4 83.936L202.904 72.2H206.216L209.888 80.312ZM227.183 79.64V72.2H230.495V89H227.183V82.856C226.159 83.288 225.063 83.504 223.895 83.504C222.215 83.504 220.815 83.032 219.695 82.088C218.607 81.128 218.063 79.832 218.063 78.2V72.2H221.375V77.768C221.375 78.568 221.607 79.2 222.071 79.664C222.551 80.112 223.183 80.336 223.967 80.336C225.103 80.336 226.175 80.104 227.183 79.64ZM246.762 89H243.45V78.752L236.25 89H233.73V72.2H237.042V82.472L244.242 72.2H246.762V89ZM248.75 72.2H261.11V75.368H256.574V89H253.262V75.368H248.75V72.2ZM266.391 77.72H269.343C270.943 77.72 272.303 78.264 273.423 79.352C274.527 80.44 275.079 81.776 275.079 83.36C275.079 84.944 274.527 86.28 273.423 87.368C272.303 88.456 270.943 89 269.343 89H263.079V72.2H266.391V77.72ZM266.391 85.904H269.343C270.047 85.904 270.631 85.664 271.095 85.184C271.559 84.704 271.791 84.096 271.791 83.36C271.791 82.64 271.559 82.04 271.095 81.56C270.631 81.064 270.047 80.816 269.343 80.816H266.391V85.904ZM282.18 89V85.928C283.204 86.072 283.956 85.864 284.436 85.304C284.916 84.728 285.156 83.672 285.156 82.136V72.2H296.58V89H293.292V75.368H288.444V82.04C288.444 84.936 287.78 86.896 286.452 87.92C285.316 88.816 283.892 89.176 282.18 89ZM312.846 89H309.534V78.752L302.334 89H299.814V72.2H303.126V82.472L310.326 72.2H312.846V89ZM324.799 80.312C326.399 81.144 327.199 82.472 327.199 84.296C327.199 85.784 326.631 87 325.495 87.944C324.375 88.872 322.911 89.336 321.103 89.336C317.983 89.336 315.895 88.016 314.839 85.376L317.695 83.768C318.191 85.4 319.327 86.216 321.103 86.216C321.999 86.216 322.687 86.032 323.167 85.664C323.663 85.28 323.911 84.752 323.911 84.08C323.911 83.408 323.671 82.888 323.191 82.52C322.711 82.136 322.039 81.944 321.175 81.944H319.087V78.992H320.671C321.503 78.992 322.151 78.816 322.615 78.464C323.079 78.096 323.311 77.6 323.311 76.976C323.311 76.336 323.103 75.84 322.687 75.488C322.287 75.136 321.703 74.96 320.935 74.96C319.495 74.96 318.487 75.664 317.911 77.072L315.103 75.44C316.239 73.056 318.183 71.864 320.935 71.864C322.583 71.864 323.943 72.312 325.015 73.208C326.071 74.088 326.599 75.272 326.599 76.76C326.599 78.264 325.999 79.448 324.799 80.312ZM332.78 82.064V85.832H339.86V89H329.468V72.2H339.74V75.368H332.78V78.944H339.14V82.064H332.78ZM351.867 78.872V72.2H355.155V89H351.867V82.04H345.627V89H342.315V72.2H345.627V78.872H351.867ZM370.948 72.2V85.832H372.748V92.216H369.436V89H358.396V72.2H361.708V85.832H367.636V72.2H370.948ZM388.118 89H384.806V78.752L377.606 89H375.086V72.2H378.398V82.472L385.598 72.2H388.118V89ZM405.611 71.864C408.043 71.864 410.107 72.712 411.803 74.408C413.499 76.088 414.347 78.152 414.347 80.6C414.347 83.032 413.499 85.096 411.803 86.792C410.107 88.488 408.043 89.336 405.611 89.336C403.451 89.336 401.563 88.64 399.947 87.248C398.363 85.856 397.411 84.088 397.091 81.944H394.667V89H391.355V72.2H394.667V78.776H397.163C397.563 76.76 398.547 75.104 400.115 73.808C401.683 72.512 403.515 71.864 405.611 71.864ZM405.611 75.08C404.043 75.08 402.747 75.592 401.723 76.616C400.699 77.64 400.187 78.968 400.187 80.6C400.187 82.2 400.707 83.52 401.747 84.56C402.771 85.584 404.059 86.096 405.611 86.096C407.163 86.096 408.451 85.584 409.475 84.56C410.515 83.52 411.035 82.2 411.035 80.6C411.035 79 410.515 77.68 409.475 76.64C408.435 75.6 407.147 75.08 405.611 75.08Z" fill="white"></path> <defs> <filter id="filter0_d" x="0" y="0" width="567" height="193" filterUnits="userSpaceOnUse" color-interpolation-filters="sRGB"> <feFlood flood-opacity="0" result="BackgroundImageFix"></feFlood> <feColorMatrix in="SourceAlpha" type="matrix" values="0 0 0 0 0 0 0 0 0 0 0 0 0 0 0 0 0 0 127 0" result="hardAlpha"></feColorMatrix> <feOffset dy="15"></feOffset> <feGaussianBlur stdDeviation="25"></feGaussianBlur> <feColorMatrix type="matrix" values="0 0 0 0 0.894118 0 0 0 0 0.145098 0 0 0 0 0.247059 0 0 0 0.5 0"></feColorMatrix> <feBlend mode="normal" in2="BackgroundImageFix" result="effect1_dropShadow"></feBlend> <feBlend mode="normal" in="SourceGraphic" in2="effect1_dropShadow" result="shape"></feBlend> </filter> <linearGradient id="paint0_linear" x1="0.381237" y1="-35.5" x2="512.169" y2="299.935" gradientUnits="userSpaceOnUse"> <stop stop-color="#E4253F"></stop> <stop offset="1" stop-color="#E35D5B"></stop> </linearGradient> </defs> </svg> 