<?xml version="1.0" encoding="UTF-8"?> <svg xmlns="http://www.w3.org/2000/svg" width="567" height="193" viewBox="0 0 567 193" fill="none"> <g filter="url(#filter0_d)"> <rect x="50" y="35" width="467" height="93" rx="46.5" fill="url(#paint0_linear)"></rect> </g> <path d="M154.075 72.2H166.627V89H163.315V75.368H157.387V89H154.075V72.2ZM184.011 86.816C182.315 88.496 180.251 89.336 177.819 89.336C175.387 89.336 173.323 88.496 171.627 86.816C169.947 85.104 169.107 83.032 169.107 80.6C169.107 78.152 169.947 76.088 171.627 74.408C173.323 72.712 175.387 71.864 177.819 71.864C180.251 71.864 182.315 72.712 184.011 74.408C185.707 76.088 186.555 78.152 186.555 80.6C186.555 83.048 185.707 85.12 184.011 86.816ZM173.955 84.56C174.979 85.584 176.267 86.096 177.819 86.096C179.371 86.096 180.659 85.584 181.683 84.56C182.723 83.52 183.243 82.2 183.243 80.6C183.243 79 182.723 77.68 181.683 76.64C180.643 75.6 179.355 75.08 177.819 75.08C176.283 75.08 174.995 75.6 173.955 76.64C172.915 77.68 172.395 79 172.395 80.6C172.395 82.2 172.915 83.52 173.955 84.56ZM196.971 89.336C194.459 89.336 192.371 88.496 190.707 86.816C189.059 85.152 188.235 83.08 188.235 80.6C188.235 78.104 189.059 76.032 190.707 74.384C192.371 72.704 194.459 71.864 196.971 71.864C198.491 71.864 199.891 72.224 201.171 72.944C202.467 73.648 203.475 74.608 204.195 75.824L201.339 77.48C200.923 76.728 200.331 76.144 199.563 75.728C198.795 75.296 197.931 75.08 196.971 75.08C195.339 75.08 194.019 75.592 193.011 76.616C192.019 77.656 191.523 78.984 191.523 80.6C191.523 82.2 192.019 83.52 193.011 84.56C194.019 85.584 195.339 86.096 196.971 86.096C197.931 86.096 198.795 85.888 199.563 85.472C200.347 85.04 200.939 84.456 201.339 83.72L204.195 85.376C203.475 86.592 202.467 87.56 201.171 88.28C199.891 88.984 198.491 89.336 196.971 89.336ZM219.381 72.2H222.789V89H219.501V78.104L214.773 85.904H214.389L209.661 78.128V89H206.349V72.2H209.757L214.581 80.144L219.381 72.2ZM240.176 86.816C238.48 88.496 236.416 89.336 233.984 89.336C231.552 89.336 229.488 88.496 227.792 86.816C226.112 85.104 225.272 83.032 225.272 80.6C225.272 78.152 226.112 76.088 227.792 74.408C229.488 72.712 231.552 71.864 233.984 71.864C236.416 71.864 238.48 72.712 240.176 74.408C241.872 76.088 242.72 78.152 242.72 80.6C242.72 83.048 241.872 85.12 240.176 86.816ZM230.12 84.56C231.144 85.584 232.432 86.096 233.984 86.096C235.536 86.096 236.824 85.584 237.848 84.56C238.888 83.52 239.408 82.2 239.408 80.6C239.408 79 238.888 77.68 237.848 76.64C236.808 75.6 235.52 75.08 233.984 75.08C232.448 75.08 231.16 75.6 230.12 76.64C229.08 77.68 228.56 79 228.56 80.6C228.56 82.2 229.08 83.52 230.12 84.56ZM242.959 72.2H255.319V75.368H250.783V89H247.471V75.368H242.959V72.2ZM257.288 72.2H263.552C265.152 72.2 266.512 72.744 267.632 73.832C268.736 74.92 269.288 76.256 269.288 77.84C269.288 79.424 268.736 80.76 267.632 81.848C266.512 82.936 265.152 83.48 263.552 83.48H260.6V89H257.288V72.2ZM260.6 80.384H263.552C264.256 80.384 264.84 80.144 265.304 79.664C265.768 79.168 266 78.56 266 77.84C266 77.104 265.768 76.496 265.304 76.016C264.84 75.536 264.256 75.296 263.552 75.296H260.6V80.384ZM274.876 82.064V85.832H281.956V89H271.564V72.2H281.836V75.368H274.876V78.944H281.236V82.064H274.876ZM283.162 72.2H295.522V75.368H290.986V89H287.674V75.368H283.162V72.2ZM300.803 77.72H303.755C305.355 77.72 306.715 78.264 307.835 79.352C308.939 80.44 309.491 81.776 309.491 83.36C309.491 84.944 308.939 86.28 307.835 87.368C306.715 88.456 305.355 89 303.755 89H297.491V72.2H300.803V77.72ZM300.803 85.904H303.755C304.459 85.904 305.043 85.664 305.507 85.184C305.971 84.704 306.203 84.096 306.203 83.36C306.203 82.64 305.971 82.04 305.507 81.56C305.043 81.064 304.459 80.816 303.755 80.816H300.803V85.904ZM321.2 78.56H324.32C325.968 78.56 327.304 79.048 328.328 80.024C329.368 80.984 329.888 82.232 329.888 83.768C329.888 85.304 329.368 86.568 328.328 87.56C327.304 88.52 325.968 89 324.32 89H317.888V72.2H328.448V75.368H321.2V78.56ZM321.2 85.904H324.32C324.992 85.904 325.536 85.712 325.952 85.328C326.384 84.944 326.6 84.424 326.6 83.768C326.6 83.112 326.384 82.6 325.952 82.232C325.536 81.848 324.992 81.656 324.32 81.656H321.2V85.904ZM346.065 86.816C344.369 88.496 342.305 89.336 339.873 89.336C337.441 89.336 335.377 88.496 333.681 86.816C332.001 85.104 331.161 83.032 331.161 80.6C331.161 78.152 332.001 76.088 333.681 74.408C335.377 72.712 337.441 71.864 339.873 71.864C342.305 71.864 344.369 72.712 346.065 74.408C347.761 76.088 348.609 78.152 348.609 80.6C348.609 83.048 347.761 85.12 346.065 86.816ZM336.009 84.56C337.033 85.584 338.321 86.096 339.873 86.096C341.425 86.096 342.713 85.584 343.737 84.56C344.777 83.52 345.297 82.2 345.297 80.6C345.297 79 344.777 77.68 343.737 76.64C342.697 75.6 341.409 75.08 339.873 75.08C338.337 75.08 337.049 75.6 336.009 76.64C334.969 77.68 334.449 79 334.449 80.6C334.449 82.2 334.969 83.52 336.009 84.56ZM348.8 89V85.928C349.824 86.072 350.576 85.864 351.056 85.304C351.536 84.728 351.776 83.672 351.776 82.136V72.2H363.2V89H359.912V75.368H355.064V82.04C355.064 84.936 354.4 86.896 353.072 87.92C351.936 88.816 350.512 89.176 348.8 89ZM369.747 77.72H372.699C374.299 77.72 375.659 78.264 376.779 79.352C377.883 80.44 378.435 81.776 378.435 83.36C378.435 84.944 377.883 86.28 376.779 87.368C375.659 88.456 374.299 89 372.699 89H366.435V72.2H369.747V77.72ZM369.747 85.904H372.699C373.403 85.904 373.987 85.664 374.451 85.184C374.915 84.704 375.147 84.096 375.147 83.36C375.147 82.64 374.915 82.04 374.451 81.56C373.987 81.064 373.403 80.816 372.699 80.816H369.747V85.904ZM396.911 85.832V72.2H400.223V89H380.711V72.2H384.023V85.832H388.823V72.2H392.111V85.832H396.911ZM406.784 82.064V85.832H413.864V89H403.472V72.2H413.744V75.368H406.784V78.944H413.144V82.064H406.784Z" fill="white"></path> <defs> <filter id="filter0_d" x="0" y="0" width="567" height="193" filterUnits="userSpaceOnUse" color-interpolation-filters="sRGB"> <feFlood flood-opacity="0" result="BackgroundImageFix"></feFlood> <feColorMatrix in="SourceAlpha" type="matrix" values="0 0 0 0 0 0 0 0 0 0 0 0 0 0 0 0 0 0 127 0" result="hardAlpha"></feColorMatrix> <feOffset dy="15"></feOffset> <feGaussianBlur stdDeviation="25"></feGaussianBlur> <feColorMatrix type="matrix" values="0 0 0 0 0.894118 0 0 0 0 0.145098 0 0 0 0 0.247059 0 0 0 0.5 0"></feColorMatrix> <feBlend mode="normal" in2="BackgroundImageFix" result="effect1_dropShadow"></feBlend> <feBlend mode="normal" in="SourceGraphic" in2="effect1_dropShadow" result="shape"></feBlend> </filter> <linearGradient id="paint0_linear" x1="0.381237" y1="-35.5" x2="512.169" y2="299.935" gradientUnits="userSpaceOnUse"> <stop stop-color="#E4253F"></stop> <stop offset="1" stop-color="#E35D5B"></stop> </linearGradient> </defs> </svg> 