<svg width="834" height="924" viewBox="0 0 834 924" fill="none" xmlns="http://www.w3.org/2000/svg">
<g clip-path="url(#clip0_4_18)">
<rect width="834" height="924" fill="white"/>
<path fill-rule="evenodd" clip-rule="evenodd" d="M321.154 303.863C377.006 345.357 388.629 424.273 347.119 480.124L-205.867 1224.14C-247.379 1279.99 -326.306 1291.63 -382.156 1250.14C-438.006 1208.65 -449.63 1129.73 -408.118 1073.88L144.867 329.859C186.378 274.007 265.302 262.368 321.154 303.863Z" fill="#E4253F" fill-opacity="0.07"/>
<path fill-rule="evenodd" clip-rule="evenodd" d="M778.154 235.863C834.006 277.357 845.629 356.273 804.119 412.124L251.133 1156.14C209.621 1211.99 130.694 1223.63 74.8443 1182.14C18.9942 1140.65 7.37026 1061.73 48.8818 1005.88L601.867 261.859C643.378 206.007 722.302 194.368 778.154 235.863Z" fill="#E4253F" fill-opacity="0.07"/>
</g>
<defs>
<clipPath id="clip0_4_18">
<rect width="834" height="924" fill="white"/>
</clipPath>
</defs>
</svg>
