<svg width="834" height="924" viewBox="0 0 834 924" fill="none" xmlns="http://www.w3.org/2000/svg">
<rect width="834" height="924" fill="transparent"/>
<path fill-rule="evenodd" clip-rule="evenodd" d="M480.311 139.455C454.126 124.319 421.874 124.319 395.689 139.455L152.594 279.971C126.399 295.113 110.221 323.124 110.221 353.484V634.514C110.221 664.874 126.399 692.886 152.594 708.027L395.689 848.54C421.874 863.678 454.126 863.678 480.311 848.54L723.406 708.027C749.601 692.886 765.779 664.874 765.779 634.514V353.484C765.779 323.124 749.601 295.113 723.406 279.971L480.311 139.455ZM376.017 105.626C414.369 83.4579 461.632 83.4579 499.984 105.626L743.078 246.142C781.421 268.305 805 309.234 805 353.484V634.514C805 678.764 781.421 719.693 743.078 741.856L499.983 882.375C461.631 904.542 414.369 904.542 376.017 882.375L132.922 741.856C94.5791 719.693 71 678.764 71 634.514L71 353.484C71 309.234 94.5791 268.305 132.922 246.142L376.017 105.626Z" stroke="#E4253F" stroke-width="4"/>
<path d="M162.659 679C192.295 679 216.319 654.987 216.319 625.366C216.319 595.745 192.295 571.733 162.659 571.733C133.024 571.733 109 595.745 109 625.366C109 654.987 133.024 679 162.659 679Z" fill="#090446"/>
<path fill-rule="evenodd" clip-rule="evenodd" d="M305.013 389.845C335.936 389.845 361.005 415.372 361.005 446.861V621.984C361.005 653.473 335.936 679 305.013 679C274.089 679 249.021 653.473 249.021 621.984V446.861C249.021 415.372 274.089 389.845 305.013 389.845Z" fill="#E4253F"/>
<path fill-rule="evenodd" clip-rule="evenodd" d="M447.675 138C479.887 138 506 163.885 506 195.817V621.183C506 653.115 479.887 679 447.675 679C415.463 679 389.349 653.115 389.349 621.183V195.817C389.349 163.885 415.463 138 447.675 138Z" fill="#E4253F"/>
<path d="M442.739 83.1545C438.153 84.3833 433.385 84.9327 428.651 84.927L387.557 83.7416L394.52 109.728C395.794 114.483 399.943 117.74 404.893 117.87L422.858 118.336C442.657 118.856 462.019 113.668 478.905 103.318L494.23 93.9323C498.452 91.3448 500.417 86.4495 499.142 81.6939L492.089 55.3683L455.825 77.6456C451.773 80.1875 447.324 81.9258 442.739 83.1545Z" fill="#090446"/>
<path d="M508.73 20.3273L436.318 18.4319C429.148 18.1686 422.014 20.08 415.767 23.9385L354.173 61.7406C349.952 64.328 351.727 70.9519 356.676 71.0819L429.089 72.9773C436.259 73.2406 443.392 71.3292 449.64 67.4707L502.495 35.1045L506.546 50.2204C505.539 51.2183 505.008 52.6348 505.372 53.9935L506.464 58.0697C506.874 59.5983 508.087 60.7295 509.582 60.875L508.246 70.1529C508.055 71.4783 509.053 72.4852 510.457 72.291L514.284 71.6294C514.964 71.4474 515.813 71.2199 516.492 71.0378L520.138 69.6969C521.281 69.2085 521.642 67.8376 520.984 66.7397L515.187 59.3732C516.364 58.3297 516.895 56.9133 516.485 55.3847L515.393 51.3085C515.029 49.9497 513.861 48.9884 512.49 48.6276L507.985 31.8132L511.403 29.6231C515.409 26.9113 513.68 20.4573 508.73 20.3273Z" fill="#E4253F"/>
<path fill-rule="evenodd" clip-rule="evenodd" d="M46.2948 335.254C41.7167 331.871 38.0837 327.27 37.1522 321.394C34.4685 304.463 58.6099 302.782 65.0875 310.15C71.566 317.519 75.9662 338.973 70.4583 341.82C68.2617 342.956 62.947 342.63 57.1803 340.753L65.5422 362.411L46.7767 366.718L46.2948 335.254Z" fill="#B28B67"/>
<path fill-rule="evenodd" clip-rule="evenodd" d="M46.6175 434.605C52.4643 453.44 156.349 488.998 157.245 490.46C157.644 491.109 153.369 515.507 144.42 563.654L153.071 564.904C171.607 511.833 179.552 483 176.905 478.406C173.115 471.829 144.24 453.959 90.277 424.797L46.6175 434.605Z" fill="#B28B67"/>
<path fill-rule="evenodd" clip-rule="evenodd" d="M144.221 553.291L158.271 555.014C178.494 518.032 183.342 490.236 178.399 477.775C175.104 469.468 146.318 451.619 92.0412 424.227L45.6997 434.865C57.5541 478.872 149.355 492.449 150.918 494.081C152.482 495.713 145.689 516.775 144.221 553.291Z" fill="#0A0734"/>
<path fill-rule="evenodd" clip-rule="evenodd" d="M141.15 562.816C139.966 565.075 139.301 566.793 139.157 567.969C138.98 569.398 138.961 571.514 139.1 574.316C140.766 574.52 155.739 576.356 184.018 579.821C185.66 576.123 185.243 573.965 182.766 573.35C180.289 572.736 178.234 572.203 176.601 571.752L156.869 559.927C156.49 559.699 155.996 559.821 155.768 560.199C155.764 560.206 155.76 560.212 155.757 560.218L154.014 563.296C151.552 564.092 149.593 564.4 148.137 564.222C146.955 564.077 145.381 563.402 143.415 562.195C142.66 561.732 141.672 561.966 141.207 562.717C141.186 562.75 141.168 562.783 141.15 562.816Z" fill="#E4E4E4"/>
<path fill-rule="evenodd" clip-rule="evenodd" d="M57.0603 432.207L38.9947 538.21L18.1608 629.102L27.5429 626.948L88.8628 424.907L57.0603 432.207Z" fill="#997659"/>
<path fill-rule="evenodd" clip-rule="evenodd" d="M16.3465 625.336C15.4488 627.723 15 629.508 15 630.693C15 632.134 15.241 634.236 15.7231 637C17.4017 637 32.4872 637 60.9802 637C62.1561 633.128 61.4775 631.039 58.9436 630.73C56.4098 630.421 54.3042 630.142 52.6286 629.894L31.5932 620.557C31.1888 620.377 30.7145 620.558 30.534 620.961C30.5306 620.968 30.5281 620.975 30.5247 620.981L29.1726 624.248C26.8273 625.337 24.9212 625.882 23.4546 625.882C22.2631 625.882 20.6175 625.403 18.5181 624.445C17.7124 624.077 16.7598 624.429 16.3905 625.231C16.3745 625.266 16.3599 625.301 16.3465 625.336Z" fill="#E4E4E4"/>
<path fill-rule="evenodd" clip-rule="evenodd" d="M17.8192 611.292L39.5677 610.399C50.2225 583.103 95.2783 470.868 92.2455 424.13L45.8359 434.784C28.6755 473.013 27.6298 583.779 17.8192 611.292Z" fill="#090446"/>
<path fill-rule="evenodd" clip-rule="evenodd" d="M103.817 337.416L131.403 321.755C135.939 316.2 140.429 311.87 144.871 308.764C146.235 308.169 148.63 307.783 146.453 311.79C144.275 315.798 142.166 320.111 143.33 321.314C144.496 322.518 147.32 320.761 148.72 322.769C149.653 324.108 144.815 326.331 134.206 329.438L114.29 348.231L103.817 337.416ZM113.245 390.045L142.408 402.555C149.593 402.82 155.769 403.784 160.934 405.447C162.231 406.174 163.983 407.846 159.458 408.526C154.933 409.206 150.204 410.124 149.94 411.775C149.676 413.426 152.785 414.614 152.017 416.936C151.504 418.484 146.81 415.975 137.933 409.409L110.874 404.881L113.245 390.045Z" fill="#B28B67"/>
<path fill-rule="evenodd" clip-rule="evenodd" d="M63.1344 349.827C82.5554 371.926 106.671 386.747 139.797 400.305L131.818 414.884C97.3039 410.418 78.8815 407.172 65.1259 385.239C61.6733 379.734 55.8146 361.005 52.2523 351.261L63.1344 349.827Z" fill="#C5243A"/>
<path fill-rule="evenodd" clip-rule="evenodd" d="M44.6184 442.557L104.824 428.736C81.5967 390.453 68.0488 363.628 64.1799 348.263C63.9824 347.479 62.202 346.428 61.5984 346.757C57.1837 349.169 52.0164 349.833 46.0956 348.748C37.1147 374.881 38.695 404.154 44.6184 442.557Z" fill="#F2F2F2"/>
<path fill-rule="evenodd" clip-rule="evenodd" d="M51.2416 347.605C68.5316 343.784 97.2579 340.495 127.158 322.76L134.019 337.889C113.232 359.121 91.3234 376.9 69.2715 380.152C87.9739 418.155 95.1523 451.131 74.3928 455.896C64.4788 458.173 53.7789 460.628 42.2914 463.266C29.2935 430.319 31.7397 379.94 38.6379 353.228C38.9019 352.208 39.514 350.259 41.8929 349.712C43.9653 349.237 47.0747 348.523 51.2203 347.571C51.2271 347.583 51.2348 347.594 51.2416 347.605Z" fill="#E4253F"/>
</svg>
