<?xml version="1.0" encoding="UTF-8"?> <svg xmlns="http://www.w3.org/2000/svg" width="632" height="234" viewBox="0 0 632 234" fill="none"> <g filter="url(#filter0_d)"> <rect x="50" y="35" width="532" height="133.688" rx="66.8438" fill="url(#paint0_linear)"></rect> </g> <path d="M116.56 87.6H134V110H129.168V92.112H121.424V110H116.56V87.6ZM146.937 110.48C145.166 110.48 143.566 110.085 142.136 109.296C140.707 108.507 139.587 107.419 138.776 106.032C137.987 104.624 137.592 103.067 137.592 101.36C137.592 98.736 138.478 96.56 140.249 94.832C142.019 93.104 144.249 92.24 146.937 92.24C149.603 92.24 151.822 93.104 153.593 94.832C155.363 96.56 156.249 98.736 156.249 101.36C156.249 103.963 155.353 106.139 153.561 107.888C151.79 109.616 149.582 110.48 146.937 110.48ZM146.937 106.096C148.281 106.096 149.379 105.659 150.233 104.784C151.086 103.888 151.513 102.747 151.513 101.36C151.513 99.9733 151.086 98.8427 150.233 97.968C149.379 97.072 148.27 96.624 146.905 96.624C145.561 96.624 144.462 97.072 143.609 97.968C142.755 98.8427 142.329 99.9733 142.329 101.36C142.329 102.043 142.435 102.683 142.648 103.28C142.883 103.877 143.203 104.379 143.609 104.784C144.014 105.189 144.494 105.509 145.049 105.744C145.625 105.979 146.254 106.096 146.937 106.096ZM162.57 92.72H174.922V110H170.346V96.784H166.378L165.802 102.928C165.546 105.531 164.853 107.376 163.722 108.464C162.592 109.552 160.896 110.096 158.634 110.096H157.866V105.872H159.018C159.658 105.872 160.192 105.648 160.618 105.2C161.045 104.752 161.301 104.112 161.386 103.28L162.57 92.72ZM191.5 92.72H196.492L188.94 109.776C187.873 112.165 186.785 113.84 185.676 114.8C184.566 115.76 183.062 116.24 181.164 116.24H179.244V112.016H180.876C181.985 112.016 182.774 111.813 183.244 111.408C183.713 111.003 184.225 110.139 184.78 108.816L184.844 108.688L177.516 92.72H182.604L187.212 103.344L191.5 92.72ZM208.254 92.72H212.798V110H208.254V104.4C207.272 104.72 206.227 104.88 205.118 104.88C202.899 104.88 201.128 104.229 199.806 102.928C198.504 101.605 197.854 99.824 197.854 97.584V92.72H202.43V97.648C202.43 99.76 203.443 100.816 205.47 100.816C206.536 100.816 207.464 100.592 208.254 100.144V92.72ZM230.022 92.72H232.646V110H228.134V100.848L220.102 110H217.446V92.72H221.958V101.776L230.022 92.72ZM251.47 92.72V96.912H245.838V110H241.262V96.912H235.63V92.72H251.47ZM261.878 97.456C263.883 97.456 265.494 98.032 266.71 99.184C267.926 100.336 268.534 101.851 268.534 103.728C268.534 105.605 267.926 107.12 266.71 108.272C265.494 109.424 263.883 110 261.878 110H254.454V92.72H259.03V97.456H261.878ZM261.398 106.128C262.187 106.128 262.806 105.915 263.254 105.488C263.702 105.061 263.926 104.485 263.926 103.76C263.926 103.013 263.702 102.427 263.254 102C262.806 101.552 262.187 101.328 261.398 101.328H259.03V106.128H261.398ZM294.677 110H289.045L283.477 101.744V110H278.805V92.72H283.477V100.4L288.725 92.72H294.037L288.181 100.976L294.677 110ZM304.377 110.48C302.606 110.48 301.006 110.085 299.577 109.296C298.147 108.507 297.027 107.419 296.217 106.032C295.427 104.624 295.033 103.067 295.033 101.36C295.033 98.736 295.918 96.56 297.689 94.832C299.459 93.104 301.689 92.24 304.377 92.24C307.043 92.24 309.262 93.104 311.033 94.832C312.803 96.56 313.689 98.736 313.689 101.36C313.689 103.963 312.793 106.139 311.001 107.888C309.23 109.616 307.022 110.48 304.377 110.48ZM304.377 106.096C305.721 106.096 306.819 105.659 307.673 104.784C308.526 103.888 308.953 102.747 308.953 101.36C308.953 99.9733 308.526 98.8427 307.673 97.968C306.819 97.072 305.71 96.624 304.345 96.624C303.001 96.624 301.902 97.072 301.049 97.968C300.195 98.8427 299.769 99.9733 299.769 101.36C299.769 102.043 299.875 102.683 300.089 103.28C300.323 103.877 300.643 104.379 301.049 104.784C301.454 105.189 301.934 105.509 302.489 105.744C303.065 105.979 303.694 106.096 304.377 106.096ZM328.163 92.72H332.835V110H328.163V103.376H321.891V110H317.219V92.72H321.891V99.12H328.163V92.72ZM345.504 110.48C343.798 110.48 342.24 110.085 340.832 109.296C339.446 108.485 338.347 107.376 337.536 105.968C336.747 104.56 336.352 103.003 336.352 101.296C336.352 98.7147 337.227 96.56 338.976 94.832C340.726 93.104 342.912 92.24 345.536 92.24C347.776 92.24 349.696 92.8907 351.296 94.192C352.896 95.472 353.91 97.1787 354.336 99.312H349.696C349.312 98.48 348.747 97.8293 348 97.36C347.275 96.8693 346.443 96.624 345.504 96.624C344.246 96.624 343.19 97.072 342.336 97.968C341.504 98.864 341.088 99.984 341.088 101.328C341.088 102.672 341.515 103.803 342.368 104.72C343.222 105.637 344.267 106.096 345.504 106.096C346.443 106.096 347.275 105.851 348 105.36C348.726 104.848 349.291 104.123 349.696 103.184H354.4C353.974 105.381 352.95 107.152 351.328 108.496C349.707 109.819 347.766 110.48 345.504 110.48ZM369.069 92.72H374.061L366.509 109.776C365.442 112.165 364.354 113.84 363.245 114.8C362.135 115.76 360.631 116.24 358.733 116.24H356.813V112.016H358.445C359.554 112.016 360.343 111.813 360.813 111.408C361.282 111.003 361.794 110.139 362.349 108.816L362.413 108.688L355.085 92.72H360.173L364.781 103.344L369.069 92.72ZM378.49 92.72H390.842V110H386.266V96.784H382.298L381.722 102.928C381.466 105.531 380.773 107.376 379.642 108.464C378.512 109.552 376.816 110.096 374.554 110.096H373.786V105.872H374.938C375.578 105.872 376.112 105.648 376.538 105.2C376.965 104.752 377.221 104.112 377.306 103.28L378.49 92.72ZM402.908 97.456C404.913 97.456 406.524 98.032 407.74 99.184C408.956 100.336 409.564 101.851 409.564 103.728C409.564 105.605 408.956 107.12 407.74 108.272C406.524 109.424 404.913 110 402.908 110H395.484V92.72H400.06V97.456H402.908ZM402.428 106.128C403.217 106.128 403.836 105.915 404.284 105.488C404.732 105.061 404.956 104.485 404.956 103.76C404.956 103.013 404.732 102.427 404.284 102C403.836 101.552 403.217 101.328 402.428 101.328H400.06V106.128H402.428ZM425.351 92.72V96.912H419.719V110H415.143V96.912H409.511V92.72H425.351ZM442.072 92.688H445.56V109.968H441.88L441.496 108.432C439.917 109.797 438.051 110.48 435.896 110.48C433.293 110.48 431.128 109.616 429.4 107.888C427.693 106.139 426.84 103.952 426.84 101.328C426.84 98.7253 427.693 96.56 429.4 94.832C431.128 93.104 433.293 92.24 435.896 92.24C438.093 92.24 439.981 92.944 441.56 94.352L442.072 92.688ZM432.888 104.72C433.784 105.616 434.904 106.064 436.248 106.064C437.613 106.064 438.744 105.616 439.64 104.72C440.536 103.824 440.984 102.693 440.984 101.328C440.984 99.9627 440.536 98.832 439.64 97.936C438.744 97.04 437.624 96.592 436.28 96.592C435.384 96.592 434.573 96.8053 433.848 97.232C433.144 97.6373 432.589 98.2027 432.184 98.928C431.779 99.632 431.576 100.432 431.576 101.328C431.576 102.693 432.013 103.824 432.888 104.72ZM465.318 105.712H467.558V113.968H463.334V110H450.214V92.72H454.79V105.712H460.742V92.72H465.318V105.712ZM483.794 92.72H486.418V110H481.906V100.848L473.874 110H471.218V92.72H475.73V101.776L483.794 92.72ZM506.457 92.24C509.102 92.24 511.289 93.104 513.017 94.832C514.745 96.56 515.609 98.736 515.609 101.36C515.609 104.027 514.745 106.213 513.017 107.92C511.31 109.627 509.124 110.48 506.457 110.48C504.217 110.48 502.308 109.851 500.729 108.592C499.172 107.312 498.18 105.627 497.753 103.536H495.673V110H491.065V92.72H495.673V99.184H497.753C498.18 97.0933 499.182 95.4187 500.761 94.16C502.34 92.88 504.238 92.24 506.457 92.24ZM503.225 104.784C504.1 105.68 505.177 106.128 506.457 106.128C507.758 106.128 508.836 105.68 509.689 104.784C510.564 103.867 511.001 102.725 511.001 101.36C511.001 99.9947 510.564 98.864 509.689 97.968C508.836 97.0507 507.758 96.592 506.457 96.592C505.177 96.592 504.1 97.0507 503.225 97.968C502.372 98.864 501.945 99.9947 501.945 101.36C501.945 102.725 502.372 103.867 503.225 104.784Z" fill="white"></path> <defs> <filter id="filter0_d" x="0" y="0" width="632" height="233.688" filterUnits="userSpaceOnUse" color-interpolation-filters="sRGB"> <feFlood flood-opacity="0" result="BackgroundImageFix"></feFlood> <feColorMatrix in="SourceAlpha" type="matrix" values="0 0 0 0 0 0 0 0 0 0 0 0 0 0 0 0 0 0 127 0"></feColorMatrix> <feOffset dy="15"></feOffset> <feGaussianBlur stdDeviation="25"></feGaussianBlur> <feColorMatrix type="matrix" values="0 0 0 0 0.894118 0 0 0 0 0.145098 0 0 0 0 0.247059 0 0 0 0.5 0"></feColorMatrix> <feBlend mode="normal" in2="BackgroundImageFix" result="effect1_dropShadow"></feBlend> <feBlend mode="normal" in="SourceGraphic" in2="effect1_dropShadow" result="shape"></feBlend> </filter> <linearGradient id="paint0_linear" x1="-6.52501" y1="-66.3437" x2="649.866" y2="274.588" gradientUnits="userSpaceOnUse"> <stop stop-color="#E4253F"></stop> <stop offset="1" stop-color="#E35D5B"></stop> </linearGradient> </defs> </svg> 