<?xml version="1.0" encoding="UTF-8"?> <svg xmlns="http://www.w3.org/2000/svg" width="1009" height="1116" viewBox="0 0 1009 1116" fill="none"> <path fill-rule="evenodd" clip-rule="evenodd" d="M562.663 69.5163C526.667 48.6624 482.333 48.6624 446.337 69.5163L112.164 263.116C76.1547 283.977 53.9161 322.572 53.916 364.4L53.916 751.6C53.916 793.428 76.1546 832.022 112.164 852.884L446.337 1046.48C482.333 1067.34 526.667 1067.34 562.663 1046.48L896.836 852.884C932.845 832.022 955.084 793.428 955.084 751.6V364.4C955.084 322.572 932.845 283.978 896.836 263.116L562.663 69.5163ZM419.294 22.9074C472.015 -7.6358 536.985 -7.6358 589.706 22.9074L923.879 216.507C976.587 247.043 1009 303.434 1009 364.4V751.6C1009 812.566 976.587 868.957 923.879 899.493L589.706 1093.09C536.985 1123.64 472.015 1123.64 419.294 1093.09L85.121 899.493C32.4132 868.957 -1.83637e-06 812.566 0 751.6L1.65273e-05 364.4C2.02001e-05 303.434 32.4133 247.043 85.1211 216.507L419.294 22.9074Z" fill="#E4253F"></path> </svg> 