<?xml version="1.0" encoding="UTF-8"?> <svg xmlns="http://www.w3.org/2000/svg" width="195" height="215" viewBox="0 0 195 215" fill="none"> <path fill-rule="evenodd" clip-rule="evenodd" d="M108.741 13.3708C101.784 9.35971 93.216 9.35971 86.2594 13.3708L21.6768 50.6077C14.7177 54.6202 10.4199 62.0434 10.4199 70.0887L10.4198 144.562C10.4198 152.608 14.7177 160.031 21.6768 164.043L86.2594 201.28C93.216 205.291 101.784 205.291 108.741 201.28L173.323 164.043C180.282 160.031 184.58 152.608 184.58 144.562V70.0887C184.58 62.0435 180.282 54.6202 173.323 50.6077L108.741 13.3708ZM81.0331 4.406C91.222 -1.46867 103.778 -1.46867 113.967 4.406L178.549 41.6429C188.736 47.5162 195 58.3624 195 70.0887V144.562C195 156.289 188.736 167.135 178.549 173.008L113.967 210.245C103.778 216.12 91.2219 216.12 81.0331 210.245L16.4505 173.008C6.2642 167.135 -3.54898e-07 156.289 0 144.562L3.19408e-06 70.0887C3.90388e-06 58.3624 6.26421 47.5162 16.4506 41.6429L81.0331 4.406Z" fill="#E4253F"></path> <path d="M57.468 80.9085L57.4725 80.9027L57.4769 80.8969C62.4359 74.3397 69.394 71.0349 78.549 71.0349C87.6305 71.0349 94.5558 74.3366 99.5172 80.8969L99.5171 80.8969L99.5229 80.9044C104.61 87.543 107.226 96.4281 107.226 107.704C107.226 118.977 104.61 127.9 99.5199 134.611C94.561 141.101 87.6354 144.372 78.549 144.372C69.4647 144.372 62.5011 141.102 57.4718 134.608C52.4552 127.971 49.8721 119.051 49.8721 107.704C49.8721 96.278 52.4588 87.3996 57.468 80.9085ZM130.864 72.6035H145.128V142.804H129.501V90.7629V88.8318L127.63 89.3096L116.351 92.1897L112.656 79.1521L130.864 72.6035ZM78.549 86.2304C74.1642 86.2304 70.7812 88.1796 68.5877 91.9727C66.4662 95.6411 65.4985 100.95 65.4985 107.704C65.4985 114.457 66.4662 119.766 68.5877 123.434C70.7812 127.227 74.1642 129.177 78.549 129.177C82.9339 129.177 86.3168 127.227 88.5104 123.434C90.6319 119.766 91.5996 114.457 91.5996 107.704C91.5996 100.95 90.6319 95.6411 88.5104 91.9727C86.3168 88.1796 82.9339 86.2304 78.549 86.2304Z" stroke="white" stroke-width="3"></path> </svg> 