<?xml version="1.0" encoding="UTF-8"?> <svg xmlns="http://www.w3.org/2000/svg" width="195" height="215" viewBox="0 0 195 215" fill="none"> <path fill-rule="evenodd" clip-rule="evenodd" d="M108.741 13.3708C101.784 9.35971 93.216 9.35971 86.2594 13.3708L21.6768 50.6077C14.7177 54.6202 10.4199 62.0434 10.4199 70.0887L10.4198 144.562C10.4198 152.608 14.7177 160.031 21.6768 164.043L86.2594 201.28C93.216 205.291 101.784 205.291 108.741 201.28L173.323 164.043C180.282 160.031 184.58 152.608 184.58 144.562V70.0887C184.58 62.0435 180.282 54.6202 173.323 50.6077L108.741 13.3708ZM81.0331 4.406C91.222 -1.46867 103.778 -1.46867 113.967 4.406L178.549 41.6429C188.736 47.5162 195 58.3624 195 70.0887V144.562C195 156.289 188.736 167.135 178.549 173.008L113.967 210.245C103.778 216.12 91.2219 216.12 81.0331 210.245L16.4505 173.008C6.2642 167.135 -3.54898e-07 156.289 0 144.562L3.19408e-06 70.0887C3.90388e-06 58.3624 6.26421 47.5162 16.4506 41.6429L81.0331 4.406Z" fill="#E4253F"></path> <path d="M44.5692 78.0123L44.5736 78.0065L44.5781 78.0007C50.0078 70.8563 57.6307 67.2559 67.6455 67.2559C77.5804 67.2559 85.1674 70.8532 90.5995 78.0007L90.5994 78.0007L90.6052 78.0082C96.1685 85.2333 99.0234 94.8947 99.0234 107.137C99.0234 119.376 96.1695 129.079 90.6027 136.382C85.173 143.454 77.5856 147.017 67.6455 147.017C57.7076 147.017 50.0792 143.455 44.5729 136.379C39.0859 129.156 36.2676 119.457 36.2676 107.137C36.2676 94.7328 39.0896 85.0781 44.5692 78.0123ZM135.355 128.704H158.684V145.317H106.131V132.676L132.023 105.334L132.028 105.328L132.034 105.322C134.91 102.218 136.953 99.7568 138.09 97.9726C139.34 96.0531 140.03 94.0743 140.03 92.0582C140.03 89.6938 139.275 87.6734 137.63 86.2029C136.069 84.6623 133.956 83.9826 131.501 83.9826C128.808 83.9826 126.401 84.7707 124.345 86.3669C122.675 87.6636 121.293 89.4499 120.166 91.6621L105.318 83.3707C107.682 78.4021 111.013 74.5546 115.304 71.7803C120.039 68.7684 125.349 67.2559 131.274 67.2559C138.507 67.2559 144.618 69.4158 149.692 73.7039L149.701 73.7112L149.71 73.7184C154.764 77.8601 157.323 83.5348 157.323 90.9245C157.323 95.0631 156.363 98.9815 154.434 102.699C152.481 106.386 149.37 110.465 145.047 114.937L145.043 114.941L134.273 126.165L131.837 128.704H135.355ZM67.6455 83.9826C62.9196 83.9826 59.2779 86.0686 56.9103 90.1424C54.6152 94.0918 53.5612 99.8225 53.5612 107.137C53.5612 114.451 54.6152 120.182 56.9103 124.131C59.2779 128.205 62.9196 130.291 67.6455 130.291C72.3713 130.291 76.0131 128.205 78.3806 124.131C80.6758 120.182 81.7298 114.451 81.7298 107.137C81.7298 99.8225 80.6758 94.0918 78.3806 90.1424C76.0131 86.0686 72.3713 83.9826 67.6455 83.9826Z" stroke="white" stroke-width="3"></path> </svg> 