<?xml version="1.0" encoding="UTF-8"?> <svg xmlns="http://www.w3.org/2000/svg" width="141" height="142" viewBox="0 0 141 142" fill="none"> <path fill-rule="evenodd" clip-rule="evenodd" d="M52.5154 16.4308C52.7721 28.8805 109.391 68.4704 109.679 69.5128C109.806 69.9761 102.976 84.0498 89.1881 111.734L94.2006 113.991C114.642 84.9788 124.463 68.8485 123.662 65.6005C122.515 60.9504 108.167 45.0969 80.6175 18.0402L52.5154 16.4308Z" fill="#B28B67"></path> <path fill-rule="evenodd" clip-rule="evenodd" d="M90.8703 105.407L99.065 108.887C117.726 89.9362 125.494 73.899 124.674 65.4766C124.127 59.8617 109.83 44.0362 81.7824 17.9999L51.914 16.4298C51.4234 45.2043 104.561 69.3536 105.223 70.6156C105.884 71.8777 98.112 83.4893 90.8703 105.407Z" fill="#CD233A"></path> <path fill-rule="evenodd" clip-rule="evenodd" d="M87.3556 110.658C86.2469 111.825 85.5463 112.752 85.2538 113.441C84.8981 114.278 84.5186 115.56 84.1152 117.285C85.0869 117.698 93.8197 121.407 110.314 128.411C111.95 126.449 112.073 125.067 110.683 124.265C109.292 123.463 108.142 122.783 107.233 122.227L97.362 111.627C97.1721 111.423 96.8528 111.412 96.6488 111.602C96.6453 111.605 96.6419 111.608 96.6385 111.612L95.0495 113.178C93.4226 113.235 92.1846 113.083 91.3357 112.723C90.6459 112.43 89.8117 111.747 88.8329 110.673L88.8329 110.673C88.4573 110.261 87.8189 110.232 87.4071 110.608C87.3893 110.624 87.3722 110.641 87.3556 110.658Z" fill="white"></path> <path fill-rule="evenodd" clip-rule="evenodd" d="M59.246 16.7847L29.878 78.0175L1.46612 129.596L7.51301 129.914L79.7433 17.8621L59.246 16.7847Z" fill="#997659"></path> <path fill-rule="evenodd" clip-rule="evenodd" d="M1.23274 127.134C0.589838 128.609 0.248748 129.721 0.209471 130.468C0.161701 131.377 0.243385 132.711 0.454523 134.47C1.50875 134.525 10.9832 135.023 28.878 135.964C29.7449 133.561 29.3879 132.22 27.8067 131.942C26.2256 131.664 24.9128 131.418 23.8685 131.206L10.9671 124.622C10.7189 124.495 10.4149 124.594 10.2883 124.842C10.2861 124.846 10.284 124.851 10.2819 124.855L9.32446 126.87C7.81513 127.48 6.59994 127.761 5.67888 127.713C4.93055 127.673 3.91297 127.317 2.62617 126.643L2.62617 126.643C2.13235 126.384 1.52243 126.575 1.26387 127.069C1.25272 127.09 1.24234 127.112 1.23274 127.134Z" fill="white"></path> <path fill-rule="evenodd" clip-rule="evenodd" d="M4.35852 118.723L17.6623 121.949C28.8541 107.222 75.624 46.8803 81.9235 17.9767L52.0113 16.4043C34.9842 36.643 15.0774 103.717 4.35852 118.723Z" fill="#E4253F"></path> </svg> 