<?xml version="1.0" encoding="UTF-8"?> <svg xmlns="http://www.w3.org/2000/svg" width="261" height="401" viewBox="0 0 261 401" fill="none"> <path d="M119.802 12.7418C120.826 11.1021 120.326 8.94303 118.686 7.9195C117.046 6.89598 114.887 7.39554 113.864 9.03532L119.802 12.7418ZM174.593 377.053C176.24 376.04 176.754 373.885 175.741 372.238L159.241 345.406C158.228 343.759 156.072 343.245 154.426 344.258C152.779 345.27 152.265 347.426 153.278 349.072L167.945 372.923L144.094 387.591C142.448 388.603 141.934 390.759 142.946 392.406C143.959 394.052 146.115 394.566 147.761 393.554L174.593 377.053ZM113.864 9.03532C82.028 60.039 46.4668 139.713 43.7353 212.819C42.3673 249.433 49.227 284.662 69.1962 313.783C89.2003 342.954 122.08 365.586 171.948 377.476L173.572 370.667C125.036 359.095 93.8023 337.287 74.9692 309.824C56.1011 282.309 49.3993 248.708 50.7305 213.081C53.3973 141.703 88.2768 63.2478 119.802 12.7418L113.864 9.03532Z" fill="url(#paint0_linear)"></path> <defs> <linearGradient id="paint0_linear" x1="257.838" y1="480.525" x2="83.5215" y2="44.7266" gradientUnits="userSpaceOnUse"> <stop stop-color="#0A0F34"></stop> <stop offset="1" stop-color="#0A0F34" stop-opacity="0"></stop> </linearGradient> </defs> </svg> 