<?xml version="1.0" encoding="UTF-8"?> <svg xmlns="http://www.w3.org/2000/svg" width="675" height="234" viewBox="0 0 675 234" fill="none"> <g filter="url(#filter0_d)"> <rect x="50" y="35" width="575" height="133.688" rx="66.8438" fill="url(#paint0_linear)"></rect> </g> <path d="M157.697 85.8H176.525V111H171.557V90.552H162.665V111H157.697V85.8ZM202.601 107.724C200.057 110.244 196.961 111.504 193.313 111.504C189.665 111.504 186.569 110.244 184.025 107.724C181.505 105.156 180.245 102.048 180.245 98.4C180.245 94.728 181.505 91.632 184.025 89.112C186.569 86.568 189.665 85.296 193.313 85.296C196.961 85.296 200.057 86.568 202.601 89.112C205.145 91.632 206.417 94.728 206.417 98.4C206.417 102.072 205.145 105.18 202.601 107.724ZM187.517 104.34C189.053 105.876 190.985 106.644 193.313 106.644C195.641 106.644 197.573 105.876 199.109 104.34C200.669 102.78 201.449 100.8 201.449 98.4C201.449 96 200.669 94.02 199.109 92.46C197.549 90.9 195.617 90.12 193.313 90.12C191.009 90.12 189.077 90.9 187.517 92.46C185.957 94.02 185.177 96 185.177 98.4C185.177 100.8 185.957 102.78 187.517 104.34ZM228.332 85.8V106.248H231.032V115.824H226.064V111H212.132V115.824H207.164V106.248H209.612C211.004 104.328 211.7 101.484 211.7 97.716V85.8H228.332ZM214.94 106.248H223.364V90.444H216.668V97.788C216.668 101.46 216.092 104.28 214.94 106.248ZM256.267 111H250.867L249.355 106.464H239.311L237.799 111H232.435L241.255 85.8H247.411L256.267 111ZM244.351 91.524L240.895 101.82H247.807L244.351 91.524ZM255.194 85.8H273.734V90.552H266.93V111H261.962V90.552H255.194V85.8ZM281.655 94.08H286.083C288.483 94.08 290.523 94.896 292.203 96.528C293.859 98.16 294.687 100.164 294.687 102.54C294.687 104.916 293.859 106.92 292.203 108.552C290.523 110.184 288.483 111 286.083 111H276.687V85.8H281.655V94.08ZM281.655 106.356H286.083C287.139 106.356 288.015 105.996 288.711 105.276C289.407 104.556 289.755 103.644 289.755 102.54C289.755 101.46 289.407 100.56 288.711 99.84C288.015 99.096 287.139 98.724 286.083 98.724H281.655V106.356ZM320.638 97.968C323.038 99.216 324.238 101.208 324.238 103.944C324.238 106.176 323.386 108 321.682 109.416C320.002 110.808 317.806 111.504 315.094 111.504C310.414 111.504 307.282 109.524 305.698 105.564L309.982 103.152C310.726 105.6 312.43 106.824 315.094 106.824C316.438 106.824 317.47 106.548 318.19 105.996C318.934 105.42 319.306 104.628 319.306 103.62C319.306 102.612 318.946 101.832 318.226 101.28C317.506 100.704 316.498 100.416 315.202 100.416H312.07V95.988H314.446C315.694 95.988 316.666 95.724 317.362 95.196C318.058 94.644 318.406 93.9 318.406 92.964C318.406 92.004 318.094 91.26 317.47 90.732C316.87 90.204 315.994 89.94 314.842 89.94C312.682 89.94 311.17 90.996 310.306 93.108L306.094 90.66C307.798 87.084 310.714 85.296 314.842 85.296C317.314 85.296 319.354 85.968 320.962 87.312C322.546 88.632 323.338 90.408 323.338 92.64C323.338 94.896 322.438 96.672 320.638 97.968ZM349.241 111H343.841L342.329 106.464H332.285L330.773 111H325.409L334.229 85.8H340.385L349.241 111ZM337.325 91.524L333.869 101.82H340.781L337.325 91.524ZM359.854 85.8H369.934V111H364.966V102.252H362.122L356.326 111H350.746L356.902 101.712C355.294 101.136 353.986 100.152 352.978 98.76C351.97 97.368 351.466 95.832 351.466 94.152C351.466 91.848 352.282 89.88 353.914 88.248C355.546 86.616 357.526 85.8 359.854 85.8ZM359.854 97.896H364.966V90.444H359.854C358.918 90.444 358.114 90.804 357.442 91.524C356.77 92.244 356.434 93.12 356.434 94.152C356.434 95.184 356.77 96.072 357.442 96.816C358.114 97.536 358.918 97.896 359.854 97.896ZM390.022 97.932C392.23 99.204 393.334 101.124 393.334 103.692C393.334 105.828 392.578 107.58 391.066 108.948C389.554 110.316 387.694 111 385.486 111H374.794V85.8H384.73C386.866 85.8 388.678 86.472 390.166 87.816C391.654 89.16 392.398 90.852 392.398 92.892C392.398 94.98 391.606 96.66 390.022 97.932ZM384.73 90.444H379.762V95.988H384.73C385.498 95.988 386.134 95.724 386.638 95.196C387.166 94.668 387.43 94.008 387.43 93.216C387.43 92.424 387.178 91.764 386.674 91.236C386.17 90.708 385.522 90.444 384.73 90.444ZM379.762 106.356H385.486C386.326 106.356 387.022 106.08 387.574 105.528C388.126 104.952 388.402 104.232 388.402 103.368C388.402 102.528 388.126 101.832 387.574 101.28C387.022 100.704 386.326 100.416 385.486 100.416H379.762V106.356ZM406.779 98.04L416.463 111H410.739L401.739 99.192V111H396.771V85.8H401.739V96.924L410.379 85.8H416.103L406.779 98.04ZM427.361 97.968L432.329 85.8H437.297L429.737 104.052C427.721 108.948 424.409 111.264 419.801 111V106.356C421.121 106.476 422.189 106.296 423.005 105.816C423.845 105.336 424.553 104.532 425.129 103.404L416.885 85.8H421.853L427.361 97.968Z" fill="white"></path> <path d="M532.917 70.57C531.442 69.2244 529.27 68.7448 527.253 69.3073L480.224 82.3878C478.095 82.9545 476.596 84.5195 476.205 86.4873C475.805 88.49 477.278 91.0057 479.184 92.0404L493.986 100.069C495.505 100.893 497.454 100.655 498.695 99.4923L515.447 83.8432C516.29 83.0287 517.696 83.0098 518.552 83.8016C519.407 84.5665 519.417 85.8248 518.574 86.6393L501.793 102.291C500.549 103.451 500.329 105.235 501.263 106.604L510.374 120.002C511.442 121.595 513.265 122.48 515.257 122.454C515.491 122.451 515.755 122.447 515.989 122.417C518.271 122.119 520.076 120.676 520.734 118.659L534.364 75.718C534.965 73.8893 534.393 71.9157 532.917 70.57Z" fill="white"></path> <defs> <filter id="filter0_d" x="0" y="0" width="675" height="233.688" filterUnits="userSpaceOnUse" color-interpolation-filters="sRGB"> <feFlood flood-opacity="0" result="BackgroundImageFix"></feFlood> <feColorMatrix in="SourceAlpha" type="matrix" values="0 0 0 0 0 0 0 0 0 0 0 0 0 0 0 0 0 0 127 0"></feColorMatrix> <feOffset dy="15"></feOffset> <feGaussianBlur stdDeviation="25"></feGaussianBlur> <feColorMatrix type="matrix" values="0 0 0 0 0.894118 0 0 0 0 0.145098 0 0 0 0 0.247059 0 0 0 0.5 0"></feColorMatrix> <feBlend mode="normal" in2="BackgroundImageFix" result="effect1_dropShadow"></feBlend> <feBlend mode="normal" in="SourceGraphic" in2="effect1_dropShadow" result="shape"></feBlend> </filter> <linearGradient id="paint0_linear" x1="-11.0938" y1="-66.3437" x2="673.875" y2="318.187" gradientUnits="userSpaceOnUse"> <stop stop-color="#E4253F"></stop> <stop offset="1" stop-color="#E35D5B"></stop> </linearGradient> </defs> </svg> 