<?xml version="1.0" encoding="UTF-8"?> <svg xmlns="http://www.w3.org/2000/svg" width="500" height="193" viewBox="0 0 500 193" fill="none"> <g filter="url(#filter0_d)"> <rect x="50" y="35" width="400" height="93" rx="46.5" fill="url(#paint0_linear)"></rect> </g> <path d="M127.56 72.2H140.112V89H136.8V75.368H130.872V89H127.56V72.2ZM157.496 86.816C155.8 88.496 153.736 89.336 151.304 89.336C148.872 89.336 146.808 88.496 145.112 86.816C143.432 85.104 142.592 83.032 142.592 80.6C142.592 78.152 143.432 76.088 145.112 74.408C146.808 72.712 148.872 71.864 151.304 71.864C153.736 71.864 155.8 72.712 157.496 74.408C159.192 76.088 160.04 78.152 160.04 80.6C160.04 83.048 159.192 85.12 157.496 86.816ZM147.44 84.56C148.464 85.584 149.752 86.096 151.304 86.096C152.856 86.096 154.144 85.584 155.168 84.56C156.208 83.52 156.728 82.2 156.728 80.6C156.728 79 156.208 77.68 155.168 76.64C154.128 75.6 152.84 75.08 151.304 75.08C149.768 75.08 148.48 75.6 147.44 76.64C146.4 77.68 145.88 79 145.88 80.6C145.88 82.2 146.4 83.52 147.44 84.56ZM174.65 72.2V85.832H176.45V92.216H173.138V89H163.85V92.216H160.538V85.832H162.17C163.098 84.552 163.562 82.656 163.562 80.144V72.2H174.65ZM165.722 85.832H171.338V75.296H166.874V80.192C166.874 82.64 166.49 84.52 165.722 85.832ZM193.273 89H189.673L188.665 85.976H181.969L180.961 89H177.385L183.265 72.2H187.369L193.273 89ZM185.329 76.016L183.025 82.88H187.633L185.329 76.016ZM192.558 72.2H204.918V75.368H200.382V89H197.07V75.368H192.558V72.2ZM210.199 77.72H213.151C214.751 77.72 216.111 78.264 217.231 79.352C218.335 80.44 218.887 81.776 218.887 83.36C218.887 84.944 218.335 86.28 217.231 87.368C216.111 88.456 214.751 89 213.151 89H206.887V72.2H210.199V77.72ZM210.199 85.904H213.151C213.855 85.904 214.439 85.664 214.903 85.184C215.367 84.704 215.599 84.096 215.599 83.36C215.599 82.64 215.367 82.04 214.903 81.56C214.439 81.064 213.855 80.816 213.151 80.816H210.199V85.904ZM236.187 80.312C237.787 81.144 238.587 82.472 238.587 84.296C238.587 85.784 238.019 87 236.883 87.944C235.763 88.872 234.299 89.336 232.491 89.336C229.371 89.336 227.283 88.016 226.227 85.376L229.083 83.768C229.579 85.4 230.715 86.216 232.491 86.216C233.387 86.216 234.075 86.032 234.555 85.664C235.051 85.28 235.299 84.752 235.299 84.08C235.299 83.408 235.059 82.888 234.579 82.52C234.099 82.136 233.427 81.944 232.563 81.944H230.475V78.992H232.059C232.891 78.992 233.539 78.816 234.003 78.464C234.467 78.096 234.699 77.6 234.699 76.976C234.699 76.336 234.491 75.84 234.075 75.488C233.675 75.136 233.091 74.96 232.323 74.96C230.883 74.96 229.875 75.664 229.299 77.072L226.491 75.44C227.627 73.056 229.571 71.864 232.323 71.864C233.971 71.864 235.331 72.312 236.403 73.208C237.459 74.088 237.987 75.272 237.987 76.76C237.987 78.264 237.387 79.448 236.187 80.312ZM255.256 89H251.656L250.648 85.976H243.952L242.944 89H239.368L245.248 72.2H249.352L255.256 89ZM247.312 76.016L245.008 82.88H249.616L247.312 76.016ZM262.331 72.2H269.051V89H265.739V83.168H263.843L259.979 89H256.259L260.363 82.808C259.291 82.424 258.419 81.768 257.747 80.84C257.075 79.912 256.739 78.888 256.739 77.768C256.739 76.232 257.283 74.92 258.371 73.832C259.459 72.744 260.779 72.2 262.331 72.2ZM262.331 80.264H265.739V75.296H262.331C261.707 75.296 261.171 75.536 260.723 76.016C260.275 76.496 260.051 77.08 260.051 77.768C260.051 78.456 260.275 79.048 260.723 79.544C261.171 80.024 261.707 80.264 262.331 80.264ZM282.443 80.288C283.915 81.136 284.651 82.416 284.651 84.128C284.651 85.552 284.147 86.72 283.139 87.632C282.131 88.544 280.891 89 279.419 89H272.291V72.2H278.915C280.339 72.2 281.547 72.648 282.539 73.544C283.531 74.44 284.027 75.568 284.027 76.928C284.027 78.32 283.499 79.44 282.443 80.288ZM278.915 75.296H275.603V78.992H278.915C279.427 78.992 279.851 78.816 280.187 78.464C280.539 78.112 280.715 77.672 280.715 77.144C280.715 76.616 280.547 76.176 280.211 75.824C279.875 75.472 279.443 75.296 278.915 75.296ZM275.603 85.904H279.419C279.979 85.904 280.443 85.72 280.811 85.352C281.179 84.968 281.363 84.488 281.363 83.912C281.363 83.352 281.179 82.888 280.811 82.52C280.443 82.136 279.979 81.944 279.419 81.944H275.603V85.904ZM293.615 80.36L300.071 89H296.255L290.255 81.128V89H286.943V72.2H290.255V79.616L296.015 72.2H299.831L293.615 80.36ZM307.335 80.312L310.647 72.2H313.959L308.919 84.368C307.575 87.632 305.367 89.176 302.295 89V85.904C303.175 85.984 303.887 85.864 304.431 85.544C304.991 85.224 305.463 84.688 305.847 83.936L300.351 72.2H303.663L307.335 80.312Z" fill="white"></path> <path d="M379.632 63.5601C378.579 62.5995 377.029 62.2571 375.589 62.6587L342.015 71.9966C340.496 72.4012 339.426 73.5184 339.146 74.9231C338.861 76.3528 339.912 78.1487 341.273 78.8874L351.84 84.6192C352.924 85.2067 354.315 85.0371 355.202 84.2071L367.16 73.0356C367.762 72.4541 368.766 72.4407 369.377 73.0059C369.988 73.552 369.995 74.4502 369.393 75.0317L357.413 86.2054C356.525 87.0335 356.368 88.3066 357.034 89.2839L363.539 98.8489C364.301 99.9855 365.603 100.618 367.025 100.599C367.192 100.597 367.38 100.594 367.547 100.573C369.177 100.36 370.465 99.3294 370.935 97.8896L380.665 67.2352C381.094 65.9297 380.685 64.5208 379.632 63.5601Z" fill="white"></path> <defs> <filter id="filter0_d" x="0" y="0" width="500" height="193" filterUnits="userSpaceOnUse" color-interpolation-filters="sRGB"> <feFlood flood-opacity="0" result="BackgroundImageFix"></feFlood> <feColorMatrix in="SourceAlpha" type="matrix" values="0 0 0 0 0 0 0 0 0 0 0 0 0 0 0 0 0 0 127 0"></feColorMatrix> <feOffset dy="15"></feOffset> <feGaussianBlur stdDeviation="25"></feGaussianBlur> <feColorMatrix type="matrix" values="0 0 0 0 0.894118 0 0 0 0 0.145098 0 0 0 0 0.247059 0 0 0 0.5 0"></feColorMatrix> <feBlend mode="normal" in2="BackgroundImageFix" result="effect1_dropShadow"></feBlend> <feBlend mode="normal" in="SourceGraphic" in2="effect1_dropShadow" result="shape"></feBlend> </filter> <linearGradient id="paint0_linear" x1="7.49999" y1="-35.5" x2="484" y2="232" gradientUnits="userSpaceOnUse"> <stop stop-color="#E4253F"></stop> <stop offset="1" stop-color="#E35D5B"></stop> </linearGradient> </defs> </svg> 