<?xml version="1.0" encoding="UTF-8"?> <svg xmlns="http://www.w3.org/2000/svg" width="188" height="139" viewBox="0 0 188 139" fill="none"> <path d="M97.7385 85.1546C93.1528 86.3834 88.385 86.9328 83.6506 86.9271L42.5568 85.7417L49.5197 111.728C50.794 116.483 54.9434 119.74 59.8932 119.87L77.8575 120.336C97.6567 120.856 117.019 115.668 133.905 105.318L149.23 95.9324C153.452 93.3449 155.417 88.4496 154.142 83.694L147.089 57.3684L110.825 79.6457C106.773 82.1876 102.324 83.9259 97.7385 85.1546Z" fill="#090446"></path> <path d="M163.73 22.3274L91.3176 20.432C84.1476 20.1687 77.0143 22.0801 70.7667 25.9386L9.17344 63.7407C4.95178 66.3281 6.72663 72.952 11.6764 73.082L84.0886 74.9774C91.2586 75.2407 98.392 73.3293 104.64 69.4708L157.495 37.1046L161.546 52.2205C160.539 53.2184 160.008 54.6349 160.372 55.9936L161.464 60.0698C161.874 61.5984 163.087 62.7296 164.582 62.8751L163.246 72.153C163.055 73.4784 164.053 74.4853 165.457 74.2911L169.284 73.6295C169.964 73.4475 170.813 73.22 171.492 73.0379L175.138 71.697C176.281 71.2086 176.642 69.8377 175.984 68.7398L170.187 61.3733C171.364 60.3298 171.895 58.9134 171.485 57.3848L170.393 53.3086C170.029 51.9498 168.861 50.9885 167.49 50.6277L162.985 33.8133L166.403 31.6232C170.409 28.9114 168.68 22.4574 163.73 22.3274Z" fill="#E4253F"></path> </svg> 