<?xml version="1.0" encoding="UTF-8"?> <svg xmlns="http://www.w3.org/2000/svg" width="78" height="87" viewBox="0 0 78 87" fill="none"> <path fill-rule="evenodd" clip-rule="evenodd" d="M43.4963 5.37011C40.7136 3.75915 37.2864 3.75915 34.5038 5.37011L8.67073 20.3256C5.88708 21.9371 4.16794 24.9186 4.16794 28.1498L4.16794 58.0608C4.16794 61.292 5.88708 64.2734 8.67073 65.8849L34.5037 80.8404C37.2864 82.4514 40.7136 82.4514 43.4962 80.8404L69.3293 65.8849C72.1129 64.2734 73.8321 61.292 73.8321 58.0608V28.1498C73.8321 24.9186 72.1129 21.9371 69.3293 20.3256L43.4963 5.37011ZM32.4132 1.76959C36.4888 -0.589862 41.5112 -0.589862 45.5868 1.76959L71.4198 16.7251C75.4943 19.084 78 23.4402 78 28.1498V58.0608C78 62.7704 75.4943 67.1266 71.4198 69.4854L45.5868 84.4409C41.5112 86.8004 36.4888 86.8004 32.4132 84.4409L6.58022 69.4854C2.50568 67.1266 -1.41959e-07 62.7704 0 58.0608L1.27763e-06 28.1498C1.56155e-06 23.4402 2.50568 19.084 6.58022 16.7251L32.4132 1.76959Z" fill="#E4253F"></path> <path d="M40.5411 47.8668C39.202 48.2256 37.8097 48.386 36.4271 48.3844L24.427 48.0382L26.4603 55.6266C26.8324 57.0153 28.0441 57.9664 29.4895 58.0044L34.7354 58.1403C40.5172 58.2922 46.1713 56.7772 51.1025 53.7548L55.5776 51.0141C56.8104 50.2585 57.3842 48.829 57.0121 47.4402L54.9522 39.7527L44.3627 46.2581C43.1795 47.0004 41.8802 47.508 40.5411 47.8668Z" fill="white"></path> <path d="M59.8122 29.52L38.6665 28.9665C36.5727 28.8896 34.4896 29.4478 32.6652 30.5746L14.6788 41.6135C13.446 42.3691 13.9643 44.3034 15.4097 44.3413L36.5555 44.8948C38.6493 44.9717 40.7323 44.4136 42.5567 43.2868L57.9916 33.8352L59.1744 38.2494C58.8804 38.5408 58.7254 38.9544 58.8317 39.3512L59.1507 40.5415C59.2703 40.9879 59.6246 41.3182 60.0612 41.3607L59.6709 44.0701C59.6151 44.4571 59.9065 44.7511 60.3166 44.6944L61.4343 44.5012C61.6327 44.4481 61.8807 44.3816 62.0791 44.3285L63.1436 43.9369C63.4775 43.7943 63.5829 43.3939 63.3907 43.0733L61.6979 40.9222C62.0416 40.6175 62.1965 40.2038 62.0769 39.7575L61.758 38.5671C61.6516 38.1703 61.3106 37.8896 60.9103 37.7842L59.5946 32.8741L60.5927 32.2346C61.7627 31.4427 61.2577 29.558 59.8122 29.52Z" fill="#E4253F"></path> </svg> 