<?xml version="1.0" encoding="UTF-8"?> <svg xmlns="http://www.w3.org/2000/svg" width="190" height="210" viewBox="0 0 190 210" fill="none"> <path fill-rule="evenodd" clip-rule="evenodd" d="M105.952 13.081C99.1742 9.1569 90.8259 9.1569 84.0476 13.081L21.121 49.5111C14.3403 53.4366 10.1527 60.6991 10.1527 68.5699L10.1527 141.43C10.1527 149.301 14.3403 156.563 21.121 160.489L84.0476 196.919C90.8259 200.843 99.1741 200.843 105.952 196.919L168.879 160.489C175.66 156.563 179.847 149.301 179.847 141.43V68.5699C179.847 60.6991 175.66 53.4366 168.879 49.5111L105.952 13.081ZM78.9553 4.31053C88.8829 -1.43684 101.117 -1.43684 111.045 4.31053L173.971 40.7406C183.896 46.4866 190 57.0978 190 68.5699V141.43C190 152.902 183.896 163.513 173.971 169.259L111.045 205.689C101.117 211.437 88.8829 211.437 78.9553 205.689L16.0287 169.259C6.10358 163.513 -3.45798e-07 152.902 0 141.43L3.11218e-06 68.5699C3.80378e-06 57.0978 6.10359 46.4865 16.0287 40.7406L78.9553 4.31053Z" fill="#E4253F"></path> <circle cx="54.5" cy="145.5" r="11.5" fill="white"></circle> <path fill-rule="evenodd" clip-rule="evenodd" d="M85 95C91.6274 95 97 100.473 97 107.225V144.775C97 151.527 91.6274 157 85 157C78.3726 157 73 151.527 73 144.775V107.225C73 100.473 78.3726 95 85 95Z" fill="#E4253F"></path> <path fill-rule="evenodd" clip-rule="evenodd" d="M116.5 41C123.404 41 129 46.5503 129 53.3969V144.603C129 151.45 123.404 157 116.5 157C109.596 157 104 151.45 104 144.603V53.3969C104 46.5503 109.596 41 116.5 41Z" fill="#E4253F"></path> </svg> 