<?xml version="1.0" encoding="UTF-8"?> <svg xmlns="http://www.w3.org/2000/svg" width="245" height="87" viewBox="0 0 245 87" fill="none"> <path d="M114.329 46.1926H115.452C116.045 46.1926 116.527 46.6778 116.527 47.2764V52.012C116.527 53.1378 115.621 54.0503 114.505 54.0503C113.388 54.0503 112.482 53.1378 112.482 52.012V50.0919H99V31.4519C99 30.3261 99.9054 29.4136 101.022 29.4136C102.139 29.4136 103.045 30.3261 103.045 31.4519V46.1926H110.284V31.4519C110.284 30.3261 111.189 29.4136 112.306 29.4136C113.423 29.4136 114.329 30.3261 114.329 31.4519V46.1926Z" fill="#090446"></path> <path d="M121.682 44.2724C122.19 46.1236 123.568 47.0492 125.815 47.0492C126.621 47.0492 127.317 46.8963 127.905 46.5905C128.705 46.1737 129.682 45.9124 130.463 46.3662C131.369 46.8932 131.649 48.1152 130.852 48.798C129.523 49.9363 127.824 50.5055 125.756 50.5055C123.333 50.5055 121.389 49.767 119.924 48.2899C118.458 46.8129 117.726 44.9519 117.726 42.7068C117.726 40.4814 118.449 38.6302 119.894 37.1532C121.34 35.6565 123.197 34.9081 125.463 34.9081C127.613 34.9081 129.381 35.6565 130.768 37.1532C132.175 38.6499 132.878 40.5011 132.878 42.7068C132.878 42.8842 132.872 43.0654 132.859 43.2504C132.819 43.8453 132.301 44.2724 131.709 44.2724H121.682ZM121.624 41.3184H129.098C128.883 40.314 128.433 39.5656 127.749 39.0733C127.085 38.581 126.323 38.3348 125.463 38.3348C124.447 38.3348 123.607 38.6007 122.943 39.1324C122.278 39.6444 121.839 40.3731 121.624 41.3184Z" fill="#090446"></path> <path d="M145.131 37.227C145.131 36.1747 145.978 35.3217 147.022 35.3217C148.066 35.3217 148.912 36.1747 148.912 37.227V48.1865C148.912 49.2388 148.066 50.0919 147.022 50.0919C145.978 50.0919 145.131 49.2388 145.131 48.1865V44.4792H139.299V48.1865C139.299 49.2388 138.452 50.0919 137.408 50.0919C136.364 50.0919 135.518 49.2388 135.518 48.1865V37.227C135.518 36.1747 136.364 35.3217 137.408 35.3217C138.452 35.3217 139.299 36.1747 139.299 37.227V40.9048H145.131V37.227Z" fill="#090446"></path> <path d="M162.107 35.3217C163.111 35.3217 163.924 36.1417 163.924 37.1532C163.924 38.1647 163.111 38.9847 162.107 38.9847H159.352V48.1865C159.352 49.2388 158.506 50.0919 157.461 50.0919C156.417 50.0919 155.571 49.2388 155.571 48.1865V38.9847H152.757C151.754 38.9847 150.94 38.1647 150.94 37.1532C150.94 36.1417 151.754 35.3217 152.757 35.3217H162.107Z" fill="#090446"></path> <path d="M174.472 34.9081C176.446 34.9081 178.126 35.6663 179.513 37.1827C180.92 38.6794 181.624 40.5208 181.624 42.7068C181.624 44.8928 180.92 46.744 179.513 48.2604C178.126 49.7571 176.446 50.5055 174.472 50.5055C172.421 50.5055 170.838 49.7867 169.724 48.349V54.0946C169.724 55.1469 168.878 56 167.834 56C166.79 56 165.943 55.1469 165.943 54.0946V37.227C165.943 36.1747 166.79 35.3217 167.834 35.3217H167.995C168.95 35.3217 169.724 36.102 169.724 37.0646C170.838 35.6269 172.421 34.9081 174.472 34.9081ZM170.867 45.7199C171.629 46.488 172.596 46.872 173.769 46.872C174.941 46.872 175.908 46.488 176.67 45.7199C177.452 44.9322 177.843 43.9278 177.843 42.7068C177.843 41.4858 177.452 40.4912 176.67 39.7232C175.908 38.9354 174.941 38.5416 173.769 38.5416C172.596 38.5416 171.629 38.9354 170.867 39.7232C170.105 40.4912 169.724 41.4858 169.724 42.7068C169.724 43.9278 170.105 44.9322 170.867 45.7199Z" fill="#090446"></path> <path d="M205.29 29.4136C206.302 29.4136 207.122 30.2402 207.122 31.2598V48.0536C207.122 49.1793 206.216 50.0919 205.1 50.0919C203.983 50.0919 203.077 49.1793 203.077 48.0536V33.3129H195.838V48.0536C195.838 49.1793 194.932 50.0919 193.816 50.0919C192.699 50.0919 191.793 49.1793 191.793 48.0536V31.2598C191.793 30.2402 192.613 29.4136 193.625 29.4136H205.29Z" fill="#090446"></path> <path d="M224.739 47.0773C225.661 48.3209 224.78 50.0919 223.24 50.0919C222.656 50.0919 222.106 49.8172 221.752 49.3493L214.986 40.4026V48.0536C214.986 49.1793 214.081 50.0919 212.964 50.0919C211.847 50.0919 210.941 49.1793 210.941 48.0536V31.4519C210.941 30.3261 211.847 29.4136 212.964 29.4136C214.081 29.4136 214.986 30.3261 214.986 31.4519V38.5416L221.462 30.1375C221.814 29.6808 222.356 29.4136 222.93 29.4136C224.467 29.4136 225.339 31.1882 224.408 32.4208L219.089 39.4573L224.739 47.0773Z" fill="#090446"></path> <path d="M236.958 50.5055C233.871 50.5055 231.321 49.4716 229.308 47.4037C227.296 45.3359 226.29 42.7856 226.29 39.7527C226.29 36.7002 227.296 34.1499 229.308 32.1018C231.321 30.0339 233.871 29 236.958 29C238.814 29 240.524 29.4431 242.087 30.3293C243.049 30.8559 243.881 31.4989 244.583 32.2583C245.336 33.0725 245.001 34.3295 244.046 34.8877C243.083 35.4503 241.867 35.0601 241.006 34.35C240.736 34.1281 240.442 33.9301 240.124 33.756C239.186 33.2243 238.131 32.9584 236.958 32.9584C234.965 32.9584 233.353 33.5886 232.122 34.849C230.911 36.1094 230.305 37.744 230.305 39.7527C230.305 41.7418 230.911 43.3665 232.122 44.6269C233.353 45.8873 234.965 46.5175 236.958 46.5175C238.131 46.5175 239.186 46.2615 240.124 45.7495C240.441 45.5731 240.733 45.3761 240.999 45.1585C241.864 44.4508 243.088 44.0582 244.052 44.6216C245.004 45.1777 245.337 46.429 244.593 47.2456C243.895 48.0123 243.069 48.6657 242.117 49.2057C240.553 50.0722 238.834 50.5055 236.958 50.5055Z" fill="#090446"></path> <path fill-rule="evenodd" clip-rule="evenodd" d="M34.8951 39C37.6158 39 39.8214 41.247 39.8214 44.0188V59.4338C39.8214 62.2056 37.6158 64.4526 34.8951 64.4526C32.1743 64.4526 29.9688 62.2056 29.9688 59.4338V44.0188C29.9688 41.247 32.1743 39 34.8951 39Z" fill="#E4253F"></path> <path fill-rule="evenodd" clip-rule="evenodd" d="M43.4963 5.37011C40.7136 3.75915 37.2864 3.75915 34.5038 5.37011L8.67073 20.3256C5.88708 21.9371 4.16794 24.9186 4.16794 28.1498L4.16794 58.0608C4.16794 61.292 5.88708 64.2734 8.67073 65.8849L34.5037 80.8404C37.2864 82.4514 40.7136 82.4514 43.4962 80.8404L69.3293 65.8849C72.1129 64.2734 73.8321 61.292 73.8321 58.0608V28.1498C73.8321 24.9186 72.1129 21.9371 69.3293 20.3256L43.4963 5.37011ZM32.4132 1.76959C36.4888 -0.589862 41.5112 -0.589862 45.5868 1.76959L71.4198 16.7251C75.4943 19.084 78 23.4402 78 28.1498V58.0608C78 62.7704 75.4943 67.1266 71.4198 69.4854L45.5868 84.4409C41.5112 86.8004 36.4888 86.8004 32.4132 84.4409L6.58022 69.4854C2.50568 67.1266 -1.41959e-07 62.7704 0 58.0608L1.27763e-06 28.1498C1.56155e-06 23.4402 2.50568 19.084 6.58022 16.7251L32.4132 1.76959Z" fill="#E4253F"></path> <circle cx="22.3734" cy="59.7316" r="4.72105" fill="#090446"></circle> <path fill-rule="evenodd" clip-rule="evenodd" d="M47.8259 16.8316C50.66 16.8316 52.9575 19.1101 52.9575 21.9209V59.3634C52.9575 62.1741 50.66 64.4526 47.8259 64.4526C44.9918 64.4526 42.6943 62.1741 42.6943 59.3634V21.9209C42.6943 19.1101 44.9918 16.8316 47.8259 16.8316Z" fill="#E4253F"></path> </svg> 