<?xml version="1.0" encoding="UTF-8"?> <svg xmlns="http://www.w3.org/2000/svg" width="692" height="127" viewBox="0 0 692 127" fill="none"> <path d="M72.6538 80.8687H77.9757C80.7906 80.8687 83.0726 83.1512 83.0726 85.9667V108.242C83.0726 113.537 78.7811 117.829 73.4873 117.829C68.1935 117.829 63.902 113.537 63.902 108.242V99.2101H0V11.5328C0 6.23778 4.29148 1.9453 9.58529 1.9453C14.8791 1.9453 19.1706 6.23778 19.1706 11.5328V80.8687H53.4832V11.5328C53.4832 6.23778 57.7747 1.9453 63.0685 1.9453C68.3623 1.9453 72.6538 6.23778 72.6538 11.5328V80.8687Z" fill="white"></path> <path d="M107.508 71.837C109.916 80.5445 116.445 84.8982 127.095 84.8982C130.914 84.8982 134.216 84.1791 137 82.7407C140.794 80.7799 145.427 79.5508 149.126 81.6856C153.421 84.1641 154.748 89.9122 150.97 93.1238C144.67 98.4782 136.619 101.155 126.817 101.155C115.334 101.155 106.119 97.6816 99.1729 90.7341C92.227 83.7867 88.7541 75.0328 88.7541 64.4727C88.7541 54.0051 92.1807 45.2976 99.0339 38.3501C105.887 31.31 114.685 27.7899 125.428 27.7899C135.615 27.7899 143.997 31.31 150.572 38.3501C157.24 45.3902 160.574 54.0977 160.574 64.4727C160.574 65.307 160.544 66.1594 160.484 67.0298C160.291 69.828 157.838 71.837 155.034 71.837H107.508ZM107.23 57.942H142.654C141.635 53.2177 139.505 49.6977 136.264 47.3818C133.115 45.066 129.503 43.9081 125.428 43.9081C120.612 43.9081 116.63 45.1586 113.481 47.6597C110.333 50.0682 108.249 53.4956 107.23 57.942Z" fill="white"></path> <path d="M218.649 38.6975C218.649 33.7478 222.661 29.7352 227.61 29.7352C232.558 29.7352 236.57 33.7478 236.57 38.6975V90.2478C236.57 95.1975 232.558 99.2101 227.61 99.2101C222.661 99.2101 218.649 95.1975 218.649 90.2478V72.8096H191.005V90.2478C191.005 95.1975 186.993 99.2101 182.045 99.2101C177.096 99.2101 173.084 95.1975 173.084 90.2478V38.6975C173.084 33.7478 177.096 29.7352 182.045 29.7352C186.993 29.7352 191.005 33.7478 191.005 38.6975V55.9967H218.649V38.6975Z" fill="white"></path> <path d="M299.11 29.7352C303.866 29.7352 307.722 33.5922 307.722 38.3501C307.722 43.108 303.866 46.965 299.11 46.965H286.051V90.2478C286.051 95.1975 282.04 99.2101 277.091 99.2101C272.143 99.2101 268.131 95.1975 268.131 90.2478V46.965H254.795C250.038 46.965 246.182 43.108 246.182 38.3501C246.182 33.5922 250.038 29.7352 254.795 29.7352H299.11Z" fill="white"></path> <path d="M357.717 27.7899C367.071 27.7899 375.036 31.3563 381.611 38.4891C388.279 45.5292 391.613 54.1904 391.613 64.4727C391.613 74.7549 388.279 83.4624 381.611 90.5952C375.036 97.6353 367.071 101.155 357.717 101.155C347.993 101.155 340.492 97.7743 335.213 91.012V118.038C335.213 122.987 331.201 127 326.253 127C321.304 127 317.293 122.987 317.293 118.038V38.6975C317.293 33.7478 321.304 29.7352 326.253 29.7352H327.017C331.543 29.7352 335.213 33.4056 335.213 37.9333C340.492 31.171 347.993 27.7899 357.717 27.7899ZM340.631 78.6455C344.243 82.2582 348.827 84.0646 354.383 84.0646C359.94 84.0646 364.524 82.2582 368.136 78.6455C371.841 74.9402 373.693 70.2159 373.693 64.4727C373.693 58.7294 371.841 54.0514 368.136 50.4387C364.524 46.7334 359.94 44.8807 354.383 44.8807C348.827 44.8807 344.243 46.7334 340.631 50.4387C337.019 54.0514 335.213 58.7294 335.213 64.4727C335.213 70.2159 337.019 74.9402 340.631 78.6455Z" fill="white"></path> <path d="M503.786 1.9453C508.581 1.9453 512.468 5.83341 512.468 10.6296V89.6225C512.468 94.9176 508.177 99.2101 502.883 99.2101C497.589 99.2101 493.298 94.9176 493.298 89.6225V20.2867H458.985V89.6225C458.985 94.9176 454.693 99.2101 449.4 99.2101C444.106 99.2101 439.814 94.9176 439.814 89.6226V10.6297C439.814 5.83342 443.702 1.9453 448.497 1.9453H503.786Z" fill="white"></path> <path d="M595.967 85.0305C600.337 90.88 596.163 99.2101 588.863 99.2101C586.096 99.2101 583.487 97.9181 581.81 95.7169L549.742 53.6346V89.6226C549.742 94.9176 545.451 99.2101 540.157 99.2101C534.863 99.2101 530.572 94.9176 530.572 89.6226V11.5328C530.572 6.23778 534.863 1.9453 540.157 1.9453C545.451 1.9453 549.742 6.23777 549.742 11.5328V44.8807L580.439 5.35028C582.107 3.20207 584.674 1.9453 587.393 1.9453C594.68 1.9453 598.813 10.2925 594.398 16.0903L569.191 49.1882L595.967 85.0305Z" fill="white"></path> <path d="M653.884 101.155C639.251 101.155 627.165 96.2921 617.626 86.5656C608.087 76.8392 603.318 64.8432 603.318 50.5777C603.318 36.2195 608.087 24.2236 617.626 14.5897C627.165 4.86324 639.251 0 653.884 0C662.682 0 670.785 2.08425 678.194 6.25274C682.753 8.72977 686.696 11.7542 690.024 15.326C693.592 19.1559 692.005 25.0682 687.478 27.694C682.915 30.3403 677.151 28.505 673.068 25.165C671.792 24.1212 670.398 23.1898 668.887 22.3709C664.441 19.8698 659.44 18.6193 653.884 18.6193C644.437 18.6193 636.797 21.5835 630.962 27.512C625.221 33.4406 622.35 41.1291 622.35 50.5777C622.35 59.9336 625.221 67.5759 630.962 73.5044C636.797 79.4329 644.437 82.3972 653.884 82.3972C659.44 82.3972 664.441 81.1929 668.887 78.7845C670.392 77.9548 671.775 77.0283 673.036 76.005C677.137 72.6759 682.939 70.8291 687.509 73.4792C692.019 76.0952 693.599 81.9808 690.072 85.822C686.761 89.4283 682.848 92.5015 678.333 95.0416C670.924 99.1174 662.775 101.155 653.884 101.155Z" fill="white"></path> </svg> 