<?xml version="1.0" encoding="UTF-8"?> <svg xmlns="http://www.w3.org/2000/svg" width="78" height="87" viewBox="0 0 78 87" fill="none"> <path fill-rule="evenodd" clip-rule="evenodd" d="M43.4963 5.37011C40.7136 3.75915 37.2864 3.75915 34.5038 5.37011L8.67073 20.3256C5.88708 21.9371 4.16794 24.9186 4.16794 28.1498L4.16794 58.0608C4.16794 61.292 5.88708 64.2734 8.67073 65.8849L34.5037 80.8404C37.2864 82.4514 40.7136 82.4514 43.4962 80.8404L69.3293 65.8849C72.1129 64.2734 73.8321 61.292 73.8321 58.0608V28.1498C73.8321 24.9186 72.1129 21.9371 69.3293 20.3256L43.4963 5.37011ZM32.4132 1.76959C36.4888 -0.589862 41.5112 -0.589862 45.5868 1.76959L71.4198 16.7251C75.4943 19.084 78 23.4402 78 28.1498V58.0608C78 62.7704 75.4943 67.1266 71.4198 69.4854L45.5868 84.4409C41.5112 86.8004 36.4888 86.8004 32.4132 84.4409L6.58022 69.4854C2.50568 67.1266 -1.41959e-07 62.7704 0 58.0608L1.27763e-06 28.1498C1.56155e-06 23.4402 2.50568 19.084 6.58022 16.7251L32.4132 1.76959Z" fill="#E4253F"></path> <path d="M29.8389 53.1964C29.8389 48.3443 33.7723 44.4108 38.6244 44.4108C43.4766 44.4108 47.41 48.3443 47.41 53.1964V67.6588L38.6244 57.2373L29.8389 67.6588V53.1964Z" fill="#E4253F"></path> <path d="M35.0762 20.4843C37.022 18.5078 40.1985 18.5078 42.161 20.4692L43.3751 21.6913C43.8407 22.1607 44.4727 22.4306 45.1379 22.4306H46.8509C49.6117 22.4306 51.8569 24.692 51.8569 27.4749V29.2032C51.8569 29.8721 52.123 30.5091 52.5886 30.9785L53.7861 32.1856C54.734 33.1243 55.2496 34.3984 55.2496 35.7395C55.2662 37.0807 54.7507 38.3564 53.8193 39.3103L52.5886 40.5508C52.123 41.0202 51.8569 41.6572 51.8569 42.3295V44.0545C51.8569 46.8373 49.6117 49.1021 46.8509 49.1021H45.1379C44.4727 49.1021 43.8407 49.3687 43.3751 49.8381L42.1776 51.0451C41.1964 52.0359 39.9158 52.5203 38.6352 52.5203C37.3546 52.5203 36.074 52.0359 35.0928 51.0635L33.8787 49.8381C33.4131 49.3687 32.7811 49.1021 32.1159 49.1021H30.4029C27.6421 49.1021 25.3969 46.8373 25.3969 44.0545V42.3295C25.3969 41.6572 25.1308 41.0202 24.6651 40.534L23.4677 39.3438C21.5219 37.3841 21.5053 34.1805 23.4511 32.204L24.6651 30.9785C25.1308 30.5091 25.3969 29.8721 25.3969 29.1848V27.4749C25.3969 24.692 27.6421 22.4306 30.4029 22.4306H32.1159C32.7811 22.4306 33.4131 22.1607 33.8787 21.6913L35.0762 20.4843Z" fill="white"></path> </svg> 