<?xml version="1.0" encoding="UTF-8"?> <svg xmlns="http://www.w3.org/2000/svg" width="1080" height="1192" viewBox="0 0 1080 1192" fill="none"> <path fill-rule="evenodd" clip-rule="evenodd" d="M601.795 77.7521C563.551 55.6275 516.449 55.6275 478.205 77.7521L123.167 283.148C84.9096 305.281 61.2825 346.227 61.2825 390.604L61.2824 801.396C61.2824 845.773 84.9096 886.719 123.167 908.852L478.205 1114.25C516.449 1136.37 563.551 1136.37 601.795 1114.25L956.833 908.852C995.091 886.719 1018.72 845.773 1018.72 801.396V390.604C1018.72 346.227 995.091 305.281 956.833 283.148L601.795 77.7521ZM449.474 28.3032C505.487 -4.10106 574.513 -4.10106 630.526 28.3032L985.564 233.699C1041.56 266.096 1076 325.923 1076 390.604V801.396C1076 866.077 1041.56 925.904 985.564 958.301L630.526 1163.7C574.513 1196.1 505.487 1196.1 449.474 1163.7L94.4358 958.301C38.4371 925.904 4 866.077 4 801.396L4.00002 390.604C4.00002 325.923 38.4371 266.096 94.4359 233.699L449.474 28.3032Z" stroke="#E4253F" stroke-opacity="0.28" stroke-width="7"></path> </svg> 