<?xml version="1.0" encoding="UTF-8"?> <svg xmlns="http://www.w3.org/2000/svg" width="21" height="21" viewBox="0 0 21 21" fill="none"> <path d="M19.5451 14.7614L16.7382 11.9545C15.7357 10.952 14.0315 11.353 13.6305 12.6562C13.3298 13.5585 12.3273 14.0597 11.4251 13.8592C9.42013 13.3579 6.71346 10.7515 6.21222 8.64632C5.91148 7.74406 6.51297 6.74158 7.41519 6.44088C8.7184 6.03989 9.11939 4.33569 8.11692 3.33322L5.31 0.526298C4.50802 -0.175433 3.30506 -0.175433 2.60333 0.526298L0.69863 2.43099C-1.20607 4.43594 0.899124 9.74904 5.61074 14.4607C10.3224 19.1723 15.6355 21.3778 17.6404 19.3728L19.5451 17.4681C20.2469 16.6661 20.2469 15.4631 19.5451 14.7614Z" fill="#090446"></path> </svg> 