<?xml version="1.0" encoding="UTF-8"?> <svg xmlns="http://www.w3.org/2000/svg" width="647" height="132" viewBox="0 0 647 132" fill="none"> <path d="M92.9976 102.944V102.444H92.4976H65.7201V6.56836V6.06836H65.2201H35.7949H35.5011L35.3581 6.32501C34.6917 7.52103 33.0406 9.25392 30.3195 11.5389C27.7651 13.6613 24.6359 15.8604 20.9281 18.1356L20.9281 18.1355L20.9206 18.1403C17.3607 20.4121 13.7308 22.3993 10.0307 24.1024C6.4865 25.657 3.48099 26.4143 1 26.4143H0.5V26.9143V53.6853V54.1853H1C4.79683 54.1853 9.07933 53.3123 13.8404 51.5862C18.7358 49.8632 23.2045 47.7796 27.2445 45.3341C30.7829 43.2655 33.4761 41.2813 35.2949 39.3763V102.444H5.29566H4.79566V102.944V128.858V129.358H5.29566H92.4976H92.9976V128.858V102.944ZM200.205 102.944V102.444H199.705H172.927V6.56836V6.06836H172.427H143.002H142.708L142.565 6.32501C141.899 7.5211 140.247 9.25414 137.526 11.5393C134.972 13.6616 131.843 15.8606 128.135 18.1356L128.135 18.1355L128.128 18.1403C124.568 20.4121 120.938 22.3993 117.238 24.1024C113.693 25.657 110.688 26.4143 108.207 26.4143H107.707V26.9143V53.6853V54.1853H108.207C112.004 54.1853 116.286 53.3123 121.047 51.5861C125.943 49.8632 130.411 47.7797 134.451 45.3342C137.99 43.2656 140.683 41.2813 142.502 39.3763V102.444H112.503H112.003V102.944V128.858V129.358H112.503H199.705H200.205V128.858V102.944ZM295.729 123.063L295.733 123.065C304.267 128.69 313.885 131.5 324.574 131.5C335.262 131.5 344.809 128.69 353.201 123.065C361.729 117.444 368.373 109.734 373.135 99.9503C378.041 90.021 380.488 78.7362 380.488 66.1071C380.488 53.4788 378.042 42.2647 373.135 32.477C368.374 22.5536 361.732 14.7733 353.205 9.15197C344.813 3.38231 335.264 0.5 324.574 0.5C313.882 0.5 304.262 3.38317 295.728 9.15249C287.344 14.7741 280.702 22.5539 275.8 32.4753L275.798 32.4781C271.035 42.2655 268.66 53.4791 268.66 66.1071C268.66 78.7352 271.035 90.0191 275.797 99.9477L275.801 99.9556C280.705 109.735 287.347 117.442 295.729 123.063ZM343.059 38.5432L343.066 38.5525C348.002 45.5847 350.492 54.756 350.492 66.1071C350.492 77.4581 348.002 86.6295 343.066 93.6616L343.062 93.6672C338.274 100.688 332.119 104.157 324.574 104.157C316.735 104.157 310.44 100.682 305.657 93.6672C300.861 86.6342 298.441 77.4608 298.441 66.1071C298.441 54.7534 300.861 45.5799 305.657 38.547L305.659 38.5431C310.445 31.3851 316.74 27.8427 324.574 27.8427C332.115 27.8427 338.269 31.3787 343.059 38.5432ZM428.736 123.063L428.739 123.065C437.273 128.69 446.891 131.5 457.58 131.5C468.268 131.5 477.816 128.69 486.207 123.065C494.735 117.444 501.379 109.734 506.141 99.9503C511.047 90.021 513.494 78.7362 513.494 66.1071C513.494 53.4788 511.048 42.2647 506.141 32.477C501.38 22.5536 494.738 14.7733 486.211 9.15197C477.819 3.38231 468.27 0.5 457.58 0.5C446.888 0.5 437.268 3.38317 428.734 9.15249C420.35 14.7741 413.709 22.5539 408.806 32.4753L408.804 32.4781C404.041 42.2655 401.666 53.4791 401.666 66.1071C401.666 78.7352 404.041 90.019 408.803 99.9477L408.807 99.9556C413.711 109.735 420.353 117.442 428.736 123.063ZM476.065 38.5432L476.072 38.5525C481.008 45.5847 483.498 54.756 483.498 66.1071C483.498 77.4581 481.008 86.6295 476.072 93.6616L476.068 93.6672C471.28 100.688 465.126 104.157 457.58 104.157C449.741 104.157 443.447 100.682 438.663 93.6672C433.867 86.6342 431.447 77.4608 431.447 66.1071C431.447 54.7534 433.867 45.5799 438.663 38.547L438.665 38.5431C443.451 31.3851 449.746 27.8427 457.58 27.8427C465.121 27.8427 471.275 31.3787 476.065 38.5432ZM561.741 123.063L561.745 123.065C570.279 128.69 579.897 131.5 590.586 131.5C601.275 131.5 610.823 128.69 619.215 123.063C627.742 117.442 634.386 109.733 639.147 99.9503C644.053 90.021 646.5 78.7362 646.5 66.1071C646.5 53.4781 644.053 42.2636 639.146 32.4756C634.386 22.5531 627.744 14.7735 619.217 9.15246C610.826 3.38247 601.276 0.5 590.586 0.5C579.894 0.5 570.274 3.38317 561.74 9.15249C553.356 14.7741 546.714 22.5539 541.812 32.4753L541.81 32.4781C537.047 42.2655 534.672 53.4791 534.672 66.1071C534.672 78.7352 537.047 90.019 541.809 99.9477L541.813 99.9556C546.717 109.735 553.359 117.442 561.741 123.063ZM609.071 38.5432L609.078 38.5525C614.014 45.5847 616.504 54.756 616.504 66.1071C616.504 77.4581 614.014 86.6295 609.078 93.6616L609.074 93.6672C604.286 100.688 598.131 104.157 590.586 104.157C582.747 104.157 576.452 100.682 571.669 93.6672C566.872 86.6342 564.453 77.4608 564.453 66.1071C564.453 54.7534 566.872 45.5799 571.669 38.547L571.671 38.5431C576.457 31.3851 582.752 27.8427 590.586 27.8427C598.127 27.8427 604.281 31.3787 609.071 38.5432Z" stroke="#E4253F"></path> </svg> 