<?xml version="1.0" encoding="UTF-8"?> <svg xmlns="http://www.w3.org/2000/svg" width="159" height="158" viewBox="0 0 159 158" fill="none"> <path d="M86.8089 94.794C87.2478 94.794 87.6041 94.4378 87.6041 93.9988C87.6041 93.5599 87.2478 93.2036 86.8089 93.2036C86.3699 93.2036 86.0137 93.5599 86.0137 93.9988C86.0137 94.4378 86.3699 94.794 86.8089 94.794Z" fill="black"></path> <path d="M70.9056 93.2036C70.4666 93.2036 70.1104 93.5599 70.1104 93.9988C70.1104 94.4378 70.4666 94.794 70.9056 94.794C71.3445 94.794 71.7008 94.4378 71.7008 93.9988C71.7008 93.5599 71.3445 93.2036 70.9056 93.2036Z" fill="black"></path> <path fill-rule="evenodd" clip-rule="evenodd" d="M158.5 78.9999L158.498 86.8999L158.492 90.1719L158.482 92.6821L158.468 94.7979L158.451 96.6612L158.429 98.3451L158.403 99.8929L158.374 101.333L158.34 102.684L158.302 103.961L158.261 105.175L158.215 106.334L158.166 107.444L158.113 108.511L158.055 109.539L157.994 110.533L157.929 111.494L157.859 112.426L157.786 113.332L157.709 114.212L157.627 115.069L157.542 115.905L157.453 116.72L157.36 117.516L157.262 118.294L157.161 119.055L157.056 119.8L156.946 120.53L156.833 121.245L156.716 121.946L156.594 122.633L156.469 123.308L156.339 123.971L156.205 124.621L156.068 125.26L155.926 125.889L155.78 126.506L155.63 127.114L155.476 127.711L155.318 128.299L155.155 128.877L154.989 129.446L154.818 130.007L154.644 130.559L154.465 131.102L154.281 131.637L154.094 132.164L153.903 132.684L153.707 133.196L153.507 133.7L153.302 134.197L153.094 134.687L152.881 135.17L152.664 135.646L152.442 136.115L152.217 136.577L151.987 137.033L151.752 137.483L151.513 137.926L151.27 138.363L151.022 138.794L150.77 139.218L150.513 139.637L150.252 140.05L149.987 140.457L149.716 140.858L149.442 141.254L149.162 141.644L148.878 142.029L148.59 142.408L148.296 142.782L147.998 143.15L147.696 143.513L147.388 143.871L147.076 144.224L146.758 144.571L146.436 144.913L146.109 145.251L145.777 145.583L145.44 145.911L145.098 146.233L144.751 146.551L144.399 146.863L144.042 147.171L143.679 147.474L143.311 147.773L142.938 148.066L142.559 148.355L142.175 148.64L141.785 148.92L141.39 149.195L140.989 149.465L140.583 149.731L140.17 149.993L139.752 150.25L139.328 150.502L138.897 150.75L138.461 150.994L138.018 151.233L137.569 151.468L137.114 151.699L136.652 151.925L136.183 152.146L135.708 152.364L135.226 152.577L134.736 152.786L134.24 152.991L133.736 153.191L133.225 153.387L132.706 153.579L132.18 153.767L131.645 153.95L131.102 154.129L130.551 154.305L129.991 154.476L129.423 154.642L128.845 154.805L128.258 154.964L127.661 155.118L127.055 155.268L126.438 155.415L125.811 155.557L125.172 155.695L124.523 155.829L123.861 155.959L123.188 156.084L122.501 156.206L121.801 156.324L121.087 156.438L120.359 156.547L119.615 156.653L118.856 156.754L118.079 156.852L117.284 156.946L116.471 157.035L115.637 157.121L114.781 157.202L113.903 157.28L112.999 157.354L112.069 157.423L111.11 157.489L110.12 157.55L109.094 157.608L108.03 157.662L106.924 157.712L105.769 157.757L104.56 157.799L103.288 157.837L101.943 157.871L100.511 157.901L98.9729 157.927L97.3012 157.949L95.4543 157.967L93.3625 157.981L90.8921 157.991L87.7084 157.998L81.7293 158L71.9211 157.998L68.5527 157.993L66.0006 157.983L63.86 157.97L61.9798 157.952L60.2835 157.931L58.7261 157.905L57.2785 157.876L55.9207 157.843L54.638 157.806L53.4196 157.764L52.2568 157.719L51.143 157.67L50.0726 157.617L49.0413 157.56L48.0453 157.499L47.0813 157.434L46.1468 157.365L45.2394 157.292L44.3571 157.215L43.4981 157.134L42.6608 157.049L41.844 156.96L41.0464 156.867L40.2669 156.77L39.5045 156.669L38.7583 156.564L38.0276 156.455L37.3115 156.342L36.6095 156.225L35.9209 156.104L35.2451 155.979L34.5817 155.85L33.9302 155.716L33.2901 155.579L32.661 155.437L32.0425 155.292L31.4344 155.142L30.8362 154.988L30.2477 154.831L29.6686 154.669L29.0986 154.502L28.5375 154.332L27.985 154.158L27.4409 153.979L26.905 153.796L26.3772 153.609L25.8571 153.418L25.3447 153.222L24.8398 153.023L24.3422 152.819L23.8518 152.611L23.3685 152.398L22.892 152.181L22.4224 151.96L21.9594 151.735L21.5029 151.505L21.0529 151.271L20.6092 151.032L20.1718 150.789L19.7405 150.542L19.3153 150.29L18.896 150.034L18.4827 149.773L18.0751 149.508L17.6733 149.238L17.2772 148.964L16.8866 148.685L16.5016 148.401L16.122 148.113L15.7479 147.82L15.3791 147.522L15.0156 147.22L14.6574 146.913L14.3043 146.601L13.9564 146.284L13.6136 145.962L13.2758 145.636L12.9431 145.304L12.6153 144.967L12.2925 144.626L11.9745 144.279L11.6614 143.927L11.3531 143.57L11.0495 143.208L10.7508 142.841L10.4567 142.468L10.1673 142.09L9.8826 141.706L9.60251 141.317L9.32702 140.922L9.05609 140.521L8.78972 140.115L8.52786 139.703L8.27051 139.285L8.01763 138.862L7.7692 138.432L7.52521 137.996L7.28562 137.554L7.05043 137.105L6.81961 136.65L6.59314 136.189L6.37101 135.721L6.15319 135.246L5.93968 134.764L5.73045 134.276L5.52549 133.78L5.32479 133.277L5.12833 132.766L4.93609 132.248L4.74807 131.722L4.56425 131.188L4.38461 130.646L4.20915 130.095L4.03786 129.536L3.87071 128.968L3.70771 128.391L3.54884 127.805L3.39409 127.209L3.24345 126.604L3.09692 125.988L2.95448 125.361L2.81612 124.724L2.68184 124.075L2.55163 123.414L2.42548 122.742L2.30338 122.056L2.18533 121.357L2.07132 120.645L1.96135 119.918L1.8554 119.175L1.75347 118.417L1.65555 117.641L1.56165 116.848L1.47176 116.036L1.38586 115.204L1.30396 114.35L1.22605 113.474L1.15213 112.572L1.08219 111.644L1.01623 110.688L0.954249 109.7L0.89624 108.677L0.842202 107.616L0.79213 106.513L0.746023 105.363L0.703879 104.158L0.665695 102.892L0.631469 101.553L0.6012 100.129L0.574886 98.5999L0.552526 96.9401L0.534119 95.1091L0.519663 93.0405L0.509158 90.6081L0.502604 87.5057L0.5 82.1527L0.501346 71.7563L0.506642 68.282L0.515888 65.6858L0.529085 63.5196L0.546234 61.622L0.567335 59.913L0.592389 58.3457L0.621398 56.8902L0.654364 55.5259L0.691286 54.2377L0.732169 53.0144L0.777013 51.8475L0.825822 50.73L0.878597 49.6564L0.935341 48.6221L0.996057 47.6233L1.06075 46.6569L1.12942 45.7202L1.20207 44.8107L1.27871 43.9264L1.35934 43.0656L1.44396 42.2267L1.53258 41.4083L1.62521 40.6092L1.72184 39.8283L1.82249 39.0646L1.92716 38.3171L2.03585 37.5852L2.14858 36.868L2.26534 36.1648L2.38615 35.4752L2.51101 34.7984L2.63992 34.134L2.77291 33.4816L2.90996 32.8406L3.0511 32.2106L3.19633 31.5913L3.34566 30.9824L3.4991 30.3835L3.65666 29.7942L3.81834 29.2144L3.98417 28.6436L4.15414 28.0818L4.32827 27.5286L4.50657 26.9839L4.68906 26.4474L4.87574 25.9189L5.06664 25.3982L5.26175 24.8852L5.4611 24.3797L5.6647 23.8815L5.87257 23.3906L6.08471 22.9066L6.30116 22.4297L6.52191 21.9595L6.747 21.4959L6.97643 21.039L7.21023 20.5884L7.44841 20.1443L7.691 19.7063L7.93801 19.2746L8.18947 18.8489L8.4454 18.4291L8.70582 18.0153L8.97075 17.6073L9.24022 17.205L9.51426 16.8084L9.79289 16.4174L10.0761 16.032L10.364 15.652L10.6566 15.2774L10.9539 14.9082L11.2559 14.5443L11.5626 14.1857L11.8742 13.8322L12.1906 13.4839L12.5119 13.1407L12.8381 12.8025L13.1693 12.4694L13.5055 12.1412L13.8467 11.8179L14.193 11.4996L14.5444 11.1861L14.9009 10.8774L15.2628 10.5735L15.6299 10.2743L16.0023 9.97989L16.3801 9.69014L16.7634 9.40505L17.1521 9.12459L17.5465 8.84873L17.9465 8.57744L18.3522 8.31071L18.7637 8.04849L19.1811 7.79078L19.6044 7.53754L20.0338 7.28876L20.4692 7.04441L20.9109 6.80448L21.3589 6.56894L21.8133 6.33777L22.2742 6.11095L22.7417 5.88848L23.216 5.67032L23.6971 5.45646L24.1852 5.2469L24.6805 5.0416L25.1831 4.84056L25.6931 4.64376L26.2107 4.45119L26.736 4.26283L27.2693 4.07867L27.8108 3.8987L28.3606 3.72291L28.9189 3.55128L29.4861 3.38381L30.0623 3.22048L30.6477 3.06128L31.2428 2.9062L31.8477 2.75524L32.4628 2.60838L33.0885 2.46561L33.725 2.32693L34.3729 2.19232L35.0325 2.06179L35.7042 1.93531L36.3887 1.8129L37.0864 1.69452L37.7979 1.58019L38.5239 1.46989L39.2651 1.36362L40.0223 1.26137L40.7962 1.16314L41.588 1.06892L42.3985 0.978706L43.2291 0.892491L44.081 0.810272L44.9557 0.732046L45.8549 0.657807L46.7806 0.587551L47.7349 0.521276L48.7204 0.458977L49.7401 0.400652L50.7976 0.346297L51.897 0.29591L53.0435 0.249487L54.2434 0.207027L55.5046 0.168528L56.837 0.133987L58.2541 0.103403L59.7739 0.0767744L61.4221 0.0540995L63.2374 0.0353773L65.2836 0.0206069L67.6797 0.00978751L70.7069 0.00291867L75.6387 0L86.392 0.00103136L89.9835 0.00601279L92.6262 0.0149445L94.8191 0.0278271L96.7345 0.044661L98.4566 0.0654472L100.034 0.0901868L101.497 0.118881L102.868 0.151531L104.162 0.188139L105.39 0.228706L106.561 0.273235L107.683 0.321727L108.76 0.374186L109.797 0.430614L110.798 0.491014L111.767 0.555389L112.706 0.623742L113.618 0.696077L114.504 0.772398L115.367 0.852709L116.207 0.937014L117.027 1.02532L117.828 1.11762L118.61 1.21394L119.375 1.31427L120.124 1.41862L120.857 1.52699L121.575 1.63939L122.28 1.75583L122.97 1.87632L123.648 2.00085L124.313 2.12945L124.967 2.26211L125.609 2.39884L126.24 2.53965L126.86 2.68456L127.469 2.83356L128.069 2.98667L128.659 3.1439L129.24 3.30525L129.811 3.47075L130.374 3.64039L130.928 3.81419L131.473 3.99216L132.01 4.17431L132.539 4.36066L133.061 4.55122L133.574 4.746L134.08 4.94501L134.579 5.14827L135.07 5.3558L135.555 5.5676L136.033 5.7837L136.503 6.00412L136.967 6.22886L137.425 6.45794L137.876 6.69139L138.32 6.92922L138.759 7.17146L139.191 7.41812L139.617 7.66923L140.038 7.9248L140.452 8.18486L140.86 8.44943L141.263 8.71854L141.66 8.99221L142.052 9.27047L142.437 9.55335L142.818 9.84086L143.193 10.1331L143.562 10.43L143.927 10.7316L144.286 11.038L144.64 11.3492L144.988 11.6652L145.332 11.9861L145.671 12.3119L146.004 12.6427L146.333 12.9785L146.656 13.3193L146.975 13.6651L147.289 14.0161L147.598 14.3723L147.902 14.7337L148.202 15.1004L148.497 15.4724L148.787 15.8498L149.072 16.2326L149.353 16.6209L149.629 17.0148L149.901 17.4144L150.168 17.8197L150.431 18.2307L150.689 18.6476L150.942 19.0704L151.191 19.4993L151.436 19.9343L151.676 20.3754L151.912 20.8229L152.144 21.2768L152.371 21.7372L152.594 22.2042L152.812 22.6779L153.027 23.1585L153.236 23.6461L153.442 24.1408L153.643 24.6427L153.841 25.1521L154.034 25.6691L154.222 26.1939L154.407 26.7265L154.587 27.2673L154.763 27.8164L154.935 28.3741L155.103 28.9405L155.267 29.516L155.426 30.1007L155.581 30.695L155.733 31.2991L155.88 31.9134L156.023 32.5382L156.162 33.1739L156.297 33.8208L156.428 34.4795L156.555 35.1502L156.677 35.8337L156.796 36.5303L156.911 37.2407L157.021 37.9655L157.128 38.7055L157.231 39.4613L157.329 40.2339L157.424 41.0242L157.514 41.8332L157.601 42.6621L157.683 43.5123L157.762 44.3851L157.836 45.2823L157.907 46.2058L157.973 47.1577L158.036 48.1407L158.095 49.1575L158.149 50.2118L158.2 51.3078L158.247 52.4503L158.29 53.6457L158.328 54.9016L158.363 56.228L158.394 57.6378L158.421 59.1486L158.444 60.7853L158.463 62.5854L158.478 64.61L158.489 66.9714L158.497 69.9287L158.5 74.5413L158.5 78.9999Z" fill="#08033D"></path> <path fill-rule="evenodd" clip-rule="evenodd" d="M82.9427 45.785C80.4513 44.3496 77.3829 44.3496 74.8916 45.785L51.763 59.1111C49.2708 60.547 47.7316 63.2036 47.7316 66.0828L47.7316 92.7349C47.7316 95.6141 49.2708 98.2706 51.763 99.7066L74.8916 113.033C77.3829 114.468 80.4513 114.468 82.9427 113.033L106.071 99.7066C108.563 98.2706 110.103 95.6141 110.103 92.7349V66.0828C110.103 63.2036 108.563 60.547 106.071 59.1111L82.9427 45.785ZM73.0199 42.5768C76.6688 40.4744 81.1655 40.4744 84.8143 42.5768L107.943 55.9028C111.591 58.0047 113.834 61.8863 113.834 66.0828V92.7349C113.834 96.9314 111.591 100.813 107.943 102.915L84.8143 116.241C81.1655 118.343 76.6688 118.343 73.0199 116.241L49.8913 102.915C46.2434 100.813 44 96.9314 44 92.7349L44 66.0828C44 61.8863 46.2434 58.0047 49.8913 55.9028L73.0199 42.5768Z" fill="#E4253F"></path> <path d="M70.9059 85.0547C68.9016 85.0547 67.2773 86.6784 67.2773 88.6828C67.2773 90.6874 68.9016 92.3111 70.9059 92.3111C72.9109 92.3111 74.5348 90.6874 74.5348 88.6828C74.5348 86.6784 72.9109 85.0547 70.9059 85.0547ZM70.9059 90.2602C70.0346 90.2602 69.3286 89.5541 69.3286 88.6828C69.3286 87.8112 70.0346 87.1055 70.9059 87.1055C71.7773 87.1055 72.4838 87.8112 72.4838 88.6828C72.4838 89.5541 71.7773 90.2602 70.9059 90.2602Z" fill="white"></path> <path d="M90.0396 85.0547C88.0353 85.0547 86.4111 86.6784 86.4111 88.6828C86.4111 90.6874 88.0353 92.3111 90.0396 92.3111C92.0447 92.3111 93.6685 90.6874 93.6685 88.6828C93.6685 86.6784 92.0447 85.0547 90.0396 85.0547ZM90.0396 90.2602C89.1683 90.2602 88.4624 89.5541 88.4624 88.6828C88.4624 87.8112 89.1683 87.1055 90.0396 87.1055C90.9111 87.1055 91.6176 87.8112 91.6176 88.6828C91.6176 89.5541 90.9111 90.2602 90.0396 90.2602Z" fill="white"></path> <path d="M74.9884 73.9061C74.9884 74.4146 74.5724 74.8305 74.064 74.8305H61.3081C60.7996 74.8305 60.3838 74.4146 60.3838 73.9061V73.3515C60.3838 72.8432 60.7997 72.4272 61.3081 72.4272H74.064C74.5725 72.4272 74.9884 72.8432 74.9884 73.3515V73.9061V73.9061Z" fill="white"></path> <path d="M97.1497 79.3179C95.8192 78.972 95.0579 78.7545 94.5354 77.7456L92.7885 74.2086C92.2659 73.1997 90.9085 72.3741 89.7725 72.3741H87.3832C87.3832 72.3741 87.0618 72.3808 87.0618 72.0573C87.0618 71.3157 87.0618 69.0909 87.0618 69.0909C87.0618 67.9409 86.411 67 85.0267 67H65.5536C63.5718 67 62.6309 67.941 62.6309 69.0909V70.9499C62.6309 70.9499 62.6309 71.5028 63.166 71.5028C65.8903 71.5028 74.0633 71.5028 74.0633 71.5028C75.0827 71.5028 75.912 72.332 75.912 73.3514V73.9061C75.912 74.9255 75.0827 75.7547 74.0633 75.7547H63.166C63.166 75.7547 62.6309 75.7102 62.6309 76.2879C62.6309 76.5748 62.6309 76.7674 62.6309 76.9272C62.6309 77.4356 63.3277 77.4353 63.3277 77.4353H70.6632C71.6826 77.4353 72.512 78.2647 72.512 79.284V79.8386C72.512 80.858 71.6826 81.6872 70.6632 81.6872H63.4435C63.4435 81.6872 62.6309 81.6722 62.6309 82.3192C62.6309 83.4423 62.6309 86.8113 62.6309 86.8113C62.6309 87.9611 63.5718 88.9021 64.7217 88.9021C64.7217 88.9021 65.5879 88.9021 65.8767 88.9021C66.1386 88.9021 66.1772 88.7563 66.1772 88.683C66.1772 86.0759 68.2984 83.9552 70.9056 83.9552C73.5129 83.9552 75.634 86.0761 75.634 88.683C75.634 88.7566 75.6131 88.9021 75.8134 88.9021C78.1028 88.9021 85.1339 88.9021 85.1339 88.9021C85.3187 88.9021 85.3112 88.7464 85.3112 88.683C85.3112 86.0759 87.4323 83.9552 90.0395 83.9552C92.6468 83.9552 94.7679 86.0761 94.7679 88.683C94.7679 88.7566 94.7661 88.9021 94.8817 88.9021C95.9315 88.9021 97.2316 88.9021 97.2316 88.9021C98.3682 88.9021 99.2978 87.9725 99.2978 86.836V82.9107C99.2979 79.605 98.2541 79.605 97.1497 79.3179ZM93.218 79.134C93.218 79.134 88.8302 79.134 87.3369 79.134C87.0939 79.134 87.0616 78.8975 87.0616 78.8975V73.9984C87.0616 73.9984 87.0479 73.8103 87.3599 73.8103C87.7795 73.8103 89.038 73.8103 89.038 73.8103C90.0491 73.8103 91.2568 74.5449 91.7217 75.4427L93.2762 78.59C93.3417 78.7167 93.4117 78.8291 93.4866 78.93C93.5418 79.0039 93.4492 79.134 93.218 79.134Z" fill="white"></path> <path d="M71.5877 79.8388C71.5877 80.3472 71.1718 80.7631 70.6635 80.7631H58.9243C58.4158 80.7631 58 80.3472 58 79.8388V79.2841C58 78.7758 58.4159 78.3599 58.9243 78.3599H70.6635C71.1719 78.3599 71.5877 78.7758 71.5877 79.2841V79.8388Z" fill="white"></path> </svg> 