<?xml version="1.0" encoding="UTF-8"?> <svg xmlns="http://www.w3.org/2000/svg" width="158" height="158" viewBox="0 0 158 158" fill="none"> <path d="M88.8335 61.6582H65.5117V93.0919H67.5397V63.6862H88.8335V61.6582Z" fill="white"></path> <path fill-rule="evenodd" clip-rule="evenodd" d="M158 78.9999L157.998 86.8999L157.992 90.1719L157.982 92.6821L157.968 94.7979L157.951 96.6612L157.929 98.3451L157.903 99.8929L157.874 101.333L157.84 102.684L157.802 103.961L157.761 105.175L157.715 106.334L157.666 107.444L157.613 108.511L157.555 109.539L157.494 110.533L157.429 111.494L157.359 112.426L157.286 113.332L157.209 114.212L157.127 115.069L157.042 115.905L156.953 116.72L156.86 117.516L156.762 118.294L156.661 119.055L156.556 119.8L156.446 120.53L156.333 121.245L156.216 121.946L156.094 122.633L155.969 123.308L155.839 123.971L155.705 124.621L155.568 125.26L155.426 125.889L155.28 126.506L155.13 127.114L154.976 127.711L154.818 128.299L154.655 128.877L154.489 129.446L154.318 130.007L154.144 130.559L153.965 131.102L153.781 131.637L153.594 132.164L153.403 132.684L153.207 133.196L153.007 133.7L152.802 134.197L152.594 134.687L152.381 135.17L152.164 135.646L151.942 136.115L151.717 136.577L151.487 137.033L151.252 137.483L151.013 137.926L150.77 138.363L150.522 138.794L150.27 139.218L150.013 139.637L149.752 140.05L149.487 140.457L149.216 140.858L148.942 141.254L148.662 141.644L148.378 142.029L148.09 142.408L147.796 142.782L147.498 143.15L147.196 143.513L146.888 143.871L146.576 144.224L146.258 144.571L145.936 144.913L145.609 145.251L145.277 145.583L144.94 145.911L144.598 146.233L144.251 146.551L143.899 146.863L143.542 147.171L143.179 147.474L142.811 147.773L142.438 148.066L142.059 148.355L141.675 148.64L141.285 148.92L140.89 149.195L140.489 149.465L140.083 149.731L139.67 149.993L139.252 150.25L138.828 150.502L138.397 150.75L137.961 150.994L137.518 151.233L137.069 151.468L136.614 151.699L136.152 151.925L135.683 152.146L135.208 152.364L134.726 152.577L134.236 152.786L133.74 152.991L133.236 153.191L132.725 153.387L132.206 153.579L131.68 153.767L131.145 153.95L130.602 154.129L130.051 154.305L129.491 154.476L128.923 154.642L128.345 154.805L127.758 154.964L127.161 155.118L126.555 155.268L125.938 155.415L125.311 155.557L124.672 155.695L124.023 155.829L123.361 155.959L122.688 156.084L122.001 156.206L121.301 156.324L120.587 156.438L119.859 156.547L119.115 156.653L118.356 156.754L117.579 156.852L116.784 156.946L115.971 157.035L115.137 157.121L114.281 157.202L113.403 157.28L112.499 157.354L111.569 157.423L110.61 157.489L109.62 157.55L108.594 157.608L107.53 157.662L106.424 157.712L105.269 157.757L104.06 157.799L102.788 157.837L101.443 157.871L100.011 157.901L98.4729 157.927L96.8012 157.949L94.9543 157.967L92.8625 157.981L90.3921 157.991L87.2084 157.998L81.2293 158L71.4211 157.998L68.0527 157.993L65.5006 157.983L63.36 157.97L61.4798 157.952L59.7835 157.931L58.2261 157.905L56.7785 157.876L55.4207 157.843L54.138 157.806L52.9196 157.764L51.7568 157.719L50.643 157.67L49.5726 157.617L48.5413 157.56L47.5453 157.499L46.5813 157.434L45.6468 157.365L44.7394 157.292L43.8571 157.215L42.9981 157.134L42.1608 157.049L41.344 156.96L40.5464 156.867L39.7669 156.77L39.0045 156.669L38.2583 156.564L37.5276 156.455L36.8115 156.342L36.1095 156.225L35.4209 156.104L34.7451 155.979L34.0817 155.85L33.4302 155.716L32.7901 155.579L32.161 155.437L31.5425 155.292L30.9344 155.142L30.3362 154.988L29.7477 154.831L29.1686 154.669L28.5986 154.502L28.0375 154.332L27.485 154.158L26.9409 153.979L26.405 153.796L25.8772 153.609L25.3571 153.418L24.8447 153.222L24.3398 153.023L23.8422 152.819L23.3518 152.611L22.8685 152.398L22.392 152.181L21.9224 151.96L21.4594 151.735L21.0029 151.505L20.5529 151.271L20.1092 151.032L19.6718 150.789L19.2405 150.542L18.8153 150.29L18.396 150.034L17.9827 149.773L17.5751 149.508L17.1733 149.238L16.7772 148.964L16.3866 148.685L16.0016 148.401L15.622 148.113L15.2479 147.82L14.8791 147.522L14.5156 147.22L14.1574 146.913L13.8043 146.601L13.4564 146.284L13.1136 145.962L12.7758 145.636L12.4431 145.304L12.1153 144.967L11.7925 144.626L11.4745 144.279L11.1614 143.927L10.8531 143.57L10.5495 143.208L10.2508 142.841L9.9567 142.468L9.66733 142.09L9.3826 141.706L9.10251 141.317L8.82702 140.922L8.55609 140.521L8.28972 140.115L8.02786 139.703L7.77051 139.285L7.51763 138.862L7.2692 138.432L7.02521 137.996L6.78562 137.554L6.55043 137.105L6.31961 136.65L6.09314 136.189L5.87101 135.721L5.65319 135.246L5.43968 134.764L5.23045 134.276L5.02549 133.78L4.82479 133.277L4.62833 132.766L4.43609 132.248L4.24807 131.722L4.06425 131.188L3.88461 130.646L3.70915 130.095L3.53786 129.536L3.37071 128.968L3.20771 128.391L3.04884 127.805L2.89409 127.209L2.74345 126.604L2.59692 125.988L2.45448 125.361L2.31612 124.724L2.18184 124.075L2.05163 123.414L1.92548 122.742L1.80338 122.056L1.68533 121.357L1.57132 120.645L1.46135 119.918L1.3554 119.175L1.25347 118.417L1.15555 117.641L1.06165 116.848L0.971756 116.036L0.88586 115.204L0.803959 114.35L0.72605 113.474L0.652128 112.572L0.58219 111.644L0.516232 110.688L0.454249 109.7L0.39624 108.677L0.342202 107.616L0.29213 106.513L0.246023 105.363L0.203879 104.158L0.165695 102.892L0.131469 101.553L0.1012 100.129L0.0748865 98.5999L0.0525263 96.9401L0.0341189 95.1091L0.0196631 93.0405L0.00915838 90.6081L0.00260411 87.5057L0 82.1527L0.00134591 71.7563L0.0066419 68.282L0.0158882 65.6858L0.0290854 63.5196L0.046234 61.622L0.067335 59.913L0.0923894 58.3457L0.121398 56.8902L0.154364 55.5259L0.191286 54.2377L0.232169 53.0144L0.277013 51.8475L0.325822 50.73L0.378597 49.6564L0.435341 48.6221L0.496057 47.6233L0.560748 46.6569L0.629419 45.7202L0.702071 44.8107L0.77871 43.9264L0.859338 43.0656L0.943961 42.2267L1.03258 41.4083L1.12521 40.6092L1.22184 39.8283L1.32249 39.0646L1.42716 38.3171L1.53585 37.5852L1.64858 36.868L1.76534 36.1648L1.88615 35.4752L2.01101 34.7984L2.13992 34.134L2.27291 33.4816L2.40996 32.8406L2.5511 32.2106L2.69633 31.5913L2.84566 30.9824L2.9991 30.3835L3.15666 29.7942L3.31834 29.2144L3.48417 28.6436L3.65414 28.0818L3.82827 27.5286L4.00657 26.9839L4.18906 26.4474L4.37574 25.9189L4.56664 25.3982L4.76175 24.8852L4.9611 24.3797L5.1647 23.8815L5.37257 23.3906L5.58471 22.9066L5.80116 22.4297L6.02191 21.9595L6.247 21.4959L6.47643 21.039L6.71023 20.5884L6.94841 20.1443L7.191 19.7063L7.43801 19.2746L7.68947 18.8489L7.9454 18.4291L8.20582 18.0153L8.47075 17.6073L8.74022 17.205L9.01426 16.8084L9.29289 16.4174L9.57613 16.032L9.86402 15.652L10.1566 15.2774L10.4539 14.9082L10.7559 14.5443L11.0626 14.1857L11.3742 13.8322L11.6906 13.4839L12.0119 13.1407L12.3381 12.8025L12.6693 12.4694L13.0055 12.1412L13.3467 11.8179L13.693 11.4996L14.0444 11.1861L14.4009 10.8774L14.7628 10.5735L15.1299 10.2743L15.5023 9.97989L15.8801 9.69014L16.2634 9.40505L16.6521 9.12459L17.0465 8.84873L17.4465 8.57744L17.8522 8.31071L18.2637 8.04849L18.6811 7.79078L19.1044 7.53754L19.5338 7.28876L19.9692 7.04441L20.4109 6.80448L20.8589 6.56894L21.3133 6.33777L21.7742 6.11095L22.2417 5.88848L22.716 5.67032L23.1971 5.45646L23.6852 5.2469L24.1805 5.0416L24.6831 4.84056L25.1931 4.64376L25.7107 4.45119L26.236 4.26283L26.7693 4.07867L27.3108 3.8987L27.8606 3.72291L28.4189 3.55128L28.9861 3.38381L29.5623 3.22048L30.1477 3.06128L30.7428 2.9062L31.3477 2.75524L31.9628 2.60838L32.5885 2.46561L33.225 2.32693L33.8729 2.19232L34.5325 2.06179L35.2042 1.93531L35.8887 1.8129L36.5864 1.69452L37.2979 1.58019L38.0239 1.46989L38.7651 1.36362L39.5223 1.26137L40.2962 1.16314L41.088 1.06892L41.8985 0.978706L42.7291 0.892491L43.581 0.810272L44.4557 0.732046L45.3549 0.657807L46.2806 0.587551L47.2349 0.521276L48.2204 0.458977L49.2401 0.400652L50.2976 0.346297L51.397 0.29591L52.5435 0.249487L53.7434 0.207027L55.0046 0.168528L56.337 0.133987L57.7541 0.103403L59.2739 0.0767744L60.9221 0.0540995L62.7374 0.0353773L64.7836 0.0206069L67.1797 0.00978751L70.2069 0.00291867L75.1387 0L85.892 0.00103136L89.4835 0.00601279L92.1262 0.0149445L94.3191 0.0278271L96.2345 0.044661L97.9566 0.0654472L99.5338 0.0901868L100.997 0.118881L102.368 0.151531L103.662 0.188139L104.89 0.228706L106.061 0.273235L107.183 0.321727L108.26 0.374186L109.297 0.430614L110.298 0.491014L111.267 0.555389L112.206 0.623742L113.118 0.696077L114.004 0.772398L114.867 0.852709L115.707 0.937014L116.527 1.02532L117.328 1.11762L118.11 1.21394L118.875 1.31427L119.624 1.41862L120.357 1.52699L121.075 1.63939L121.78 1.75583L122.47 1.87632L123.148 2.00085L123.813 2.12945L124.467 2.26211L125.109 2.39884L125.74 2.53965L126.36 2.68456L126.969 2.83356L127.569 2.98667L128.159 3.1439L128.74 3.30525L129.311 3.47075L129.874 3.64039L130.428 3.81419L130.973 3.99216L131.51 4.17431L132.039 4.36066L132.561 4.55122L133.074 4.746L133.58 4.94501L134.079 5.14827L134.57 5.3558L135.055 5.5676L135.533 5.7837L136.003 6.00412L136.467 6.22886L136.925 6.45794L137.376 6.69139L137.82 6.92922L138.259 7.17146L138.691 7.41812L139.117 7.66923L139.538 7.9248L139.952 8.18486L140.36 8.44943L140.763 8.71854L141.16 8.99221L141.552 9.27047L141.937 9.55335L142.318 9.84086L142.693 10.1331L143.062 10.43L143.427 10.7316L143.786 11.038L144.14 11.3492L144.488 11.6652L144.832 11.9861L145.171 12.3119L145.504 12.6427L145.833 12.9785L146.156 13.3193L146.475 13.6651L146.789 14.0161L147.098 14.3723L147.402 14.7337L147.702 15.1004L147.997 15.4724L148.287 15.8498L148.572 16.2326L148.853 16.6209L149.129 17.0148L149.401 17.4144L149.668 17.8197L149.931 18.2307L150.189 18.6476L150.442 19.0704L150.691 19.4993L150.936 19.9343L151.176 20.3754L151.412 20.8229L151.644 21.2768L151.871 21.7372L152.094 22.2042L152.312 22.6779L152.527 23.1585L152.736 23.6461L152.942 24.1408L153.143 24.6427L153.341 25.1521L153.534 25.6691L153.722 26.1939L153.907 26.7265L154.087 27.2673L154.263 27.8164L154.435 28.3741L154.603 28.9405L154.767 29.516L154.926 30.1007L155.081 30.695L155.233 31.2991L155.38 31.9134L155.523 32.5382L155.662 33.1739L155.797 33.8208L155.928 34.4795L156.055 35.1502L156.177 35.8337L156.296 36.5303L156.411 37.2407L156.521 37.9655L156.628 38.7055L156.731 39.4613L156.829 40.2339L156.924 41.0242L157.014 41.8332L157.101 42.6621L157.183 43.5123L157.262 44.3851L157.336 45.2823L157.407 46.2058L157.473 47.1577L157.536 48.1407L157.595 49.1575L157.649 50.2118L157.7 51.3078L157.747 52.4503L157.79 53.6457L157.828 54.9016L157.863 56.228L157.894 57.6378L157.921 59.1486L157.944 60.7853L157.963 62.5854L157.978 64.61L157.989 66.9714L157.997 69.9287L158 74.5413L158 78.9999Z" fill="#08033D"></path> <path fill-rule="evenodd" clip-rule="evenodd" d="M82.6175 45.8905C80.1261 44.455 77.0577 44.455 74.5664 45.8905L51.4378 59.2165C48.9456 60.6525 47.4064 63.3091 47.4064 66.1882L47.4064 92.8404C47.4064 95.7195 48.9456 98.3761 51.4378 99.8121L74.5664 113.138C77.0577 114.574 80.1261 114.574 82.6175 113.138L105.746 99.8121C108.238 98.3761 109.777 95.7195 109.777 92.8404V66.1882C109.777 63.3091 108.238 60.6525 105.746 59.2166L82.6175 45.8905ZM72.6947 42.6823C76.3436 40.5799 80.8403 40.5799 84.4891 42.6823L107.618 56.0083C111.266 58.1102 113.509 61.9918 113.509 66.1882V92.8404C113.509 97.0369 111.266 100.918 107.618 103.02L84.4891 116.346C80.8403 118.449 76.3436 118.449 72.6947 116.346L49.5661 103.02C45.9182 100.918 43.6748 97.0369 43.6748 92.8404L43.6748 66.1882C43.6748 61.9918 45.9182 58.1102 49.5661 56.0083L72.6947 42.6823Z" fill="#E4253F"></path> <path d="M91.1875 76.1875H87.4375V70.5625H70.5625V76.1875H66.8125V79.9375H63V91.25H69.625V93.125H66.8125V95H74.3125V93.125H71.5V91.25H78.0625V79.9375H68.6875V78.0625H89.3125V79.9375H79.9375V91.25H86.5V93.125H83.6875V95H91.1875V93.125H88.375V91.25H95V79.9375H91.1875V76.1875Z" fill="white"></path> <path d="M77.5132 63H70.5625V68.6875H87.4375V64.875H79.3882L77.5132 63Z" fill="white"></path> </svg> 