<?xml version="1.0" encoding="UTF-8"?> <svg xmlns="http://www.w3.org/2000/svg" width="179" height="236" viewBox="0 0 179 236" fill="none"> <path d="M88.361 7.22506C90.1417 6.47304 90.9757 4.41986 90.2237 2.63914C89.4716 0.858427 87.4185 0.0245019 85.6377 0.776518L88.361 7.22506ZM177.161 212.618C178.567 211.292 178.632 209.077 177.306 207.671L155.694 184.754C154.368 183.348 152.153 183.283 150.746 184.609C149.34 185.935 149.275 188.151 150.601 189.557L169.812 209.927L149.442 229.138C148.035 230.464 147.971 232.679 149.297 234.085C150.623 235.492 152.838 235.557 154.244 234.23L177.161 212.618ZM85.6377 0.776518C22.0102 27.6471 -9.63255 79.047 2.71192 125.533C15.044 171.972 70.5184 210.52 174.657 213.571L174.862 206.574C71.7406 203.552 20.5852 165.564 9.47743 123.736C-1.618 81.9539 26.4892 33.3542 88.361 7.22506L85.6377 0.776518Z" fill="url(#paint0_linear)"></path> <defs> <linearGradient id="paint0_linear" x1="259.838" y1="316.525" x2="156.837" y2="-18.9499" gradientUnits="userSpaceOnUse"> <stop stop-color="white"></stop> <stop offset="1" stop-color="white" stop-opacity="0"></stop> </linearGradient> </defs> </svg> 