<?xml version="1.0" encoding="UTF-8"?> <svg xmlns="http://www.w3.org/2000/svg" width="66" height="73" viewBox="0 0 66 73" fill="none"> <path fill-rule="evenodd" clip-rule="evenodd" d="M36.8447 4.51608C34.4934 3.16131 31.5974 3.16131 29.2461 4.51608L7.4175 17.0931C5.06534 18.4484 3.61269 20.9557 3.61269 23.673L3.61268 48.8271C3.61268 51.5444 5.06534 54.0517 7.4175 55.407L29.2461 67.984C31.5974 69.3388 34.4934 69.3388 36.8447 67.984L58.6733 55.407C61.0255 54.0517 62.4781 51.5444 62.4781 48.8271V23.673C62.4781 20.9557 61.0255 18.4484 58.6733 17.0931L36.8447 4.51608ZM27.4797 1.48816C30.9235 -0.496054 35.1674 -0.496054 38.6112 1.48816L60.4398 14.0652C63.8827 16.049 66 19.7124 66 23.673V48.8271C66 52.7877 63.8827 56.4511 60.4398 58.4349L38.6112 71.0119C35.1674 72.9962 30.9235 72.9962 27.4797 71.0119L5.65104 58.4349C2.2081 56.4511 0.0908202 52.7877 0.0908203 48.8271L0.0908214 23.673C0.0908216 19.7124 2.2081 16.049 5.65104 14.0652L27.4797 1.48816Z" fill="#E4253F"></path> <path d="M44.5144 16.5H18.2412V51.9117H20.5258V18.7846H44.5144V16.5Z" fill="#E4253F"></path> <path d="M22.8105 21.0693V55.3387H38.8029V46.2002H47.9414V21.0693H22.8105ZM35.376 46.2002H27.3798V43.9156H35.376V46.2002ZM43.3722 41.6309H27.3798V39.3463H43.3722V41.6309ZM43.3722 37.0617H27.3798V34.7771H43.3722V37.0617ZM43.3722 32.4925H27.3798V30.2078H43.3722V32.4925ZM43.3722 27.9232H27.3798V25.6386H43.3722V27.9232Z" fill="#090446"></path> <path d="M41.0869 54.6696L47.2716 48.4849H41.0869V54.6696Z" fill="#090446"></path> </svg> 