<?xml version="1.0" encoding="UTF-8"?> <svg xmlns="http://www.w3.org/2000/svg" width="65" height="72" viewBox="0 0 65 72" fill="none"> <path fill-rule="evenodd" clip-rule="evenodd" d="M36.2469 4.45378C33.928 3.11771 31.072 3.11771 28.7531 4.45378L7.22561 16.8573C4.9059 18.1939 3.47328 20.6666 3.47328 23.3464L3.47328 48.1536C3.47328 50.8334 4.9059 53.3061 7.22561 54.6427L28.7531 67.0462C31.072 68.3823 33.928 68.3823 36.2469 67.0462L57.7744 54.6427C60.0941 53.3061 61.5267 50.8334 61.5267 48.1536V23.3464C61.5267 20.6666 60.0941 18.1939 57.7744 16.8573L36.2469 4.45378ZM27.011 1.46763C30.4073 -0.489211 34.5927 -0.489211 37.989 1.46763L59.5165 13.8712C62.9119 15.8276 65 19.4404 65 23.3464V48.1536C65 52.0596 62.9119 55.6724 59.5165 57.6288L37.989 70.0324C34.5927 71.9892 30.4073 71.9892 27.011 70.0324L5.48352 57.6288C2.08807 55.6724 -1.18299e-07 52.0596 0 48.1536L1.06469e-06 23.3464C1.30129e-06 19.4404 2.08807 15.8276 5.48352 13.8712L27.011 1.46763Z" fill="#E4253F"></path> <path d="M49.012 31.5124C49.012 22.4072 41.6044 15 32.499 15C23.3939 15 15.9863 22.4072 15.9863 31.5124C15.9863 40.6172 23.3939 48.0244 32.499 48.0244C41.6044 48.0244 49.012 40.6172 49.012 31.5124ZM29.5555 38.5561L23.9178 32.9184L25.6267 31.2099L29.5555 35.1387L39.3716 25.3229L41.0805 27.0314L29.5555 38.5561Z" fill="#090446"></path> <path d="M17.2389 42.697L12.2402 49.9876L19.6306 48.6094L21.0088 56L25.6896 49.173C22.2913 47.8583 19.3647 45.5898 17.2389 42.697Z" fill="#E4253F"></path> <path d="M47.7584 42.697C45.6325 45.5898 42.7059 47.8583 39.3076 49.173L43.9884 56L45.3667 48.6094L52.757 49.9876L47.7584 42.697Z" fill="#E4253F"></path> </svg> 