<?xml version="1.0" encoding="UTF-8"?> <svg xmlns="http://www.w3.org/2000/svg" width="66" height="73" viewBox="0 0 66 73" fill="none"> <path fill-rule="evenodd" clip-rule="evenodd" d="M36.8447 4.51608C34.4934 3.16131 31.5974 3.16131 29.2461 4.51608L7.4175 17.0931C5.06534 18.4484 3.61269 20.9557 3.61269 23.673L3.61268 48.8271C3.61268 51.5444 5.06534 54.0517 7.4175 55.407L29.2461 67.984C31.5974 69.3388 34.4934 69.3388 36.8447 67.984L58.6733 55.407C61.0255 54.0517 62.4781 51.5444 62.4781 48.8271V23.673C62.4781 20.9557 61.0255 18.4484 58.6733 17.0931L36.8447 4.51608ZM27.4797 1.48816C30.9235 -0.496054 35.1674 -0.496054 38.6112 1.48816L60.4398 14.0652C63.8827 16.049 66 19.7124 66 23.673V48.8271C66 52.7877 63.8827 56.4511 60.4398 58.4349L38.6112 71.0119C35.1674 72.9962 30.9235 72.9962 27.4797 71.0119L5.65104 58.4349C2.2081 56.4511 0.0908202 52.7877 0.0908203 48.8271L0.0908214 23.673C0.0908216 19.7124 2.2081 16.049 5.65104 14.0652L27.4797 1.48816Z" fill="#E4253F"></path> <g clip-path="url(#clip0)"> <path d="M20.6603 21.3665C20.6593 21.3665 20.6581 21.3665 20.6571 21.3665C20.3072 21.3665 19.9781 21.5029 19.7295 21.7508C19.4783 22.0014 19.3398 22.3352 19.3398 22.6905V42.5441C19.3398 43.2722 19.9345 43.8659 20.6655 43.8678C23.7473 43.8751 28.9107 44.5174 32.4726 48.245V27.4676C32.4726 27.2208 32.4096 26.989 32.2906 26.7971C29.3671 22.089 23.7491 21.3737 20.6603 21.3665Z" fill="#090446"></path> <path d="M47.661 42.544V22.6902C47.661 22.3349 47.5226 22.0012 47.2713 21.7505C47.0228 21.5026 46.6934 21.3662 46.3438 21.3662C46.3427 21.3662 46.3416 21.3662 46.3406 21.3662C43.2519 21.3736 37.6338 22.0889 34.7102 26.797C34.5912 26.9889 34.5283 27.2207 34.5283 27.4675V48.2447C38.0903 44.5172 43.2536 43.8749 46.3355 43.8675C47.0664 43.8656 47.661 43.2719 47.661 42.544Z" fill="#090446"></path> <path d="M50.6763 25.9448H49.7163V42.5439C49.7163 44.4028 48.2018 45.9185 46.3401 45.9231C43.7261 45.9294 39.4159 46.4405 36.3633 49.3297C41.6427 48.037 47.2082 48.8773 50.38 49.6001C50.776 49.6903 51.1853 49.5971 51.5026 49.3442C51.8187 49.092 52.0001 48.7149 52.0001 48.3101V27.2686C52.0003 26.5387 51.4063 25.9448 50.6763 25.9448Z" fill="#E4253F"></path> <path d="M17.2838 42.5439V25.9448H16.3238C15.594 25.9448 15 26.5387 15 27.2686V48.3097C15 48.7146 15.1814 49.0916 15.4976 49.3439C15.8146 49.5966 16.2235 49.6902 16.6202 49.5997C19.792 48.8768 25.3575 48.0366 30.6367 49.3293C27.5843 46.4403 23.2741 45.9293 20.66 45.923C18.7984 45.9185 17.2838 44.4028 17.2838 42.5439Z" fill="#E4253F"></path> </g> <defs> <clipPath id="clip0"> <rect width="37" height="37" fill="white" transform="translate(15 17)"></rect> </clipPath> </defs> </svg> 