<?xml version="1.0" encoding="UTF-8"?> <svg xmlns="http://www.w3.org/2000/svg" width="65" height="72" viewBox="0 0 65 72" fill="none"> <path fill-rule="evenodd" clip-rule="evenodd" d="M36.2469 4.45378C33.928 3.11771 31.072 3.11771 28.7531 4.45378L7.22561 16.8573C4.9059 18.1939 3.47328 20.6666 3.47328 23.3464L3.47328 48.1536C3.47328 50.8334 4.9059 53.3061 7.22561 54.6427L28.7531 67.0462C31.072 68.3823 33.928 68.3823 36.2469 67.0462L57.7744 54.6427C60.0941 53.3061 61.5267 50.8334 61.5267 48.1536V23.3464C61.5267 20.6666 60.0941 18.1939 57.7744 16.8573L36.2469 4.45378ZM27.011 1.46763C30.4073 -0.489211 34.5927 -0.489211 37.989 1.46763L59.5165 13.8712C62.9119 15.8276 65 19.4404 65 23.3464V48.1536C65 52.0596 62.9119 55.6724 59.5165 57.6288L37.989 70.0324C34.5927 71.9892 30.4073 71.9892 27.011 70.0324L5.48352 57.6288C2.08807 55.6724 -1.18299e-07 52.0596 0 48.1536L1.06469e-06 23.3464C1.30129e-06 19.4404 2.08807 15.8276 5.48352 13.8712L27.011 1.46763Z" fill="#E4253F"></path> <path d="M17 31.625L31.9265 41.1246C32.097 41.2505 32.2985 41.3125 32.5 41.3125C32.7015 41.3125 32.903 41.2505 33.0735 41.1246L48 31.625L33.0813 20.1938C32.7364 19.9361 32.2636 19.9361 31.9187 20.1938L17 31.625Z" fill="#0A0F34"></path> <path d="M42.1875 20H22.8125C21.7449 20 20.875 20.8699 20.875 21.9375V43.25C20.875 43.7847 21.309 44.2188 21.8438 44.2188H43.1562C43.691 44.2188 44.125 43.7847 44.125 43.25V21.9375C44.125 20.8699 43.257 20 42.1875 20Z" fill="#0A0F34"></path> <path d="M25.7188 25.8125H39.2812C39.816 25.8125 40.25 25.3785 40.25 24.8438C40.25 24.309 39.816 23.875 39.2812 23.875H25.7188C25.184 23.875 24.75 24.309 24.75 24.8438C24.75 25.3785 25.184 25.8125 25.7188 25.8125Z" fill="white"></path> <path d="M39.2812 27.75H25.7188C25.184 27.75 24.75 28.184 24.75 28.7188C24.75 29.2535 25.184 29.6875 25.7188 29.6875H39.2812C39.816 29.6875 40.25 29.2535 40.25 28.7188C40.25 28.184 39.816 27.75 39.2812 27.75Z" fill="white"></path> <path d="M33.4688 31.625H25.7188C25.184 31.625 24.75 32.059 24.75 32.5938C24.75 33.1285 25.184 33.5625 25.7188 33.5625H33.4688C34.0035 33.5625 34.4375 33.1285 34.4375 32.5938C34.4375 32.059 34.0035 31.625 33.4688 31.625Z" fill="white"></path> <path d="M33.0735 41.1246C32.903 41.2505 32.7015 41.3125 32.5 41.3125C32.2985 41.3125 32.097 41.2505 31.9265 41.1246L17 31.625V49.0625C17 50.132 17.868 51 18.9375 51H46.0625C47.132 51 48 50.132 48 49.0625V31.625L33.0735 41.1246Z" fill="#E4253F"></path> <path d="M46.0625 51H18.9375C17.8506 51 17 50.1494 17 49.0625C17 48.7544 17.1472 48.4638 17.3952 48.2817L31.9265 38.5942C32.097 38.4683 32.2985 38.4062 32.5 38.4062C32.7015 38.4062 32.903 38.4683 33.0735 38.5942L47.6047 48.2817C47.8527 48.4638 48 48.7544 48 49.0625C48 50.1494 47.1494 51 46.0625 51Z" fill="#0A0F34"></path> </svg> 