<?xml version="1.0" encoding="UTF-8"?> <svg xmlns="http://www.w3.org/2000/svg" width="1367" height="1511" viewBox="0 0 1367 1511" fill="none"> <path fill-rule="evenodd" clip-rule="evenodd" d="M762.3 94.1211C713.532 65.8861 653.468 65.8861 604.7 94.1211L151.96 356.244C103.175 384.489 73.0458 436.744 73.0458 493.377L73.0458 1017.62C73.0458 1074.26 103.175 1126.51 151.96 1154.76L604.7 1416.88C653.468 1445.11 713.532 1445.11 762.3 1416.88L1215.04 1154.76C1263.83 1126.51 1293.95 1074.26 1293.95 1017.62V493.377C1293.95 436.744 1263.83 384.489 1215.04 356.244L762.3 94.1211ZM568.063 31.0153C639.489 -10.3384 727.511 -10.3384 798.937 31.0153L1251.68 293.138C1323.09 334.482 1367 410.832 1367 493.377V1017.62C1367 1100.17 1323.09 1176.52 1251.68 1217.86L798.937 1479.98C727.511 1521.34 639.489 1521.34 568.063 1479.98L115.323 1217.86C43.9137 1176.52 -2.48793e-06 1100.17 0 1017.62L2.23913e-05 493.377C2.73672e-05 410.832 43.9137 334.482 115.323 293.138L568.063 31.0153Z" fill="#E4253F"></path> </svg> 