<?xml version="1.0" encoding="UTF-8"?> <svg xmlns="http://www.w3.org/2000/svg" width="352" height="480" viewBox="0 0 352 480" fill="none"> <circle r="47.577" transform="matrix(-1 0 0 1 304.423 432.33)" fill="#090446"></circle> <path fill-rule="evenodd" clip-rule="evenodd" d="M178.206 223.405C150.787 223.405 128.56 246.049 128.56 273.983V429.329C128.56 457.262 150.787 479.907 178.206 479.907C205.624 479.907 227.852 457.262 227.852 429.329V273.983C227.852 246.049 205.624 223.405 178.206 223.405Z" fill="#E4253F"></path> <path fill-rule="evenodd" clip-rule="evenodd" d="M51.7146 0C23.1536 0 0.000411987 22.9623 0.000411987 51.2878V428.62C0.000411987 456.945 23.1536 479.907 51.7146 479.907C80.2755 479.907 103.429 456.945 103.429 428.62V51.2878C103.429 22.9623 80.2755 0 51.7146 0Z" fill="#E4253F"></path> </svg> 