<?xml version="1.0" encoding="UTF-8"?> <svg xmlns="http://www.w3.org/2000/svg" width="234" height="292" viewBox="0 0 234 292" fill="none"> <path fill-rule="evenodd" clip-rule="evenodd" d="M70.6406 56.6552C66.9458 52.3183 64.4451 47.0034 64.863 41.0478C66.067 23.8883 89.9536 27.6632 94.6001 36.3239C99.2465 44.9845 98.6944 66.953 92.6893 68.5009C90.2944 69.1182 85.1927 67.606 80.0004 64.4764L83.2595 87.5335H64.0156L70.6406 56.6552Z" fill="#915B3C"></path> <path fill-rule="evenodd" clip-rule="evenodd" d="M194.841 283.18C179.032 263.875 168.336 249.564 162.751 240.245C153.19 224.289 145.364 210.092 142.894 204.668C137.005 191.736 156.452 185.68 160.853 191.712C167.515 200.842 181.742 229.572 203.534 277.902L194.841 283.18Z" fill="#B28B67"></path> <path fill-rule="evenodd" clip-rule="evenodd" d="M162.446 277.567L133.025 203.508C126.732 190.007 157.12 181.133 161.745 187.416C172.244 201.68 197.198 257.95 200.326 262.2L162.446 277.567Z" fill="#0A0734"></path> <path fill-rule="evenodd" clip-rule="evenodd" d="M84.088 262.715C89.8191 254.355 110.665 226.23 122.019 214.592C125.282 211.248 128.466 208.039 131.477 205.048C140.427 196.157 158.25 211.1 149.316 219.198C127.068 239.364 94.6064 266.588 91.8943 269.015C88.093 272.417 80.4862 267.969 84.088 262.715Z" fill="#915B3C"></path> <path fill-rule="evenodd" clip-rule="evenodd" d="M85.4281 258.939C83.4539 260.564 82.1696 261.891 81.5751 262.921C80.8522 264.173 80.0058 266.121 79.036 268.764C80.4887 269.603 93.5439 277.14 118.202 291.376C121.162 288.599 121.623 286.444 119.585 284.909C117.547 283.375 115.866 282.081 114.54 281.027L101.022 262.402C100.762 262.044 100.26 261.964 99.9018 262.224C99.8957 262.229 99.8896 262.233 99.8836 262.238L97.0747 264.401C94.4979 264.176 92.5749 263.697 91.3058 262.964C90.2746 262.369 89.091 261.13 87.755 259.248L87.755 259.248C87.2423 258.526 86.2412 258.356 85.519 258.869C85.4879 258.891 85.4575 258.914 85.4281 258.939Z" fill="#090446"></path> <path fill-rule="evenodd" clip-rule="evenodd" d="M188.041 280.295C187.144 282.69 186.695 284.481 186.695 285.67C186.695 287.116 186.936 289.226 187.418 292C189.095 292 204.17 292 232.643 292C233.818 288.115 233.139 286.017 230.607 285.708C228.075 285.398 225.972 285.118 224.297 284.868L203.277 275.498C202.873 275.317 202.399 275.499 202.218 275.904C202.215 275.91 202.212 275.917 202.209 275.924L200.858 279.202C198.514 280.296 196.609 280.842 195.144 280.842C193.953 280.842 192.309 280.362 190.211 279.4L190.211 279.4C189.406 279.031 188.454 279.384 188.085 280.189C188.069 280.224 188.054 280.259 188.041 280.295Z" fill="#090446"></path> <path fill-rule="evenodd" clip-rule="evenodd" d="M122.438 207.207C97.9851 203.223 81.606 200.499 73.301 199.035C49.6285 194.86 42.7254 182.122 46.8069 154.328H90.423C96.1949 155.995 120.312 166.303 162.775 185.254C170.415 189.047 168.992 200.229 167.595 203.913C167.538 204.063 154.659 226.132 128.957 270.12L93.2775 247.391L122.505 209.885C123.277 208.33 123.255 207.438 122.438 207.207Z" fill="#090446"></path> <path fill-rule="evenodd" clip-rule="evenodd" d="M125.581 143.831L151.158 162.613C158.095 164.485 163.891 166.814 168.545 169.6C169.645 170.602 170.973 172.63 166.414 172.28C161.854 171.929 157.042 171.765 156.413 173.321C155.784 174.876 158.543 176.736 157.272 178.834C156.424 180.233 152.418 176.725 145.255 168.311L119.927 157.808L125.581 143.831ZM27.3786 144.479L44.1347 144.545C33.7886 177.945 28.2032 195.666 27.3786 197.709C25.5232 202.308 29.4495 209.31 31.1285 213.074C25.66 215.521 26.2426 206.459 19.3443 209.668C13.0477 212.597 8.25799 217.905 0.983265 213.416C0.0888803 212.864 -0.891219 210.787 1.47683 209.163C7.37649 205.118 15.8783 198.038 17.027 195.707C18.5935 192.529 22.044 175.453 27.3786 144.479Z" fill="#915B3C"></path> <path fill-rule="evenodd" clip-rule="evenodd" d="M74.9964 74.1687L81.9299 72.9794C107.655 95.2025 118.222 137.896 149.755 160.512L142.165 169.92C87.461 163.146 73.9021 111.071 74.9964 74.1687Z" fill="#C5243A"></path> <path fill-rule="evenodd" clip-rule="evenodd" d="M44.7715 161.302C72.5723 161.302 93.022 161.302 106.121 161.302C108.924 161.302 108.396 157.254 107.99 155.211C103.314 131.637 85.0564 106.225 85.0564 72.6682L67.3605 69.8933C52.7236 93.4337 47.6619 122.417 44.7715 161.302Z" fill="#DDE3E9"></path> <path fill-rule="evenodd" clip-rule="evenodd" d="M45.2655 93.0326C42.6954 92.2938 40.6601 90.5707 39.1597 87.8634C32.6918 76.1927 35.0276 69.7671 41.9398 67.655C48.8519 65.5428 55.0161 69.8934 66.029 69.8934C66.628 69.8934 67.1766 69.931 67.6749 70.0061L73.2146 70.3222C89.1088 124.189 93.4923 160.129 86.3652 178.14H38.0787C35.2177 184.812 32.4801 190.424 29.8657 194.979H16.7085C15.4702 154.941 24.9892 120.959 45.2655 93.0326Z" fill="#E4253F"></path> <path fill-rule="evenodd" clip-rule="evenodd" d="M48.5928 150.476C50.1114 163.182 52.5797 172.403 55.9976 178.141H38.0781C41.4153 170.359 44.9202 161.137 48.5928 150.476Z" fill="black" fill-opacity="0.1"></path> <path d="M70.1778 31.1179C71.4736 30.3698 72.6586 29.4297 73.7124 28.3734L82.6062 18.9512L86.8456 26.294C87.6214 27.6378 87.4225 29.2884 86.3484 30.4204L82.4487 34.5276C78.1522 39.0559 72.6811 42.2146 66.6113 43.6714L61.1045 44.995C59.5871 45.3592 58.0582 44.7061 57.2824 43.3623L52.9876 35.9236L66.0336 32.8067C67.5031 32.4702 68.882 31.8661 70.1778 31.1179Z" fill="#090446"></path> <path d="M41.4695 31.8227L57.1846 15.2628C58.7238 13.6063 60.7395 12.4425 62.9916 11.9101L85.1425 6.60811C86.6599 6.24393 87.7405 8.11562 86.6664 9.24769L70.9514 25.8076C69.4122 27.4641 67.3965 28.6278 65.1443 29.1603L46.1521 33.7265L48.6181 37.9978C49.0649 37.9958 49.4988 38.1932 49.7205 38.5771L50.3855 39.7289C50.6349 40.1609 50.6166 40.6833 50.3158 41.049L52.6813 42.8187C53.0192 43.0716 53.0212 43.5183 52.665 43.788L51.6646 44.4936C51.4726 44.6044 51.2327 44.7429 51.0407 44.8538L49.9294 45.3674C49.5658 45.5133 49.1799 45.2882 49.0819 44.8969L48.732 41.9634C48.2372 41.9931 47.8033 41.7957 47.554 41.3637L46.889 40.2119C46.6673 39.828 46.7133 39.3535 46.9384 38.9676L44.1953 34.2163L42.9455 34.49C41.4483 34.7785 40.3954 32.9548 41.4695 31.8227Z" fill="#E4253F"></path> </svg> 