<?xml version="1.0" encoding="UTF-8"?> <svg xmlns="http://www.w3.org/2000/svg" width="195" height="215" viewBox="0 0 195 215" fill="none"> <path fill-rule="evenodd" clip-rule="evenodd" d="M108.741 13.3708C101.784 9.35971 93.216 9.35971 86.2594 13.3708L21.6768 50.6077C14.7177 54.6202 10.4199 62.0434 10.4199 70.0887L10.4198 144.562C10.4198 152.608 14.7177 160.031 21.6768 164.043L86.2594 201.28C93.216 205.291 101.784 205.291 108.741 201.28L173.323 164.043C180.282 160.031 184.58 152.608 184.58 144.562V70.0887C184.58 62.0435 180.282 54.6202 173.323 50.6077L108.741 13.3708ZM81.0331 4.406C91.222 -1.46867 103.778 -1.46867 113.967 4.406L178.549 41.6429C188.736 47.5162 195 58.3624 195 70.0887V144.562C195 156.289 188.736 167.135 178.549 173.008L113.967 210.245C103.778 216.12 91.2219 216.12 81.0331 210.245L16.4505 173.008C6.2642 167.135 -3.54898e-07 156.289 0 144.562L3.19408e-06 70.0887C3.90388e-06 58.3624 6.26421 47.5162 16.4506 41.6429L81.0331 4.406Z" fill="#E4253F"></path> <path d="M44.5692 78.0121L44.5737 78.0063L44.5781 78.0005C50.0079 70.856 57.6307 67.2556 67.6455 67.2556C77.5804 67.2556 85.1674 70.853 90.5995 78.0005L90.5995 78.0005L90.6052 78.008C96.1685 85.233 99.0234 94.8945 99.0234 107.136C99.0234 119.376 96.1695 129.078 90.6027 136.382C85.173 143.454 77.5856 147.017 67.6455 147.017C57.7076 147.017 50.0793 143.455 44.5729 136.379C39.0859 129.155 36.2676 119.456 36.2676 107.136C36.2676 94.7326 39.0896 85.0779 44.5692 78.0121ZM158.713 121.875C158.713 129.975 156.057 136.097 150.862 140.451C145.655 144.801 139.097 147.017 131.076 147.017C124.585 147.017 118.965 145.562 114.166 142.699C109.751 139.995 106.493 136.199 104.385 131.26L119.382 122.703C120.286 124.869 121.563 126.631 123.253 127.915C125.382 129.535 128.028 130.291 131.076 130.291C134.159 130.291 136.76 129.562 138.642 127.877C140.583 126.206 141.533 123.965 141.533 121.308C141.533 118.658 140.586 116.44 138.626 114.838C136.746 113.163 134.151 112.439 131.076 112.439H127.564L120.814 102.459L132.804 87.7922L134.807 85.3428H131.643H106.501V68.9562H155.085V82.9091L142.156 98.8214L140.756 100.545L142.878 101.2C147.747 102.704 151.558 105.295 154.376 108.958L154.385 108.971L154.396 108.983C157.262 112.548 158.713 116.819 158.713 121.875ZM67.6455 83.9824C62.9196 83.9824 59.2779 86.0683 56.9103 90.1422C54.6152 94.0916 53.5612 99.8223 53.5612 107.136C53.5612 114.451 54.6152 120.181 56.9103 124.131C59.2779 128.205 62.9196 130.291 67.6455 130.291C72.3713 130.291 76.0131 128.205 78.3806 124.131C80.6758 120.181 81.7298 114.451 81.7298 107.136C81.7298 99.8223 80.6758 94.0916 78.3806 90.1422C76.0131 86.0683 72.3713 83.9824 67.6455 83.9824Z" stroke="white" stroke-width="3"></path> </svg> 