<?xml version="1.0" encoding="UTF-8"?> <svg xmlns="http://www.w3.org/2000/svg" width="195" height="215" viewBox="0 0 195 215" fill="none"> <path fill-rule="evenodd" clip-rule="evenodd" d="M108.741 13.3708C101.784 9.35971 93.216 9.35971 86.2594 13.3708L21.6768 50.6077C14.7177 54.6202 10.4199 62.0434 10.4199 70.0887L10.4198 144.562C10.4198 152.608 14.7177 160.031 21.6768 164.043L86.2594 201.28C93.216 205.291 101.784 205.291 108.741 201.28L173.323 164.043C180.282 160.031 184.58 152.608 184.58 144.562V70.0887C184.58 62.0435 180.282 54.6202 173.323 50.6077L108.741 13.3708ZM81.0331 4.406C91.222 -1.46867 103.778 -1.46867 113.967 4.406L178.549 41.6429C188.736 47.5162 195 58.3624 195 70.0887V144.562C195 156.289 188.736 167.135 178.549 173.008L113.967 210.245C103.778 216.12 91.2219 216.12 81.0331 210.245L16.4505 173.008C6.2642 167.135 -3.54898e-07 156.289 0 144.562L3.19408e-06 70.0887C3.90388e-06 58.3624 6.26421 47.5162 16.4506 41.6429L81.0331 4.406Z" fill="#E4253F"></path> <path d="M40.034 78.0121L40.0385 78.0063L40.0429 78.0005C45.4727 70.856 53.0956 67.2556 63.1103 67.2556C73.0453 67.2556 80.6322 70.853 86.0643 78.0005L86.0643 78.0005L86.0701 78.008C91.6334 85.233 94.4882 94.8945 94.4882 107.136C94.4882 119.376 91.6344 129.078 86.0676 136.382C80.6378 143.454 73.0504 147.017 63.1103 147.017C53.1725 147.017 45.5441 143.455 40.0377 136.379C34.5507 129.155 31.7324 119.456 31.7324 107.136C31.7324 94.7326 34.5544 85.0779 40.034 78.0121ZM155.116 116.206V117.706H156.616H163.052V133.186H156.616H155.116V134.686V145.317H137.935V134.686V133.186H136.435H103.13V116.551L126.264 68.9562H145.366L122.505 115.545L121.444 117.706H123.851H136.435H137.935V116.206V103.421H155.116V116.206ZM63.1103 83.9824C58.3845 83.9824 54.7427 86.0683 52.3752 90.1422C50.08 94.0916 49.026 99.8223 49.026 107.136C49.026 114.451 50.08 120.181 52.3752 124.131C54.7427 128.205 58.3845 130.291 63.1103 130.291C67.8362 130.291 71.4779 128.205 73.8455 124.131C76.1406 120.181 77.1946 114.451 77.1946 107.136C77.1946 99.8223 76.1406 94.0916 73.8455 90.1422C71.4779 86.0683 67.8362 83.9824 63.1103 83.9824Z" stroke="white" stroke-width="3"></path> </svg> 