<?xml version="1.0" encoding="UTF-8"?> <svg xmlns="http://www.w3.org/2000/svg" width="321" height="373" viewBox="0 0 321 373" fill="none"> <path d="M228.001 6C226.344 6 225.001 4.65685 225.001 3C225.001 1.34315 226.344 0 228.001 0V6ZM1.37869 352.621C0.207092 351.45 0.207092 349.55 1.37869 348.379L20.4706 329.287C21.6422 328.115 23.5416 328.115 24.7132 329.287C25.8848 330.458 25.8848 332.358 24.7132 333.529L7.74265 350.5L24.7132 367.471C25.8848 368.642 25.8848 370.542 24.7132 371.713C23.5416 372.885 21.6422 372.885 20.4706 371.713L1.37869 352.621ZM238.298 0.458703C239.948 0.608924 241.164 2.06832 241.014 3.71835C240.864 5.36838 239.404 6.58421 237.754 6.43399L238.298 0.458703ZM256.458 10.0762C254.875 9.58494 253.991 7.90394 254.482 6.32159C254.973 4.73925 256.654 3.85477 258.237 4.34605L256.458 10.0762ZM276.964 12.7622C278.378 13.6251 278.826 15.4712 277.963 16.8856C277.1 18.3001 275.254 18.7472 273.839 17.8843L276.964 12.7622ZM288.627 29.7514C287.477 28.5587 287.512 26.6596 288.704 25.5094C289.897 24.3593 291.796 24.3937 292.946 25.5864L288.627 29.7514ZM305.282 41.9209C306.122 43.3492 305.644 45.1878 304.216 46.0274C302.788 46.867 300.949 46.3898 300.109 44.9614L305.282 41.9209ZM308.061 62.3896C307.522 60.8226 308.356 59.116 309.923 58.5777C311.49 58.0394 313.197 58.8733 313.735 60.4403L308.061 62.3896ZM318.66 80.1357C318.93 81.7703 317.825 83.3149 316.19 83.5857C314.556 83.8564 313.011 82.7508 312.74 81.1162L318.66 80.1357ZM314.527 100.42C314.487 98.7634 315.797 97.3879 317.453 97.3475C319.109 97.3071 320.485 98.6171 320.525 100.273L314.527 100.42ZM319.782 120.388C319.624 122.037 318.159 123.246 316.51 123.088C314.86 122.93 313.651 121.465 313.809 119.815L319.782 120.388ZM310.902 139.095C311.234 137.472 312.819 136.425 314.442 136.758C316.066 137.09 317.112 138.675 316.78 140.298L310.902 139.095ZM311.785 159.797C311.297 161.38 309.619 162.269 308.035 161.782C306.452 161.295 305.563 159.616 306.05 158.033L311.785 159.797ZM299.464 176.438C300.091 174.904 301.842 174.169 303.376 174.795C304.909 175.422 305.645 177.173 305.018 178.707L299.464 176.438ZM296.659 196.916C295.905 198.392 294.098 198.977 292.623 198.223C291.147 197.47 290.562 195.663 291.316 194.187L296.659 196.916ZM281.723 211.224C282.593 209.814 284.441 209.376 285.851 210.246C287.261 211.117 287.699 212.965 286.829 214.375L281.723 211.224ZM275.647 230.998C274.67 232.336 272.793 232.628 271.455 231.651C270.117 230.673 269.825 228.796 270.802 227.458L275.647 230.998ZM258.661 242.814C259.737 241.554 261.63 241.405 262.89 242.481C264.15 243.557 264.299 245.45 263.223 246.71L258.661 242.814ZM249.659 261.446C248.493 262.623 246.594 262.632 245.417 261.465C244.24 260.299 244.231 258.4 245.398 257.223L249.659 261.446ZM231.109 270.63C232.358 269.54 234.253 269.669 235.342 270.917C236.432 272.166 236.303 274.061 235.055 275.15L231.109 270.63ZM219.506 287.777C218.183 288.776 216.302 288.513 215.304 287.191C214.305 285.869 214.567 283.988 215.889 282.989L219.506 287.777ZM199.828 294.268C201.216 293.363 203.075 293.755 203.98 295.142C204.885 296.53 204.494 298.389 203.106 299.294L199.828 294.268ZM185.999 309.65C184.554 310.461 182.725 309.946 181.915 308.501C181.104 307.056 181.619 305.227 183.064 304.417L185.999 309.65ZM165.696 313.429C167.191 312.713 168.982 313.345 169.698 314.839C170.413 316.333 169.782 318.125 168.288 318.84L165.696 313.429ZM150.027 326.891C148.491 327.512 146.742 326.77 146.121 325.234C145.5 323.698 146.242 321.949 147.778 321.328L150.027 326.891ZM129.377 328.131C130.947 327.603 132.649 328.448 133.177 330.018C133.705 331.589 132.86 333.29 131.29 333.818L129.377 328.131ZM112.134 339.649C110.536 340.087 108.886 339.145 108.448 337.547C108.011 335.949 108.952 334.299 110.551 333.862L112.134 339.649ZM91.4302 338.53C93.0499 338.181 94.6459 339.211 94.9951 340.83C95.3443 342.45 94.3143 344.046 92.6947 344.395L91.4302 338.53ZM73.1803 348.074C71.5448 348.339 70.004 347.228 69.7388 345.593C69.4736 343.957 70.5844 342.416 72.2199 342.151L73.1803 348.074ZM52.75 344.815C54.3966 344.63 55.881 345.816 56.0656 347.462C56.2502 349.109 55.065 350.593 53.4185 350.778L52.75 344.815ZM33.4073 352.544C31.7539 352.651 30.3265 351.398 30.2191 349.745C30.1118 348.091 31.365 346.664 33.0184 346.556L33.4073 352.544ZM13.5114 347.394C15.1679 347.358 16.5394 348.672 16.5748 350.329C16.6102 351.985 15.296 353.357 13.6395 353.392L13.5114 347.394ZM228.001 0C231.527 0 234.959 0.154732 238.298 0.458703L237.754 6.43399C234.602 6.14702 231.351 6 228.001 6V0ZM258.237 4.34605C265.008 6.4484 271.255 9.27919 276.964 12.7622L273.839 17.8843C268.561 14.6639 262.767 12.0351 256.458 10.0762L258.237 4.34605ZM292.946 25.5864C297.659 30.4734 301.772 35.95 305.282 41.9209L300.109 44.9614C296.826 39.3752 292.995 34.2802 288.627 29.7514L292.946 25.5864ZM313.735 60.4403C315.882 66.6898 317.524 73.278 318.66 80.1357L312.74 81.1162C311.655 74.5659 310.092 68.3033 308.061 62.3896L313.735 60.4403ZM320.525 100.273C320.685 106.825 320.438 113.546 319.782 120.388L313.809 119.815C314.443 113.202 314.681 106.721 314.527 100.42L320.525 100.273ZM316.78 140.298C315.461 146.744 313.797 153.255 311.785 159.797L306.05 158.033C308.006 151.672 309.622 145.347 310.902 139.095L316.78 140.298ZM305.018 178.707C302.533 184.79 299.747 190.869 296.659 196.916L291.316 194.187C294.328 188.289 297.043 182.363 299.464 176.438L305.018 178.707ZM286.829 214.375C283.372 219.977 279.645 225.526 275.647 230.998L270.802 227.458C274.708 222.112 278.348 216.693 281.723 211.224L286.829 214.375ZM263.223 246.71C258.946 251.718 254.426 256.637 249.659 261.446L245.398 257.223C250.059 252.519 254.48 247.709 258.661 242.814L263.223 246.71ZM235.055 275.15C230.093 279.481 224.91 283.695 219.506 287.777L215.889 282.989C221.181 278.993 226.254 274.867 231.109 270.63L235.055 275.15ZM203.106 299.294C197.602 302.884 191.9 306.34 185.999 309.65L183.064 304.417C188.849 301.173 194.437 297.785 199.828 294.268L203.106 299.294ZM168.288 318.84C162.378 321.67 156.291 324.357 150.027 326.891L147.778 321.328C153.927 318.841 159.899 316.204 165.696 313.429L168.288 318.84ZM131.29 333.818C125.063 335.912 118.678 337.859 112.134 339.649L110.551 333.862C116.984 332.102 123.26 330.189 129.377 328.131L131.29 333.818ZM92.6947 344.395C86.3277 345.768 79.823 346.997 73.1803 348.074L72.2199 342.151C78.7618 341.09 85.165 339.881 91.4302 338.53L92.6947 344.395ZM53.4185 350.778C46.8725 351.512 40.2023 352.103 33.4073 352.544L33.0184 346.556C39.7211 346.121 46.2981 345.538 52.75 344.815L53.4185 350.778ZM13.6395 353.392C10.2881 353.464 6.90829 353.5 3.5 353.5V347.5C6.86588 347.5 10.203 347.464 13.5114 347.394L13.6395 353.392Z" fill="white"></path> </svg> 