<?xml version="1.0" encoding="UTF-8"?> <svg xmlns="http://www.w3.org/2000/svg" width="78" height="87" viewBox="0 0 78 87" fill="none"> <path fill-rule="evenodd" clip-rule="evenodd" d="M43.4963 5.37011C40.7136 3.75915 37.2864 3.75915 34.5038 5.37011L8.67073 20.3256C5.88708 21.9371 4.16794 24.9186 4.16794 28.1498L4.16794 58.0608C4.16794 61.292 5.88708 64.2734 8.67073 65.8849L34.5037 80.8404C37.2864 82.4514 40.7136 82.4514 43.4962 80.8404L69.3293 65.8849C72.1129 64.2734 73.8321 61.292 73.8321 58.0608V28.1498C73.8321 24.9186 72.1129 21.9371 69.3293 20.3256L43.4963 5.37011ZM32.4132 1.76959C36.4888 -0.589862 41.5112 -0.589862 45.5868 1.76959L71.4198 16.7251C75.4943 19.084 78 23.4402 78 28.1498V58.0608C78 62.7704 75.4943 67.1266 71.4198 69.4854L45.5868 84.4409C41.5112 86.8004 36.4888 86.8004 32.4132 84.4409L6.58022 69.4854C2.50568 67.1266 -1.41959e-07 62.7704 0 58.0608L1.27763e-06 28.1498C1.56155e-06 23.4402 2.50568 19.084 6.58022 16.7251L32.4132 1.76959Z" fill="#E4253F"></path> </svg> 