<?xml version="1.0" encoding="UTF-8"?> <svg xmlns="http://www.w3.org/2000/svg" width="1182" height="1185" viewBox="0 0 1182 1185" fill="none"> <path fill-rule="evenodd" clip-rule="evenodd" d="M803.811 484.803C792.678 468.146 771.67 462.829 758.668 463.318C769.124 455.766 789.566 452.754 795.224 453.241C798.923 455.884 807.465 471.159 803.81 484.801L803.811 484.803ZM864.43 444.422C868.578 390.664 740.513 392.704 686.424 354.905C681.276 369.521 694.463 398.684 710.833 412.556C671.346 431.775 627.574 480.087 603.433 546.97C615.985 476.981 602.231 413.256 577.645 376.869C598.758 373.04 624.775 354.381 627.61 339.146C561.868 344.836 451.979 279.037 428.675 327.661C423.755 337.955 424.544 355.864 428.904 362.12C430.831 358.955 439.101 349.133 456.36 351.059C543.576 360.854 578.943 508.795 501.777 544.101C500.602 544.637 500.748 546.248 502.053 546.598L691.445 597.345C692.734 597.691 693.671 596.369 692.937 595.323C643.744 526.158 748.344 415.722 828.772 450.846C844.697 457.813 846.93 470.449 847.02 474.152C853.923 470.916 863.56 455.801 864.431 444.42L864.43 444.422ZM916.301 332.385C916.092 327.146 965.273 340.194 957.03 370.955C951.506 391.573 919.491 393.46 913.759 414.855C911.089 424.82 919.85 435.001 923.139 435.883C924.772 399.504 951.265 425.869 957.997 434.559C953.573 383.864 991.319 394.291 993.271 372.113C994.646 356.616 960.573 352.279 950.682 341.598C933.13 322.65 922.01 264.242 891.691 311.546C914.743 348.26 885.652 385.407 846.696 374.969C846.696 374.969 844.83 381.059 845.056 381.644C892.131 391.819 917.477 362.011 916.303 332.386L916.301 332.385ZM351.461 272.038C361.64 267.879 397.761 258.292 381.004 290.618C384.276 291.495 396.955 287.058 399.625 277.093C405.357 255.699 378.574 238.056 384.099 217.439C392.342 186.676 441.458 199.968 438.656 204.401C422.843 229.472 429.892 267.964 475.745 282.687C476.217 282.29 477.647 276.083 477.647 276.083C438.707 265.649 432.086 218.929 470.392 198.66C467.787 142.533 428.953 187.556 404.279 195.189C390.372 199.496 358.696 186.214 352.138 200.322C342.754 220.508 380.638 230.348 351.46 272.037L351.461 272.038ZM460.503 392.812C478.488 383.957 499.339 389.857 510.341 396.777C505.093 385.018 488.864 372.18 483.737 369.776C479.212 370.216 464.16 379.169 460.505 392.811L460.503 392.812ZM731.241 158.415L715.979 124.707L685.91 146.269L700.783 181.427L731.243 158.416L731.241 158.415ZM838.237 276.648L827.38 252.688L806.014 268.014L816.974 291.524L838.237 276.646L838.237 276.648ZM816.862 879.367L802.224 852.269L775.998 868.417L791.348 892.859L816.863 879.364L816.862 879.367ZM566.37 203.798L555.512 179.838L534.146 195.164L545.106 218.676L566.369 203.798L566.37 203.798ZM494.407 287.684L554.525 303.793C605.068 317.336 636.125 292.408 650.206 267.346L701.636 281.126C701.3 309.873 715.714 346.985 766.276 360.533L826.393 376.641C826.393 376.641 840.732 365.191 845.261 358.833C861.57 335.955 852.614 320.846 834.913 316.103L806.473 330.71L789.146 303.84C771.445 299.097 756.136 307.704 758.819 335.671C759.158 339.247 760.781 344.799 762.4 349.73C741.854 341.084 718.539 319.187 720.948 286.301C720.948 286.301 743.42 265.485 750.092 256.413C774.067 223.783 759.907 204.024 733.362 196.911L688.296 228.015L664.823 178.546C638.279 171.433 616.136 181.464 620.599 221.715C621.826 232.905 630.893 262.173 630.893 262.173C616.522 291.853 585.383 299.159 563.265 296.374C567.151 292.917 571.317 288.915 573.398 285.989C589.687 263.106 580.765 248.006 563.046 243.259L534.608 257.866L517.283 230.996C499.567 226.249 484.288 234.864 486.956 262.827C487.699 270.598 494.411 287.688 494.411 287.688L494.407 287.684ZM1066.01 640.576C1052.83 643.343 976.212 656.994 892.168 621.831C894.186 617.913 896.074 613.93 897.83 609.888C957.728 618.496 1007.54 621.295 1042.09 612.627C1081.47 602.735 1108.66 561.217 1100.44 522.705C1100.22 521.73 1099.02 521.246 1098.21 521.794C1085.81 530.167 1008.82 579.034 909.518 574.029C910.581 569.101 911.436 564.13 912.08 559.13C964.621 545.484 1017.13 527.612 1045.64 506.043C1088.74 473.428 1099.87 420.085 1076.55 385.116C1076.31 384.76 1075.92 384.526 1075.49 384.474C1075.06 384.421 1074.63 384.557 1074.31 384.844C1060.4 398.174 930.958 519.961 814.905 556.411C813.488 556.861 812.065 557.293 810.636 557.705C807.333 558.669 806.035 562.278 807.867 565.124C816.522 578.549 819.765 594.873 815.475 610.882C808.018 638.714 780.359 656.113 750.654 653.535C735.493 652.465 714.904 646.081 696.692 634.122C695.871 633.589 694.781 633.934 694.539 634.836L670.918 722.992C670.538 724.409 672.602 725.339 673.477 724.115C694.246 695.19 732.443 698.095 748.346 702.356C744.854 738.287 747.443 769.517 756.614 788.41C771.561 819.123 806.966 828.235 826.896 815.109C827.225 814.892 827.436 814.536 827.47 814.143C827.504 813.75 827.356 813.363 827.069 813.093C819.458 805.512 776.449 760.116 780.024 705.564C784.468 705.25 788.863 704.725 793.168 703.866C802.415 735.818 820.038 766.79 837.001 781.36C865.503 805.813 897.488 806.204 916.922 786.797C917.62 786.117 917.301 784.951 916.347 784.599C896.551 777.56 839.231 743.131 824.411 692.695C828.182 690.727 831.922 688.622 835.509 686.28C857.527 714.749 891.652 743.846 918.636 755.149C950.206 768.384 990.133 767.879 1001.24 730.017C1001.46 729.257 1000.95 728.449 1000.13 728.281C988.29 725.859 910.27 708.553 863.771 662.286C866.652 659.168 869.422 655.95 872.076 652.637C872.076 652.637 949.85 694.511 990.934 698.55C1031.76 702.572 1062.47 679.562 1067.76 642.122C1067.88 641.184 1066.97 640.37 1066.01 640.572L1066.01 640.576ZM316.828 503.863C317.475 508.061 318.27 512.234 319.211 516.376C255.83 533.183 179.632 509.2 168.126 505.351C167.317 505.083 166.459 505.556 166.273 506.308C156.986 544.643 191.294 565.037 225.251 569.362C254.258 573.062 298.373 564.929 331.676 551.282C333.627 555.109 335.799 558.798 338.077 562.385C300.012 598.647 233.173 599.81 212.508 596.008C211.507 595.836 210.663 596.69 210.913 597.624C218.039 624.147 245.937 639.801 282.86 632.88C304.822 628.74 335.57 610.728 359.554 587.684C362.866 590.581 366.412 593.233 370.085 595.722C345.906 644.754 285.963 662.564 275.578 665.323C275.197 665.417 274.879 665.679 274.712 666.035C274.546 666.391 274.549 666.803 274.721 667.156C285.418 688.488 320.651 698.304 348.951 679.179C366.344 667.402 384.184 641.647 399.125 608.786C415.041 613.051 449.558 629.629 453.082 665.064C453.246 666.564 455.496 666.789 455.876 665.371L479.497 577.215C479.738 576.315 478.953 575.467 477.975 575.517C456.224 576.768 435.202 572.004 421.554 565.352C394.524 552.731 379.271 523.833 386.729 495.999C391.019 479.99 402.006 467.462 416.201 460.161C419.221 458.63 419.885 454.85 417.523 452.369C416.482 451.294 415.454 450.206 414.44 449.106C332.215 359.561 281.027 189.49 275.594 170.859C275.343 169.99 274.298 169.547 273.476 169.947C235.838 188.599 218.797 240.343 239.813 290.118C253.719 323.052 290.256 364.785 328.923 402.87C326.986 407.524 325.247 412.257 323.709 417.057C235.277 371.773 193.064 291.081 186.435 277.531C186 276.613 184.684 276.424 184.022 277.163C157.677 306.429 160.469 355.948 189.598 384.198C215.183 408.978 259.724 431.462 315.901 453.956C315.4 458.334 315.043 462.728 314.831 467.13C224.564 455.57 165.044 405.522 154.934 396.465C154.183 395.79 152.98 396.057 152.627 396.944C138.509 432.021 153.588 467.267 190.954 484.196C228.54 501.237 316.829 503.859 316.829 503.859L316.828 503.863ZM783.884 920.707L760.01 888.796C746.014 892.75 734.081 901.789 727.052 914.247C708.172 911.92 661.508 887.608 668.289 881.593C743.161 819.68 713.768 763.001 663.105 752.14L649.341 803.506C644.921 820.001 626.943 829.51 609.209 824.758L574.693 815.509C549.932 808.875 527.144 829.445 527.144 829.445C527.144 829.445 517.697 800.237 492.935 793.602L458.416 784.353C440.671 779.598 429.886 762.382 434.306 745.887L448.069 694.523C398.761 678.598 344.934 712.979 378.835 804.035C381.676 812.548 327.577 810.467 304.441 801.126C299.892 792.906 291.903 786.351 281.725 783.623C277.399 782.465 272.901 782.086 268.441 782.502C268.441 782.502 198.289 668.321 196.801 666.989L198.059 665.396C206.092 656.82 200.826 643.714 195.44 643.09C203.392 637.485 212.142 605.956 180.713 589.701C179.989 596.311 177.013 609.401 177.013 609.401C177.013 609.401 154.979 588.563 138.818 597.119C123.841 607.534 133.077 636.176 133.077 636.176C133.077 636.176 119.804 632.963 113.451 630.671C114.349 665.553 147.014 671.852 155.658 667.332C153.828 672.354 163.457 682.784 174.85 679.538L179.723 678.605C180.211 679.829 248.583 790.854 248.583 790.854C242.705 795.967 238.652 803.092 237.844 811.626C236.598 824.966 244.394 838.388 257.233 844.771C266.303 849.264 275.816 849.816 284.178 847.526L302.384 876.514C304.019 879.046 306.608 881.046 309.925 881.691C315.959 882.881 321.684 879.263 322.711 873.635C323.191 871.098 322.491 868.622 321.171 866.534C320.898 866.001 302.646 836.938 302.646 836.938C326.454 828.252 366.45 828.357 397.446 836.663C402.892 838.122 406.686 834.2 406.02 829.177C401.027 791.645 437.773 775.276 463.666 803.557C474.963 815.89 484.218 836.704 486.997 868.033C432.429 866.711 358.936 883.65 335.922 917.474C327.05 930.538 338.342 954.611 357.388 963.952C357.723 964.126 358.114 964.159 358.473 964.043C358.832 963.927 359.129 963.672 359.299 963.335C384.728 910.45 455.748 884.992 488.805 886.294C489.248 890.91 489.099 889.415 489.546 894.016C451.3 900.974 409.306 926.014 389.119 963.748C379.866 981.027 395.97 1003.15 411.723 1012.25C412.515 1012.71 413.513 1012.34 413.78 1011.52C430.647 961.483 464.71 924.275 490.117 910.001C489.638 913.993 489.018 917.967 488.256 921.916C488.256 921.916 452.244 973.844 441.012 1015.76C435.787 1035.26 461.119 1056.64 464.89 1059.7C470.752 1059.22 503.365 1053.37 508.59 1033.87C519.823 991.95 514.599 928.974 514.599 928.974C515.919 925.175 517.373 921.425 518.96 917.729C533.811 942.791 544.725 992.033 534.298 1043.8C534.123 1044.64 534.812 1045.48 535.709 1045.47C553.917 1045.48 578.911 1034.36 579.552 1014.78C580.919 971.999 557.089 929.323 527.444 904.173C530.116 900.407 529.241 901.628 531.933 897.851C561.228 913.257 609.99 970.807 605.569 1029.32C605.549 1029.7 605.68 1030.07 605.933 1030.35C606.186 1030.63 606.54 1030.79 606.916 1030.81C628.065 1032.24 649.912 1017.05 648.729 1001.29C645.742 960.501 590.547 909.08 542.63 882.941C560.716 857.204 579.137 843.805 595.085 838.772C631.636 827.223 655.271 859.775 632.183 889.782C629.095 893.794 630.404 899.084 635.866 900.547C670.926 909.942 710.722 934.181 723.266 955.745C729.799 975.061 747.173 990.953 770.55 994.81C797.105 999.213 823.414 985.424 832.77 962.173C840.957 941.796 835.133 919.971 820.533 905.019L783.884 920.714L783.884 920.707ZM602.006 707.553C613.859 706.447 629.888 714.208 625.143 729.617C624.06 733.104 629.01 734.431 630.331 730.925C639.801 708.489 625.853 697.553 608.646 695.871C608.746 687.311 608.947 679.859 608.899 672.404C608.884 666.383 611.15 655.687 617.651 657.429C621.158 658.368 617.117 667.803 615.66 671.941C614.37 675.57 615.103 678.172 618.085 679.085C619.943 679.664 622.928 677.898 624.749 676.682C637.041 668.544 643.652 652.62 634.739 641.696C627.286 632.534 602.805 631.306 593.89 639.122C593.892 635.278 590.885 628.128 589.372 624.956C587.907 621.868 587.811 619.993 591.366 618.575C593.05 617.881 598.393 614.816 599.555 610.482C600.242 607.918 599.524 602.655 593.21 600.963C588.229 599.628 581.767 601.594 579.706 609.284C579.248 610.995 579.175 612.94 579.749 615.203C576.739 613.839 568.134 611.763 563.453 611.67L579.522 794.526C599.196 790.605 615.572 780.437 619.476 765.865C622.805 753.442 603.408 752.661 591.922 759.97C593.287 743.457 594.639 728.233 595.748 712.991C596.061 708.79 598.476 707.901 602.01 707.555L602.006 707.553ZM546.49 571.39L549.749 610.238C538.132 609.907 518.437 613.166 515.612 623.71C511.849 637.751 534.238 653.545 548.899 656.295C547.325 659.309 547.385 662.383 548.92 665.59C543.707 664.193 533.222 663.985 529.061 666.599C523.346 657.462 512.121 651.69 505.301 654.492C498.443 657.316 496.299 664.641 500.007 674.565C502.602 681.442 502.63 687.551 496.185 692.986C513.498 697.625 513.151 673.409 519.931 675.226C517.878 679.353 517.067 684.549 517.538 690.678C517.844 694.75 517.137 697.391 513.942 700.378C505.965 707.809 491.783 725.989 487.993 744.846C482.324 743.293 479.811 741.13 483.889 733.917C485.406 731.229 484.175 728.692 480.864 731.617C477.206 734.84 474.154 741.202 473.386 744.069C468.962 760.582 487.74 769.178 496.185 767.697C512.275 794.535 556.441 800.361 572.618 797.139L552.727 570.898C552.233 566.596 546.229 566.981 546.494 571.388L546.49 571.39ZM498.391 740.469C499.114 731.567 514.984 719.563 533.923 708.954C528.172 717.633 525.754 734.601 530.504 741.942C519.612 739.024 506.126 737.601 498.393 740.469L498.391 740.469Z" fill="#E4253F" fill-opacity="0.1"></path> </svg> 